/* XPM */
static char *result[] = {
/* columns rows colors chars-per-pixel */
"64 64 173 2 ",
"   c #030103",
".  c #0B0003",
"X  c #02020C",
"o  c #0B030B",
"O  c #00090B",
"+  c #100800",
"@  c #13010F",
"#  c #020214",
"$  c #0A0314",
"%  c #020A14",
"&  c #0B0915",
"*  c #02031C",
"=  c #09041C",
"-  c #02091D",
";  c #0A0A1C",
":  c #110412",
">  c #11031B",
",  c #020423",
"<  c #0A0624",
"1  c #020A24",
"2  c #0B0A24",
"3  c #02042B",
"4  c #0A052B",
"5  c #020B2C",
"6  c #0A0B2B",
"7  c #110623",
"8  c #100B23",
"9  c #130629",
"0  c #041020",
"q  c #01122C",
"w  c #0A112D",
"e  c #010633",
"r  c #090233",
"t  c #010C33",
"y  c #0A0B31",
"u  c #01063B",
"i  c #010C3B",
"p  c #0A0C39",
"a  c #021234",
"s  c #091333",
"d  c #01123C",
"f  c #0A123B",
"g  c #051A3D",
"h  c #111731",
"j  c #010D42",
"k  c #010D4B",
"l  c #021344",
"z  c #091345",
"x  c #031944",
"c  c #081B45",
"v  c #01144A",
"b  c #09154C",
"n  c #021A4C",
"m  c #0A1B4C",
"M  c #020F53",
"N  c #021453",
"B  c #0A1552",
"V  c #011B54",
"C  c #091C55",
"Z  c #02155A",
"A  c #0B145F",
"S  c #021B5C",
"D  c #0B1C5B",
"F  c #101B50",
"G  c #01204F",
"H  c #032254",
"J  c #0C2254",
"K  c #02225C",
"L  c #0A225E",
"P  c #102159",
"I  c #001663",
"U  c #021C63",
"Y  c #091D64",
"T  c #011D6A",
"R  c #0B1F6D",
"E  c #001D71",
"W  c #011F7D",
"Q  c #032363",
"!  c #0A2264",
"~  c #022867",
"^  c #02246B",
"/  c #0A236C",
"(  c #022A6D",
")  c #0E296C",
"_  c #112365",
"`  c #10246D",
"'  c #022474",
"]  c #0B2471",
"[  c #032A74",
"{  c #0A2B74",
"}  c #01267A",
"|  c #0A257C",
" . c #042B7C",
".. c #0A2C7C",
"X. c #043176",
"o. c #03317D",
"O. c #0C327B",
"+. c #12347B",
"@. c #022683",
"#. c #0B2685",
"$. c #032D84",
"%. c #0A2C84",
"&. c #04278A",
"*. c #0A278B",
"=. c #032D8B",
"-. c #0B2D8A",
";. c #132C82",
":. c #102F8A",
">. c #043185",
",. c #0C3385",
"<. c #023D87",
"1. c #0D3886",
"2. c #02328C",
"3. c #0B348C",
"4. c #033D8D",
"5. c #09398A",
"6. c #103085",
"7. c #052793",
"8. c #022D93",
"9. c #082E90",
"0. c #012F9A",
"q. c #092F9C",
"w. c #023394",
"e. c #0B3593",
"r. c #033A96",
"t. c #0C3993",
"y. c #02359C",
"u. c #0B349B",
"i. c #023A9D",
"p. c #0A3B9B",
"a. c #103495",
"s. c #0234A3",
"d. c #0A34A4",
"f. c #023AA3",
"g. c #0B3CA4",
"h. c #0335AA",
"j. c #0836AF",
"k. c #023CAB",
"l. c #0A3AAB",
"z. c #0036B1",
"x. c #0937B1",
"c. c #023CB2",
"v. c #093CB3",
"b. c #023ABA",
"n. c #0142A6",
"m. c #0844A6",
"M. c #0242AD",
"N. c #0842AE",
"B. c #0344B1",
"V. c #0C43B4",
"C. c #004AB1",
"Z. c #0646BB",
"A. c #0D43BA",
"S. c #004FB8",
"D. c #0849BF",
"F. c #0B3DC0",
"G. c #003FCE",
"H. c #0244C5",
"J. c #0945C7",
"K. c #074CC3",
"L. c #0B4AC2",
"P. c #0247CA",
"I. c #024ACB",
"U. c #0949CC",
"Y. c #104AC5",
"T. c #0252C0",
"R. c #0045D3",
"E. c #004BD3",
"W. c #0A4CD2",
"Q. c #0044DA",
"!. c #024ED8",
"~. c #0145E3",
"^. c #024CE1",
/* pixels */
"h 1 a , * = , , * - y i 6 a j z K Y S v t N r.f.k.H.E.r.O   X         - @.P.C.b.s.f.' t g S S K H j t s i 6 & * , , * # , 5 5 f ",
", t n l i 3 * 1 # X * , 1 5 i i a t e 5 t ^ s.k.E.I.v.l     % # # # .   t y.W.Q.k.M.@.a 5 u t i i i 5 q 3 *   # w * , i l v l 3 ",
"t m +. ...V e , 1 * X * # X ; o - & ; 6 p ;.b.b.!.K.[   . $ p z z i 1 .   C Y.!.h.k.w.x q 6 & 1 $ o X # = # % 3 * , v [ X...D t ",
", v %.y.s.%.S e 3 e $ = t , * X * X X 1 j 3.z.b.P.U.n   & r i N N l a 9   q v.P.A.B.g.V 5 #   , # $ * t , # , e , n $.y.y.>.S 1 ",
"* i [ s.h.s.,.Q , 1 X 3 ,.r.-.$.! , # t v 3.k.V.b.J.V % * u V 2.@.^ d r X d j.K.v.k.s.S a % X n =.} >.,.d $ 1 1 n %.y.s.s. .l * ",
"= , S -.y.y.r.$.t 5 # * w.h.@.2.t.i # 1 v 2.i.i.n.V.=.3 , i ,.g.g.5.N * 1 K k.Z.l.f.g.U a X -  .i.} y.r.3 # 3 5  .y.f.y.u.Q 5 < ",
"* , t D %.r.f.y.v i 2 $  .&.d l y.i X , l >.f.y.k.l.s.Q l x Q l x K n a D u.k.z.y.i.9.M 1   , r.S i '  ., = u l y.s.y.5.Q i , * ",
", 1 , e U =.y.k.L 5 =   [ 8.g l i.d . $ u } i.u.f.w.2.u.U T N   X a S ~ 7.s.<.i.y.i.*.j ; . 1 s.K d ..$.# o e c c.y.w.' i , 6 * ",
", % , 3 1 t v P c t = X K t.u.s.g.Q , $ < k $.r.w.=.{ ~ S R _ e * D @.E K ^ *.d.s.e.M 4 = * V u.s.d.u.K # # q x ! B t 1 t < o * ",
"# X * 3 1 e i i i j 3   - 1 5 d Q J 3 * * 5 Q >.y.w.8.=.=.$.) a * J =.2.>.>.w.f.2.^ e , % * c / d 1 5 - # 3 a j 5 5 1 3 e * X , ",
"t * # $ X X ; : 2 4 , $ X     X , 1 # X = t d n >.w.r.y.w.} n * X d [ 2.w.2.2.2.S a 3 4 X X - , #   X X * 4 - 8 < > X % # X # 5 ",
"p , * = 5 , #   X X # < 5 1 6 < = $   X , 4 1 - N S Q ^ Q v , X o , l Q ^ / Q V t 1 - < # X # o 4 < 1 , 4 =     # # * t , # * t ",
"q 1 # t ,.w. . .K 1 % 5 d V j % 2 , < * * , - 2 3 1 5 1 * * # $ # # * 3 e e 3 , , , * * 3 = * 6 < i V l t & % n >.{ >.,.l * , y ",
"p t X , w.s.@.9.e.1   3 V e.8.! j i 3 3 , , , , 3 - % X $ # * e p 1 * < , , - , = , * * e 3 3 k ^ >.w.U t X # %.f.@.y.2.1 # 1 f ",
"i i & , =.=.i x q.5 X 3 l 8.b.f.-.^ a 1 , , , , 3 , 1 1 4 a t l l a 1 1 , , , 1 , , , , 5 a S *.s.k.s.N 5 o % *.H d ' &., = i i ",
"z i o X %.2.l x d.g X < - ! s.y.y.>.V 1 = * , e 4 , 5 i u i t x v d q t e 1 - 1 t * * < - d  .d.y.r...i - X 1 u.K t | %.# O i f ",
"S t ; % K 5.s.f.p.Q , = < j 3.y.s.y.5.V , % = e C Q V v N I U ^ ' Q V N v n K D t = $ * n } 2.r.y.2.S 6 = # l u.i.f.u./ 5 * 5 v ",
"! t &   6 i i d ^ L 1 # < i Q >.0.y.w.U 1 = , i K 2.=.{ ..-...~ ( [ %.*.| =.2.' t , # 3 U 2.r.r.e.( i , o * z { l j i , X X p A ",
"S e ; X # # X . , < X X - 5 d n 2.r.e.^ i , , e V =.#.V C U N d i v U Y S ' =.U t 1 , e / e.w.2.Y d i 3 # X , , +   X X O X 5 x ",
"x t 5 5 t 4 = $ * # X # * 3 1 1 V Q ^ D i , , 5 d | Y * % , , * # * , * % z { S 1 1 * e D { U Q i , 1 3 # $ # X $ , 6 1 q 5 t k ",
"a t p j k k l u < < - * , , * - , 1 i i * * , t x %.Y * - t t 5 2 5 a - # x { S 5 1 # , u i e 1 < * # * , = & 1 t d l l d f d a ",
"N ^ ,.t.t.5.$.' k e t 4 , , , * % * * , * # 1 t V %.I , t C z a t z C l 3 N %.T t q * # * , * $ = = % * 3 , , j ^ @.w.g.d.9.] S ",
"w.f.z.z.k.f.i.f.$.S d < * , < , = , , , < , d l Q ..N , t B z 5 3 d b p , j { W l a 1 1 , , 1 = , , * , , t V @.k.y.i.i.k.k.k.y.",
"f.c.b.c.M.i.y.y.y.,.n , ; = , 5 e t 3 t t t j j ' ( i % q i e 5 3 , 5 q % 5 ! [ M i t q 1 3 t , e * 1 3 1 d } s.d.y.r.m.M.c.c.f.",
"M.E.!.G.b.f.f.g.w.w.>.N 3 e 3 4 F S V g x V Q ' 7.C % X % # # * # , X X # # n 7.^ ! V N v v K C 4 3 t e j  .p.8.w.y.M.H.G.P.Q.M.",
"H.I.K.J.L.B.k.y.2.y.w.S 1 - , , Q 2.=.| #.%...( S t * i v C ! { / ) S k i * 1 V ^ ..$.%.| $.=.' , , * , N %.w.=.2.k.Z.H.Z.D.W.P.",
"I.V.) n V =.h.w. .=.r.Q 1 % 1 5 S >.@.U U Y B d # * j R #.@.} @.} $.%.| ] z * # i b U Y D ' =.' 1 6 * , ! w.=.$.8.f.=.T S ! i.W.",
">.l   O * e U e.~ =.y.^ 1 X 1 u x { S * * , , * X i / } ( S v n n v U T  .{ t X * * 3 - # l { D u 5 % , Q r.=.[ >. .d % o   a } ",
"%   . o # , v U S =.r.U * # 6 u N ..C % - t e 1 # v @.^ l a 6 2 ; 5 p j U o.V * < t t 1 # x { U j e * , S =.=.( ^ V , X $ .   * ",
"O   $ r u d l T ^ %.@.v * % 5 i I -.U , t C b i X S %.S q q , , = < 6 t n  .Q * 5 v C l 3 N %.T p e * * j E %.} Q v d e r 3   . ",
"  % p j S ,.L v ! ) n , # * i i ^ ..v , i v z i % ! } v 1 < 3 , , , 3 4 d ' ..5 3 f n f , j { ' a i , # = l ! / v n ;./ j i %   ",
". X x v 2.l.v   e a *   $ t d l ^ ~ d * 1 a 1 3 , ] @.n 2 , , 1 - * , 6 t ' %.t 3 1 q q # , Q [ l x t % . X 5 i o t e.w.S x -   ",
"X % j Z =.p.x # * * #   $ a v n ] ' i # 1 5 3 e # ^ } v - * , ; 9 = e r t ' %., 3 3 1 y = 1 Q ' k v a ; o X * % X t u.e.V z < * ",
"  # p x ( 1.K i C L d * # 1 a d Q { l * 5 z f 1 = { $.N 1 < , , , * 1 6 a } *.e , s d f * t { ^ l t 1 # # t C C s n ,.} N l #   ",
"    < 5 i v n V #.-.[ l # * 1 5 S >.U , a C z a # S %.S p y 3 < e 4 5 1 d [ ~ - 1 v C x 3 v $.Q p t * * e ^ %.' S V x i t 1     ",
"%   . 7 3 3 d Q T 2.2.Q 3 , 3 t N -.Y * - l j q X x ..I i y 6 6 r 6 6 t S } H   6 i a 5 * v %.T i t , , V $.=.^ T N 5 < 7 o   O ",
"@.d   . O 1 Y 7.K >.2.( e , 3 5 v | S # # 3 , # # i ] ' Q n i a q a x S =.&.v * $ , , , * v | S 5 1 * 3 / w.$.( *.} i X .   1 ' ",
"P.u.C q d Q q.y.^ >.=.{ r , , 1 n $.} x x V j 5 # * z / >. .' ' ( [ [  .@.S , # 1 l v V B Q %.Q - 0 * 3 R w.=.%.s.y.( x a g %.H.",
"C.U.D.j.x.k.k.<.&.y.2.! 3 * , 1 K 2.=.) { %.{ Q n 5 * t V Q { $.| @.^ V l - % d K { X.%.| { 2.' 1 1 = , S 2.y.=.2.f.M.v.l.V.K.S.",
"F.R.!.P.J.B.k.s.d.s.2.V , - 1 , C ' T S S I ] } 7.C * X * , 1 i 5 e 1 X # & a 7.' ' Q T U S ' ` r 3 1 , l } u.0.p.s.M.H.R.^.~.M.",
"f.k.k.V.v.k.f.y.y.e.Z e , * , 5 e t 5 1 5 a j v ] ( i * < 5 3 3 3 , , 5 $ 3 ~ } M z e 5 t 3 i 3 5 1 = < 1 v -.y.y.y.s.v.B.M.M.i.",
"f.k.c.c.h.f.i.4.e.^ d 1 * = * 1 * , , , 1 q i j L { N * 4 v f 1 3 p v p , i { ( z i 5 5 , , < * , , * * 3 i U -.i.i.s.k.k.M.n.i.",
"^  .t.g.l.l.e.&.N e t < * % * = o * = * % * 1 a V >.U 3 a C n q 1 g G d , v X.U t 5 * * * , = O * 3 , , 4 t 3 v  .-.u.d.g.y.=.W ",
"t i x N S U M j 4 3 4 3 # * , 3 * 1 i e , * 1 a N -.Y * 1 l p q 6 i l q , V ,.T t 1 * * 3 i 3 * * < , * , = * 4 i v S S V x t i ",
"g t 5 1 a 5 1 ; * $ * # , 3 1 - v S R D i , , 5 l | A % # 3 , % = , 3 * * B ..Z t 1 , e N ! K n 1 1 t * X # % $ 2 4 t t 1 1 0 s ",
"N i < * % #   @ # - X X < 1 t d >.2.3.' u * , 3 v $.' v x N j 1 1 t v v l U o.S e , * t Q t.2.=.n t t <   X * *   X X % ; - t v ",
"! i ;   O - * 1 H m , # % 1 S $.w.r.w.Q t * < 5 K >.=.{ ..../ Q Q { >.%.| %.w.' t < * 3 Q 2.w.w.=.U u * $ * l S - - * # X # t N ",
"H i - * n  .w.s.q./ , $ 2 k #.s.8.w.2.Q 1 # 2 , C ' T S U T '  .} ^ Q U U S ( R 3 = & % V $.8.i.i.9.v 2 = , V e.s.y.| C , % 5 l ",
"V i & # 2.i.V J s.d # 4 4 Q k.y.y.e.U e 2 = , e 4 1 5 i u p i l l f p i 5 - , r t 3 = = 1 S >.f.s.f.{ p 3 # - q./ v >.>.# o t c ",
"j i : X  .} i i d.5   , i >.k.r.=.( l , = , , 1 3 , 1 3 6 t t v v a t t 1 1 1 e - , , , 1 t S =.4.i.2.l 3 o % *.N e ' o.* $ 3 i ",
"a t o * 5.y.' ..y.5 O 1 V y.s.{ D i t 1 # # , , y 1 % * * * , q a 1 * , * * , 3 - * * , 5 5 e v ..8.g.T t o O ,.e.' w.2.3 X 5 a ",
"q 5 # 5 6.r. .>.K - X 1 l I N i 4 , 3 3 * * * 3 3 , , , , * # % % X # 3 3 3 1 , < , , , , 6 , < 4 v T N t % O N e. .2.5.d * 1 a ",
"i 5 * , a 3 * # * # * 4 t t 5 * # $ X * , 3 , 1 u N Q Q S j =   . # e S / / S x 1 3 y , X X # = < 1 t a 6 , X * # # * a 5 = 3 d ",
"6 # # # $ # ; o $ , 4 = # X o O # - X X * , 5 d  .%.w.r.=.W l X # i ^ %.w.2.-. .x i 3 = o X - * * o # % * * * $ & :   # = . X 5 ",
"&   # , * 1 u e q a -   X % # - v c , # & 1 S } i.w.=.2.=.*.! 5 * C %.$.>.=.w.u.,.U 3 % O = d V 1 O X X   , t i i e 1 , , $ . & ",
"* # 3 e , t l c v i 2 o n %.*.u.p.) , # = i @.h.w.8.} [ ~ ' ` i * D } ' (  .=.8.s.9.M 3 = , U a.q.%.-.V # = i l x j a t u 3 = 3 ",
", 6 , , N } s.v.U a > X X.f.H Q k.v . $ 3 [ f.u.4.8.s.>.Q K V X % a U Q &.h.w.w.y.i.} i 2   1 s./ V r.w.# o i G k.s.w.K < 3 y % ",
"1 * 1 V o.u.s.y.N t > # { =.d i f.l   = d $.y.u.y.b.f.[ n N V 5 5 v N N ] s.k.y.y.s.3.v 5 o , w.l e ' } * @ e j r.s.y.>.S 5 , , ",
"; , v %.i.f.f.8.t q o * %.0.E ' w.t X , v w.f.g.N.D.=.a 1 k ;.a.e.:.Z 3 5 ( N.M.l.s.u.S i # * #.%.^ 8.2.,   6 a =.y.y.y.=.S , < ",
"% i ' s.s.i.2.' - 1 # t 3.r.-.O.) - o 1 v s.f.f.H.H.U X X u / 2.t. .l < X l v.H.v.s.d.S t # * C 5. .5.5.a # , 5 V -.f.y.s.&.k * ",
", v o.i.h.e.U d 5 e % 3 v 5 , X e X   1 x d.n.M.Z.Z.I o o r k C V S a > . p b.I.B.k.g.S q * X , # # , l 6 * , j 1 U e.s.i.2.U 1 ",
"5 v O.3. .U i 3 < * X # * $ ; O , # * 5 d =.f.f.H.L.^ X . < j v l z 1     x A.!.M.M.w.l 1 1 # * & $ X * * X X 3 , 5 Z @.o.O.Y 5 ",
"q d D V i 5 * 6 X $ # - 1 4 u u 5 f 5 i a ' f.v.R.W.p.a     - % , #     5 =.U.Q.k.M.@.i q t t 5 t 3 3 1 , X . * 6 * , l V ! z t ",
"f t t 3 * 6 * * , , 5 q w y i z d B l v a U s.k.B.P.I.} -   X   X     # Q J.T.M.s.i.@.i s l v x c i s s a 5 & , % 3 3 % 1 t t y "
};
