/* XPM */
static char *result[] = {
/* columns rows colors chars-per-pixel */
"64 64 182 2 ",
"   c #000000",
".  c #0B0403",
"X  c #010B02",
"o  c #0C040A",
"O  c #030D0A",
"+  c #0C090A",
"@  c #120303",
"#  c #130A03",
"$  c #100E0D",
"%  c #180A09",
"&  c #011202",
"*  c #0C1204",
"=  c #031A03",
"-  c #01140B",
";  c #00180D",
":  c #121605",
">  c #000017",
",  c #0E0010",
"<  c #120012",
"1  c #190D12",
"2  c #061914",
"3  c #051E16",
"4  c #151314",
"5  c #1F1419",
"6  c #1D181A",
"7  c #251B15",
"8  c #231A1D",
"9  c #012A01",
"0  c #113B0F",
"q  c #062219",
"w  c #02241A",
"e  c #3A251B",
"r  c #101325",
"t  c #351E27",
"y  c #043B28",
"u  c #133B2B",
"i  c #36242B",
"p  c #39272E",
"a  c #362A2D",
"s  c #223121",
"d  c #203E33",
"f  c #3A3337",
"g  c #41261B",
"h  c #403C19",
"j  c #602F1C",
"k  c #541A29",
"l  c #4A3023",
"z  c #5A3A2A",
"x  c #613F2C",
"c  c #0B410A",
"v  c #0F570D",
"b  c #165F14",
"n  c #086607",
"m  c #12630E",
"M  c #196517",
"N  c #176C14",
"B  c #197817",
"V  c #1B483A",
"C  c #06573D",
"Z  c #22483B",
"A  c #386A36",
"S  c #614E27",
"D  c #696828",
"F  c #11694B",
"G  c #357560",
"H  c #525540",
"J  c #6E6750",
"K  c #787453",
"L  c #575064",
"P  c #74666D",
"I  c #9C1211",
"U  c #981228",
"Y  c #B11E20",
"T  c #80712B",
"R  c #B7732D",
"E  c #9F6B4E",
"W  c #9B6D54",
"Q  c #AC7253",
"!  c #B37652",
"~  c #B27655",
"^  c #B47855",
"/  c #BB7B56",
"(  c #BB7B59",
")  c #875D6C",
"_  c #997565",
"`  c #8A6D77",
"'  c #906F7B",
"]  c #BC7B62",
"[  c #0E850C",
"{  c #0E960A",
"}  c #139B0F",
"|  c #158C13",
" . c #1A8418",
".. c #209B1F",
"X. c #00AB00",
"o. c #12A60E",
"O. c #1DB219",
"+. c #1FBB1C",
"@. c #23A91A",
"#. c #2ABE1F",
"$. c #278725",
"%. c #2E9D27",
"&. c #358B33",
"*. c #389A36",
"=. c #3EB13B",
"-. c #2DC02A",
";. c #3CD939",
":. c #158C64",
">. c #3E9276",
",. c #19AB79",
"<. c #47AC45",
"1. c #42987C",
"2. c #919F70",
"3. c #85B26B",
"4. c #CA9D53",
"5. c #C3816D",
"6. c #C98B79",
"7. c #CF9074",
"8. c #987E87",
"9. c #A97682",
"0. c #46A888",
"q. c #5AB992",
"w. c #7AAE99",
"e. c #00C887",
"r. c #00C689",
"t. c #00CB8B",
"y. c #0ECA8E",
"u. c #16C68B",
"i. c #13CA8E",
"p. c #06CE90",
"a. c #17CC90",
"s. c #08D194",
"d. c #13D294",
"f. c #26CA8F",
"g. c #27CA90",
"h. c #27D298",
"j. c #3DDAA4",
"k. c #55C697",
"l. c #54C69A",
"z. c #5DD8AB",
"x. c #5BDDB3",
"c. c #68CEA9",
"v. c #6AD6B1",
"b. c #63DDB3",
"n. c #4FE1AE",
"m. c #53E8B9",
"M. c #5CEDBE",
"N. c #61E7BB",
"B. c #5EEFC0",
"V. c #57F3C2",
"C. c #5DF1C1",
"Z. c #62EFC1",
"A. c #62F4C5",
"S. c #64F9C9",
"D. c #A68D94",
"F. c #A68E96",
"G. c #B48D9B",
"H. c #BA94A2",
"J. c #BD9BA7",
"K. c #BB9CAC",
"L. c #BBA1AA",
"P. c #D58E89",
"I. c #C6A6B3",
"U. c #D7ADBD",
"Y. c #C8B1B9",
"T. c #D7BAC5",
"R. c #EFBED0",
"E. c #E2C2CC",
"W. c #EFC2D2",
"Q. c #E7CED7",
"!. c #F2C5D5",
"~. c #FCC7DA",
"^. c #F1CEDA",
"/. c #FDCBDE",
"(. c #E2D1D0",
"). c #F1D4DD",
"_. c #F5D7E2",
"`. c #FBD6E3",
"'. c #FBDCE7",
"]. c #FEDEE9",
"[. c #FFE1EC",
"{. c #FFE4F0",
/* pixels */
"                                                                                                                                ",
"                                                                                                                                ",
"                                                                                                                                ",
"                                                                                                                                ",
"                                                          O .   X .                                                             ",
"                                                        X   X O X                                                               ",
"                                                          s < X < ,                                                             ",
"                                                      =   *.$.. *.&.  =                                                         ",
"                                                      =   %.;.*.;.$.X =                                                         ",
"                                                      -   A <.-.=.6                                                             ",
"                                                            n {   X X                                                           ",
"                                                    X   0 B  .} N 9                                                             ",
"                                                    X   0 +.O.o.O.o                                                             ",
"                                                      X   , } [ ,   &                                                           ",
"                                                          m | | M v   X                                                         ",
"                                                      & . ..o.O.+.M   &                                                         ",
"                                                      X   o m o.<   &                                                           ",
"                                                    X   c N B } m 9                                                             ",
"                                                    X   0 +.O.o.@.o                                                             ",
"                                                      X   , } [ ,   &                                                           ",
"                                                          m | | M v   X                                                         ",
"                                                      &   ..@.@.#.b   &                                                         ",
"                                                        :   n X.    &                                                           ",
"                                                      #   S D D k =                                                             ",
"                                                    #   h 4.! ! 5.l   @                                                         ",
"                                                    #   h 4.! ! ~ S . #                                                         ",
"                                                    .   g ! E E Q z   #                                                         ",
"                                                    .   e ^ ( ( / x   #                                                         ",
"                                                    .   7 Q ( ~ ~ l   #                                                         ",
"                                                          7 w > 7                                                               ",
"                                                      .   . I R g   .                                                           ",
"                                                      @ O U Y T r 4                                                             ",
"                                                    %   j ] _ 6.W   %                                                           ",
"                                                      2 9.5.7.] P.)   1                                                         ",
"                                                  o   a I.9.Q L K.D.  5                                                         ",
"                                                  +   p !.`.Q.).].H.  8                                                         ",
"                                                  o   a R.[.[.[.].H.  8                                                         ",
"                                                  +   i W.].'.'.].H.  8                                                         ",
"                                                  +   a W.[.].'.[.H.  8                                                         ",
"                                                  +   t W.[.].'.[.H.  8                                                         ",
"                                                  +   t !.[.].'.{.H.  8                                                         ",
"                                                  o   t !.[.].'.{.J.  8                                                         ",
"                                                  +   t ^.[.'.'.{.L.  6     $ :                                                 ",
"                                                  o 4 p ).[.].'.{.L.  a   X     *                                               ",
"                                                + 5     ^.[.].'.{.T.    8   H J                                                 ",
"                                              + .   8.U.`.].].].].].T.`     F.3.K   *                                           ",
"                                              4   J./.~.`.[.'.[.].].]./.H.  T.(.2.f   +                                         ",
"                                            8   G./.~.~.).[.'.[.].].'./.~.F.Q.I.P   1                                           ",
"                                          5   ' /.~.~.~./.[.[.[.].[.].R.G._.F.    o                                             ",
"                                          4   U.~.W.!.W.W.).).)._.)._.G.E.E.`   8                                               ",
"                                        O   u k.k.k.l.l.k.z.b.b.x.b.z.w.Y.q.c.. O                                               ",
"                                        -   C t.t.t.t.t.s.V.M.V.V.V.x.x.0.x.m.d   O                                             ",
"                                        -   C f.f.f.g.u.n.A.M.A.A.v.v.v.A.A.N.V   -                                             ",
"                                        X   y u.y.i.y.i.M.A.C.M.B.N.v.C.B.C.x..                                                 ",
"                                          - . ,.d.i.y.a.M.M.A.C.C.C.C.C.M.A.0.  q                                               ",
"                                          -   F i.y.i.e.n.A.M.C.C.C.C.M.B.N.V . -                                               ",
"                                            ;   :.d.i.r.j.A.C.A.Z.B.M.B.A.>.  2                                                 ",
"                                              - . :.a.p.h.M.B.C.B.C.S.Z.0.  ;                                                   ",
"                                                O   C ,.u.M.S.S.A.M.l.G   3                                                     ",
"                                                  ;     C >.0.0.1.Z     q                                                       ",
"                                                    ; -             3 3                                                         ",
"                                                        ; q q q q 3                                                             ",
"                                                            .                                                                   ",
"                                                                                                                                "
};
