/* XPM */
static char *result[] = {
/* columns rows colors chars-per-pixel */
"64 64 67 1 ",
"  c #040202",
". c #080606",
"X c #0A0907",
"o c #090708",
"O c #0D0B0B",
"+ c #110E0D",
"@ c #12100F",
"# c #110F10",
"$ c #151313",
"% c #191615",
"& c #1A1916",
"* c #191718",
"= c #1D1B1A",
"- c #211E1D",
"; c #22201E",
": c #211F20",
"> c #252322",
", c #292625",
"< c #2A2827",
"1 c #292728",
"2 c #2D2B2B",
"3 c #312E2D",
"4 c #32312F",
"5 c #312F30",
"6 c #353332",
"7 c #393635",
"8 c #3A3837",
"9 c #393738",
"0 c #3D3B3B",
"q c #4B351E",
"w c #553C25",
"e c #5B3D24",
"r c #5B3E2A",
"t c #413E3D",
"y c #574129",
"u c #5B432D",
"i c #43413F",
"p c #544331",
"a c #5D4432",
"s c #5D4A31",
"d c #634A2E",
"f c #624632",
"g c #644A35",
"h c #654C3A",
"j c #694E3B",
"k c #6B523D",
"l c #413F40",
"z c #454343",
"x c #494645",
"c c #4B4847",
"v c #494748",
"b c #4D4B4A",
"n c #514D4C",
"m c #53504F",
"M c #514F50",
"N c #555252",
"B c #595655",
"V c #5B5857",
"C c #595758",
"Z c #5D5A5A",
"A c #615D5D",
"S c #64605F",
"D c #615F60",
"F c #656362",
"G c #696564",
"H c #696768",
"J c #6D6A6A",
/* pixels */
"xnnnllbNnxtttttttttlnnnnllBlnNlllnzX$4it9ZCllllal#oO=z80vbMvNzlp",
"mcVAq3##tNnBnnnBDNlnBACllbtttqtnn6x&.@7tq3ll3tt3l1.oXbNcvCZCl>0w",
"tnt6,+X+6nnBBGnSAMncnllMlNlBBltltxc . btqltttt3ttt3t486l$. &$%=y",
"t36-@-3xlt3trnntt6q362q5*oqtltANtlz   BxnABnlnBlcNBbvibCoo &>&&u",
",npxN%2--i0t9MvbnANBCvl::#BBt=lti84   xtttbc-;2mtnmBmbz. # #O$Ou",
"txcbl$ ++X@cBBNBbbct0##1%,Ot+O:t74;  $t,-+ O =>$$xc0<445oo #*O#q",
"cbxcnlA,4-$36nnbt6tlt#*#->>,q:,ltiBb<tz-;,XX%;=;=7cbcmcm1O#o== s",
"ntbcln,-2+   6tttnNBN-1#-,3t1=-12mxmxxn,7,,=@;>+3Nmbibz0v9lo.  d",
"oovvvvM:X     NvvCCMN:#o#15>&&$;i$0tbnlX+--+<,>=$<>;44llz>O$$=Oa",
"OoovvMvZ o  $#$550v9v5#* O##$ooO<<ccNlB%@X@+XO=;=><;8nllv:o#*#Or",
"$o#ll0MM$.  v*9lvvCMvCvo#=#O*.O2mczitnn:-%%%$%-:$$=XOil0vv$0** a",
"#=55955629zNMzMvvMMNCvo*o=:$61*9mbxxxnnN7tX+$:$==&$X <lzl:oO:**h",
"*:Mlvvl06vMvll0929lvvloo#*5=20vDzicci7n7tpnxtb:94;X  ozzb1*#**#r",
"=#*vvMll9:1:20MZMvvl0zMN1#=O1M9964iit;2355:-ttq6=O $  lvvOOO*#$r",
":=*Dvvlv*512O$0vvv29z959l0bvvN09ciiimmtpnt$ttct-@O@$$#Oo* o  o:r",
"1:10CvM:$O$$*olv2zN9:5vvl6009bl006<2ixcncXX-mcc3&&>X$MCO  oOoooh",
"lMMlvCM1<42<$&@i$4C@&2#.*vvz5vvbztctnCnci@;;3;-%;;O$lt6#  ;O;@@u",
"vvl5lvl*&<$<$@&=$X6O26:*1lb999zbz6t23Mp$X $$$$ -8;;;6x6#  &&@;;u",
"9lMMl0M0@O&O@&;=&&2O5>* #NvMClv0i3@%,7iB@XOXX  -iSm@*56O .,OO=3e",
"l9l955MNmi48;&;;=@O #2>>2NNHbCNOXX $--x% i=X O$%-48&qtt-.%x=,Vbg",
"CNvMMMMDZmi;O&;;:Ooo    #:bl888XX=0-$-O@Xt3$&&@%;<%-<wlNiBbcmAGg",
"vlvvlvMNbmFi<O;<* O $ o O9Mzz24> +0&&&. @7tVinn<64X-:txxmNxt8i7u",
"MMvvvvNMcbii8=;X*#91># :>590224;=+&&7$ -BGSSBiV86&XX:BllBABizi0g",
"Nl9vMvNzmbV84==<92255=19vlvlbOX&i X%<$+;tJSASic64,-.lnntttxxxSng",
"9v51=>@ic844$&$@2v56iccbii2XX>46@X @<X$&i8888ii6;><;68t8<3q665tr",
"vNC$@$XX88c8;@X4*0z0ncb662& OO@6Vbc=4&<2icimnncN@X$;ciVittnntbxf",
"bZ  X<6$z0cFOX&8>>bbnmmV62;&>>i8886=2<<8ci0ii878 @;OX&iztcnBnrxj",
"l::10<;&zc<$;X0<0069Sm8i<$X$<8cimJHm;=VAVczMmcpN& @ X$;cBVVt6>-n",
"2=>;=; bbNOO@X&mnmSVcttnmX@&><cbNb;4&42VNMvMbii0 $<;$ O&4mc-$++r",
"8b2>>8imb@@O@O@@cbnmnnxtV>$>8mcim<;<;X&VNbl98iNN$ &<>&=$=z<Xo Of",
"0 @4c80648;&><OX47474<txcbzzbVzbi<>$;@46222568i80<>&&2=<7<%$X+oj",
". @>bc0Vci4&>;<iBzmxxbtiiVVzNc0cc0c;$&NZMvlll0i0ii4&@&@&2OX%%oXg",
"+-%-cmcccbbmVmi8tcttt3txnl9rBlltbNZOmNvMvvMCDCMCZCl1#=bCvo#*O# g",
"%-XXtiii644zcci8ttnmnttnBlASnBt68iz<b0bzMvvMMDCCMMMl*5ll9o#o#O#k",
"=+&-;im84cN8cmcZBmnxcnnDAtlnlnttb4ivbzl000559ll99159o**1l1   1la",
",3<--;i;$ii6ic88ttlxbpbbntnlGntANmbNZCZvMCvvvvvvCbMM*o  Nl:#>lvr",
"act,4448>OX@iNbcnt7tttt96t3,6txnlBnlvvvM05595l92l9vl1$*o0nNnvMvB",
"t%@+$4;88;XXOi4cnpnnt6ql%ttNtt6bllllbvl=O*ll55:**19=*O$o:5:lvznf",
",$--246$=&$X cictttt6ttn+XXtNcnMGt+%l2:$O5lO o::*=:oooOo.#==7lbg",
"ct2-;442@X @=biitxnxxnqtn$$-:1xxl##+#$1:1vM$o*:$o##o #OOO$=51tlr",
"tt%--nl- $ X=OminAnNAmBn$*#==1nb>XO%$&=<2lb$o#$o*:=#o$:=#o*=051a",
"ABnc-q- O$XX;=Obt2tx7<   *:2$:z,>+X#@=>mvz#$#o**=:=::*==oo $vMMa",
"nntnnBn3=$@&&;ictttt$.  oo##:ovlx,  X@>099#Ooo*=*=$=1=1*#o #2>:s",
"ntnt7ltt&@$;&>mittt6$       .vvlit-->$>>M:###O$9vMMCM1:=:1:9$$$a",
"ttnANt6$@XX =t408i802$=$    o$5ztx<<4>;=l.O*#:=zMMlMCMD=lMb5oo#f",
"X-ttt3x2>@;==0BxntV8 ;->*olO*959ittibn=$o $Oov9vlMv99ll9lvv*2*Ow",
"33llt,3X;@ &2<nc74z8$22>:v626CbvmizcmZ=>$$OO*vbCMCClvMll9M1O:>*r",
"tlbpAtt%;X    mVVAmmVCbbMll9lNNNBxiizV;>>*# o:vvCMvl559lvM21*$.r",
",bBtAX+-X$+&$3ii0i0;4i0zNzzbNCDNMCCCMZH:o*$O.>v6ll99zvlzlll==OOn",
"@tqt33;3+>-+-ti4bbc&;>i4i8l99MzbMvvCvvl::$:#5l2zMl9vCbMM0991*O%f",
":5M3,,t-X-X =Bncibz>;>mc690vMbll0l966l951#=>5l===#o$zMZDJFvloO+u",
"16t5t,3tttnBici6bZb8X&cbzMzvzlvbMMMlvM0o*$ v::6;:$$9llNbD9590lty",
"#t5t-#--i068;44i6cib4mccl95999.O5515900o=: M8@@;**=:59110vCvz99g",
"O>7:%X .iimm2;=;;iiziicbCHN0ll..19vDC0:$* OCZX &:=>=o*>6=CCvbNCs",
"-2t1+X$%immi;$O&O@cNmbiX@MCMZl.o:lDZZM9=OOlbcOX@::*  2l1:MCvNbNy",
".tq71-Otz0bi=X$i< OOO$&$@99569:9vMDCvl9z9lCN0<&&:#  #2z5259v90vu",
"@bZmz8;X;8ii$<44>2$X$=$$ -tccccil9777lnnAAVmi8O=6>@<:@4z$vl5900p",
">>8cVi&O$$NO&;;&;48><$&&+pBnBBBVZCx00zNGAmmVp8&VcC>=@&> OvbMvMMa",
"cb020;$<$@bO>i<<=2t<;XXX+,346tti1oo#-t<Nii446cbZbmz;;>O.5Mbbvzzq",
"icbiiXXO@;>;;i&&;z4>&& X-,tncnib5O# .ttt8q48i886i6b2<82.609lz0la",
"VVbim@@X&&&>;<<;<0<>%-%#-xbnBb4  @$@@;inmmmmmccbbczNvbczNvlbCCZf",
"cmmmc@OX&@cmV;;;2cm&%>,xnnbbicmOOXO=%+2p084800czc4zil0l990lvNNCr",
"mmiii4@<mic8i><<imm-zn97l6tb24iX@X=>@=2ciVVmccVNiOzbMMCCbbvvvMvw",
"zccc0c22i84c84<;cmzizivvnlqticcN&X-%%<<tcmVmcibc6<&bvMblllvvzMzp"
};
