/* XPM */
static char *result[] = {
/* columns rows colors chars-per-pixel */
"64 64 162 2 ",
"   c #000000",
".  c #030B02",
"X  c #080A06",
"o  c #050008",
"O  c #0C000C",
"+  c #050B08",
"@  c #0B0D0B",
"#  c #021502",
"$  c #081006",
"%  c #011B00",
"&  c #0A1D05",
"*  c #0C150B",
"=  c #0D1B0C",
"-  c #11160F",
";  c #101C0E",
":  c #131D11",
">  c #092002",
",  c #002E00",
"<  c #0C2A0C",
"1  c #11220F",
"2  c #102B0C",
"3  c #142411",
"4  c #162C13",
"5  c #182D16",
"6  c #1D2F1B",
"7  c #153112",
"8  c #193415",
"9  c #193B15",
"0  c #222A22",
"q  c #2C332B",
"w  c #2D392B",
"e  c #342635",
"r  c #39213B",
"t  c #353734",
"y  c #333C33",
"u  c #0F4E02",
"i  c #055500",
"p  c #095C00",
"a  c #145608",
"s  c #135A0C",
"d  c #174713",
"f  c #194515",
"g  c #194B14",
"h  c #1C4318",
"j  c #1E4819",
"k  c #175013",
"l  c #1B5415",
"z  c #1A5B14",
"x  c #1E5418",
"c  c #24481E",
"v  c #23551C",
"b  c #0E6F00",
"n  c #14670B",
"m  c #1A6C0C",
"M  c #037400",
"N  c #187B0D",
"B  c #1C6414",
"V  c #176910",
"C  c #1E6915",
"Z  c #1F7214",
"A  c #177910",
"S  c #1C7A12",
"D  c #23641C",
"F  c #226D19",
"G  c #207516",
"H  c #217A16",
"J  c #24751A",
"K  c #28751F",
"L  c #237919",
"P  c #224220",
"I  c #265421",
"U  c #2B5426",
"Y  c #2E5D26",
"T  c #344C32",
"R  c #3D423D",
"E  c #365B33",
"W  c #256520",
"Q  c #2C6425",
"!  c #266B20",
"~  c #34642D",
"^  c #2C7325",
"/  c #2F7927",
"(  c #387C2A",
")  c #376434",
"_  c #387332",
"`  c #3F2640",
"'  c #404240",
"]  c #6B7B68",
"[  c #158D05",
"{  c #168509",
"}  c #1E8814",
"|  c #26821A",
" . c #268C18",
".. c #259619",
"X. c #2D8422",
"o. c #308421",
"O. c #328A25",
"+. c #3D812F",
"@. c #378A2E",
"#. c #2D9421",
"$. c #329D24",
"%. c #359128",
"&. c #3C912F",
"*. c #399C2B",
"=. c #3B8233",
"-. c #3F9332",
";. c #34A225",
":. c #34AB25",
">. c #39A529",
",. c #39AA29",
"<. c #3BB12A",
"1. c #408931",
"2. c #44843D",
"3. c #428B39",
"4. c #4A8C3C",
"5. c #439335",
"6. c #449C34",
"7. c #45953A",
"8. c #489339",
"9. c #4B9C3C",
"0. c #42A935",
"q. c #4AA53C",
"w. c #4FAE3E",
"e. c #40B430",
"r. c #4DB73E",
"t. c #4EB93E",
"y. c #41C42F",
"u. c #4B9443",
"i. c #509C41",
"p. c #5B9055",
"a. c #659C5D",
"s. c #52A442",
"d. c #53AA44",
"f. c #5BAB4A",
"g. c #53BA42",
"h. c #5BB24A",
"j. c #55BA49",
"k. c #5DA654",
"l. c #63A659",
"z. c #67B85A",
"x. c #799275",
"c. c #6FAD6A",
"v. c #6EB761",
"b. c #71B36B",
"n. c #5DC749",
"m. c #64C753",
"M. c #6AC656",
"N. c #67C855",
"B. c #68C25A",
"V. c #6CD557",
"C. c #6EDB58",
"Z. c #74C668",
"A. c #78CE68",
"S. c #7CCE71",
"D. c #76E160",
"F. c #84B37E",
"G. c #87E376",
"H. c #8FAF8B",
"J. c #8FB08A",
"K. c #9EB69A",
"L. c #B4D6AF",
"P. c #B4DAAE",
/* pixels */
"                                                                                                                                ",
"                                                                                                                                ",
"                                                                                                                                ",
"                                                                                                                                ",
"                                                                                                                                ",
"                                                                                                                                ",
"                                                                                                                                ",
"                                                                                                                                ",
"                                                                                                                                ",
"                                                                                                                                ",
"                                                      . .         .     .                                                       ",
"                                                                                                                                ",
"                                                  $ = = = = 3 3 1 1 ; = $                                                       ",
"                                                  = 5 4 5 & # # = = % 4 3                                                       ",
"                                                  X I W u p.H.J.d.7.l.~ +                                                       ",
"                                              .     Q / p b.P.P.V.j.Z.(   +                                                     ",
"                                                    Q / i c.L.P.V.,.9.Q $   .                                                   ",
"                                                  @ I ^ m k.F.x.i.n.s.h ;                                                       ",
"                                                  * f G | 6.o.  8 D.f.  3                                                       ",
"                                              .   * g G S 6.3.  T S.1.  3                                                       ",
"                                                  * j | ..d.-.a E a.+.U =                                                       ",
"                                                  @ z ;.<.B.t.<.=.  4.h.    .                                                   ",
"                                              .   * l ;.<.B.r.;.c   c ~ $                                                       ",
"                                                  @ z $.,.z.g.>.& 2 =   3                                                       ",
"                                                . O C S z >.C.M., 0.f.  1                                                       ",
"                                              .   O V S z | g.N.n ;.w.k =                                                       ",
"                                                . O V N B a } m...[ :./ O   .                                                   ",
"                                                  * f d 9 7 j Y f g v h 1                                                       ",
"                                                  = 3 3 9 v h < 9 8 : 3 =                                                       ",
"                                                      = D e.| z C s 3                                                           ",
"                                                    . O O.*.H s ! _ =   .                                                       ",
"                                                    . o *.$.L C ^ 2.=   .                                                       ",
"                                                      - F F 7.X.N A :                                                           ",
"                                                      ; C K 6.O.%.X.;   .                                                       ",
"                                                      - C X.7.X.s.8.*   .                                                       ",
"                                                      : x C ^ 7.n.l.#   X                                                       ",
"                                                      : x C D u.m.z..   .                                                       ",
"                                                  .   - F Z =.u.M.v..   X                                                       ",
"                                                      : B L 7.s.0.7.*   .                                                       ",
"                                                      ; z H q.g.[ M 3                                                           ",
"                                                  .   : k B q.q. .u.$   .                                                       ",
"                                                      : B B -.h.s.=.=   .                                                       ",
"                                                    . - S b S Z.A.8.* . .                                                       ",
"                                                    $ : z &.#.d.d.B 3 ; *                                                       ",
"                                                .   9 j l 5. .6.s.) 9 c 7                                                       ",
"                                                .   O.;.{ l g  .G.K.m y.K o #                                                   ",
"                                                .   ~ @.N d B J a.] I 3.I X                                                     ",
"                                              .   > e ) m 9 G D r @ q ` 0 &                                                     ",
"                                                  & q U { k z H R ' 6 ' y %                                                     ",
"                                                  > 0 P V d k F q t 5 t w %                                                     ",
"                                                  = 8 7 4 5 8 5 7 7 7 7 7 ;   .                                                 ",
"                                                  + = = = * = = = = * = = $                                                     ",
"                                                                                                                                ",
"                                                          .                                                                     ",
"                                                                                                                                ",
"                                                                                                                                ",
"                                                                                                                                ",
"                                                                                                                                ",
"                                                                                                                                ",
"                                                                                                                                ",
"                                                                                                                                ",
"                                                                                                                                ",
"                                                                                                                                ",
"                                                                                                                                "
};
