/* XPM */
static char *result[] = {
/* columns rows colors chars-per-pixel */
"64 64 232 2 ",
"   c #000811",
".  c #071619",
"X  c #0B161A",
"o  c #0D1C1D",
"O  c #16191A",
"+  c #121B1D",
"@  c #0C231D",
"#  c #17201F",
"$  c #1C231E",
"%  c #031E22",
"&  c #0C1E23",
"*  c #0F1D28",
"=  c #121E23",
"-  c #1B1E22",
";  c #121C28",
":  c #191F2B",
">  c #1A1D30",
",  c #0D2124",
"<  c #062429",
"1  c #0D232B",
"2  c #0F292D",
"3  c #142324",
"4  c #1B2325",
"5  c #142A27",
"6  c #1A2826",
"7  c #14252B",
"8  c #1B252B",
"9  c #142A2D",
"0  c #1C2B2C",
"q  c #13302C",
"w  c #1B332D",
"e  c #0C2B31",
"r  c #0F2A35",
"t  c #152C32",
"y  c #1C2D33",
"u  c #182A38",
"i  c #153135",
"p  c #1D3134",
"a  c #14333A",
"s  c #1C343A",
"d  c #173A3A",
"f  c #1D3B3D",
"g  c #222525",
"h  c #272825",
"j  c #2B2A26",
"k  c #22262A",
"l  c #232B2C",
"z  c #2C2C2C",
"x  c #302B25",
"c  c #332D2D",
"v  c #25302E",
"b  c #2C312E",
"n  c #33322E",
"m  c #222631",
"M  c #232D32",
"N  c #2B2D32",
"B  c #332E32",
"V  c #243233",
"C  c #2B3334",
"Z  c #2D3836",
"A  c #23353B",
"S  c #2D353A",
"D  c #243B3D",
"F  c #2D3B3C",
"G  c #343333",
"H  c #3A3535",
"J  c #343935",
"K  c #3B3936",
"L  c #34353A",
"P  c #3B3639",
"I  c #333B3C",
"U  c #3D3B3B",
"Y  c #403229",
"T  c #423B35",
"R  c #41373B",
"E  c #423D3C",
"W  c #4A3D3E",
"Q  c #19433F",
"!  c #27403D",
"~  c #38403C",
"^  c #3E413D",
"/  c #43413E",
"(  c #4A423E",
")  c #4B483F",
"_  c #143B44",
"`  c #1C3C43",
"'  c #1B3945",
"]  c #233C43",
"[  c #293B43",
"{  c #263B49",
"}  c #353E42",
"|  c #3D3D42",
" . c #343E4A",
".. c #423E41",
"X. c #4A3E42",
"o. c #473F4A",
"O. c #1C4344",
"+. c #1C434C",
"@. c #1C4C56",
"#. c #234245",
"$. c #2A4344",
"%. c #23444A",
"&. c #2B444B",
"*. c #23494B",
"=. c #2D4B4E",
"-. c #3D4244",
";. c #374648",
":. c #3C4549",
">. c #344C4D",
",. c #27514F",
"<. c #244652",
"1. c #2B4652",
"2. c #244B54",
"3. c #2C4C54",
"4. c #274A5C",
"5. c #2A4E5A",
"6. c #314D54",
"7. c #384D55",
"8. c #255454",
"9. c #2D5254",
"0. c #26545A",
"q. c #2B525B",
"w. c #2A5A5A",
"e. c #345355",
"r. c #32535C",
"t. c #38575B",
"y. c #345B5D",
"u. c #3A5C5B",
"i. c #2B4E61",
"p. c #2B5363",
"a. c #265B65",
"s. c #275967",
"d. c #2C5B64",
"f. c #325563",
"g. c #335A63",
"h. c #3B5C64",
"j. c #335C6B",
"k. c #385C6B",
"l. c #335F71",
"z. c #2D6269",
"x. c #33656D",
"c. c #386669",
"v. c #3B636C",
"b. c #2D6475",
"n. c #346574",
"m. c #3B6473",
"M. c #336973",
"N. c #3C6B73",
"B. c #336A7E",
"V. c #3D6D7B",
"C. c #39757C",
"Z. c #444343",
"A. c #4A4544",
"S. c #444945",
"D. c #4B4946",
"F. c #45454A",
"G. c #4B4749",
"H. c #444A4B",
"J. c #4C4B4B",
"K. c #514A47",
"L. c #52464B",
"P. c #554A4A",
"I. c #524D4C",
"U. c #4D514C",
"Y. c #53514E",
"T. c #5C524E",
"R. c #454F50",
"E. c #4C4D51",
"W. c #534E51",
"Q. c #5A4E53",
"!. c #4D5253",
"~. c #485759",
"^. c #545353",
"/. c #5A5454",
"(. c #555956",
"). c #5B5956",
"_. c #555559",
"`. c #5A5758",
"'. c #545B5A",
"]. c #5C5A5A",
"[. c #625854",
"{. c #61575A",
"}. c #625C5C",
"|. c #516059",
" X c #656357",
".X c #62615D",
"XX c #435E65",
"oX c #5A5D60",
"OX c #635C61",
"+X c #43646C",
"@X c #48686E",
"#X c #5A6367",
"$X c #416471",
"%X c #426C74",
"&X c #496D78",
"*X c #546977",
"=X c #467178",
"-X c #45737B",
";X c #646363",
":X c #696765",
">X c #6A6769",
",X c #6C6B69",
"<X c #3C7886",
"1X c #457483",
"2X c #437B82",
"3X c #497B89",
"4X c #567786",
"5X c #457D93",
"6X c #647886",
"7X c #458586",
"8X c #4C838A",
"9X c #548083",
"0X c #54838D",
"qX c #4A8696",
"wX c #578996",
"eX c #53919C",
"rX c #5C929C",
"tX c #6A878E",
"yX c #688B9C",
"uX c #64929D",
"iX c #75919F",
"pX c #568DA1",
"aX c #5C96A5",
"sX c #6599A7",
"dX c #7598A4",
"fX c #5FA1AF",
"gX c #65A6B4",
"hX c #7CB1BB",
"jX c #8E96AA",
"kX c #8BA2AA",
"lX c #92B6BC",
"zX c #92BDC6",
/* pixels */
"W./.F.I @ @ U J.].G.Z.A.E E A.E H E V 9 ;.A l ^.F.| C X 7 r.k.j.q.q.j.m.' r A.Y W R P.OXP.T G.( D.G.^.A.L.^.J.P ..o.U.U.J.L.G.E ",
"F.L : 2 f p 3 Z.G.D.I./.^.I.I.D.}.(.I ; 3 S S.Y.F.k 3 9 1.v.g.p.g.sXsXwX<X{ -.I.T c c T R B H R z H G.Z.G.J.I.K.W.J._./.].).^.!.",
"8 8 &.r.y.c.y | E Z.A.Z./.).}.}.}.U.F.F.F._.^.S.4 3 { 2.<.+.<.h.h.uXaXsXaXp.% m R W A.L.A.H B H E K R H G G H | ..| U P P Z.R.9 ",
"u 7 t s #.t.p S W K H x E Z.I.A.J.K B H B B j h 0 A r.m.v.2.e.~.*XdXhXgXeX%X{ N A.I.L.I.I.I.P./.K.K.I.I./.H.Z.Z.W.H.I l S N y O.",
"e.t o 3 & 0 Z ~.( D./.G.E K D.G.Z.U.^.[././.A.S.0 t ' v.g.< 9 w 5 ,.O.z.0.a 7 G X.T E K.D.A.A.^.`.}./.^.^.J.S.G.I l = 0 m * ' q.",
"-X,.8 : 4 G S.U.^.D.K.G.J.Y.}.I.).Y.J.A.T A.J.J.L 8 & ] %.& 0 l 0 ~.O.y.=.V Z.Z.G.A.E ..H H H E I.I.) U G G G C M 7 1.7.{ { q.g.",
"aX3X6.; C -.J.I.W E E K H H A.I.J.U K ^ / W ....E.| N g k # J J < u.y.9.& - Z.A.K.K.G.A./ I.U G H E / I.J.H.I k ; ] k.m.m.5.k.4X",
"gX<Xf.' p -.G.Q.Z.Z.A.D.G.A.K K E Z.S.U.^.^.Q.Q...G.].).).Y.G.S a 8.2.] A E.A.I.I.T.G./ U D.Z.Y.Y.T.K.^.H.-.J k  .{ j.s.m.m.k.dX",
"zXsXqXV.{ 4 G./.E.H.:.H.J.R A.I.Z.I./._._./.^./.G.S.G.Z...A.Z.G 2 =.%.1 I D.P.Q.K.^.C 0 3 S I E ^ K.D./ K c 6 D B.4X1X&X0XdX*XjX",
"rX8Xz.2.9 G I./.oXS # + G Z.G G B J U Z.U U G j G z B J z N U ^., =.D 0 S.G.I.Z.E.I t #.] y H._.T n K U T G.n X r u t e d +.% u ",
"rX0X=X] V Z.U G.:.0 ! 6 Z U.-.(.....J./.J.I.^.W.].W.G.J.J.G.G.^.l F 8 N G.T ).E.4 7 *.m.=X&.4 H n H D.J.J E G.| F N V 5 ! u.$.$.",
"M.g.f p H.U L | L # 0 6 ^ ^.S.:.G.S.G._._._.J.E ..Z.G.Z.U U F.].J._.E.G.L.K.#X[ V #.2.n.-X+X3 j P K K U / A.L.R U E K # w w @ 6 ",
"x.*.0 ~ S l V H.F.U -.~ G.....^ G H J ..G.G...| G.H.J./.J.U Z.G.(.D.o.G.o.L.I s O.p.s.<XqXl.*.y - J !.J.Z.D.A.A.J.L.c g 6 V 4 :.",
"8.< H.E.M f w I R S.G.U.).P./.J._.).G...-...../.W.G.P Z.^.^.J.U E J S ..F.F.3 %.5XpXqX5X5X<Xs.s.p X -...E K.T R S.F.P F.S.^.| U ",
"O.8 ..} s *.$.# D.G.S.J./.W.J.U G.F.P J H U G G G Z.Z.F.G.G.W...H _.:.; X v s *.3XwXsX4XsXpX1XqXc.9 E.Q.L.Y.D.^.!.^.K.X.U D.W.K.",
"2 S o.m r y.$.6 D.U.!.J.^.;X^.H.A.G.Z.J.I._.J.Z.G...G K U U G.....} t ] D p s s 0.v.@X~.~.r.d.2Xw.e | L.I./.Y.Y.R.^.).Y.^.S.S.T ",
"Z.U J.-.X l 6 } Z...K H Y./ -...I.J.I.^.K.A.R Y.G.U G.J.U L Z.Z.U.5 d x.n.2.. + + 0 9 Q O.=.#.e.g :.-.G.D.K.E / K.D.D.n D.E G G.",
"J.J.J.-.g z S !.B J H U K n G U K H H / I.Z.K A...U U J.P P J Z.K.0 #.=X-Xr.* L I V 9 =.8.O.i 9 !.(.E.Y.( E H T / K V G J.I.U ..",
"J ..J.^.E...-.!.J._.U.S.J J.J._.J.E Z.Z.I.J.J.D.S.W.E.G.^._.G...Z.4 , s #.[ - H Y.g @ 3.#.q v -.!.].;X/./ E E ( S.Z s f [ -.G h ",
"Z.n B E Z.l G G.(.-.S 0 o b -./ J.E K n c Z./.D.J.^.).^.].I.^.].I.G l 5 = 4 z P.( U + >.{ 3 n x l z Z.K H T H J L 9 r.g.r V ].T.",
"].].).^.G.I.E./._.0 9 s $.y S.^.,X.XY.Z.U J.^.D...P P F.Z...U G.L.| | W.E.Z.J./.A.J X ; 0 h J T U U / G.I.D.Z.D.-.0 %.g.] S ]. X",
"A./ Z.D.Z.Z...^.H.8 { f.k.9 0 K I.(.S.^..X.XJ.U.S.A.J./...Z.G._.oX`.Z.B h G | C U -.C H.!./ D.T.) / E ( L.G.U Z.U 3 % D & 6 / U ",
"^ D.D.S.G.J.Z.!.S A $XV.=X<.0 G K ^ K J..XY.Z.D.Z.U G U U | Z./.oX:X;XI.`.;X:.3 : A H.^.}.).G.^.Y.I.A.T.T.}.^.Z.I.F.6 b G ..A.J ",
"U.(.D.J J.J.G._.M ] V.n.b.g.7 N S.n h b G z H J L G...G.U I.U U Z.E A.A./.| 7 { &.y l n K.Y.( H./ ( ( /.( / J.^.H ^ ^ S.W L.OXW.",
"H K K n G b U / S + o o ;.V 3 6 J E W G K ..H.G.H.../.S.Z.U N L G B c c z k F &.i.f.] 0 $ n ) S.S.D.Z.A.R B P X.n c c H H c B R ",
"D.K.).).U.K z g U S V @ 0 0 C H.K J.A.U E ^./.E.H N h - N _.>XQ.!.`./.K...8 t f q.z.2.f 0 A.A.A.Y./.J.T.K.Z.G.^.G.K W K.I.J.K.G.",
"A.A./.)./.Y.^.J.G.Z.-.l Z K J./.H J.^.I.J.^.S.^.!.l 3 s ; | }.W C U / Z.F.5 ` c.N.-X8XC.s M P H n H c n K Z.A.Z.W A.D.I.).I.( G.",
"J.J.I.D.^ D.^.D./ E ) U J.U.I.A./ Z.K P U ].^.H.w 0 r.k._ 1 B ( / ^.>X#X:.r ` v.%XwXeXeXs.1 L A.T. X}.}.).).S.) Y.J./.].Z.W D.A.",
"K.I.Y.I...J.^.D.K.I./.Y.Y.I.T.Y.}.G.Q.}./.J.U b # >.%X%Xg.t l I.J.^.^.-.0 s 2.d.tX4XqX<X@.3.. h ..A.I./.D.U H D.W.K.I./.P.J.K.A.",
"A...A.A.E E / Z.J.K.I././.I./././.D.I.I.I.^.^.I o , < ' %.0 J A.Z.J._.J.M D 3.h.*XlXhXeXrX&Xy F _.J./.W.G.I.D..XI.}.J.( I.X.B W ",
"R K R K.Z./ K K H H H D./.A./ U c B H H B z U ~ 8 . % A y 4 Z.J.I.Z.Z.Z.l 3 9 D ;.tX0Xw.V.9.p 0 S N L C B S./ W E K H H c G E G.",
"A.A.A.I.I.K.A.Z._.G.K U D.Z.G.G.K.).A.L.W.H.F.b 7 [ >.[ 5 V Z L J.E A.G.U C 7 p 4 +XN.@.*.2 7 0 y 4 M 4 O ..G.I.J.A.I.I.A.A.P./.",
"W.Z.D.K.D.D.P.K.D.D.Z.Y.U.^.^.Z.U E ( / U -.3 7 2.4.m.m.<.f 3 0 Z.-.(.]./.Q.E.F 1 g.8.i 7 - H.V a 1.4.1.t X A.[.).^.T.W.I.I.D.A.",
"E !.Z.J S.)./ E Z.H h J U D.J.) H K ( K.^.E.8 [ <X1X5XqX<Xv.#.p N L U ^ K.L.| S , 3.*.i S P J.l <.j.0X-X8.s O K U / A.G.G.W / D.",
"D.U.v 3 3 R.D.D.U U.Y.G./ D.Y.Z._.`.Y.D.J.S.l F 1XyXqXfXqX3Xr.&.4 + 6 G A.D.D.n = D i @ l L ..4 q.v.1X2Xd.f 3 N J G G./.A.) A./ ",
"~ J 0 7.y Z D.A.Z.Y.J./ J / Z.U P ..) D.Z.G.N o o i O.3Xa.+.1 8 1 ] #.3 L U.(./ g V V S G.G.Z.=   1 2 *.r u F.W.J.J.G.G.J.S.S./ ",
"$ J X 0 o | }.Q.D.D.S.J.Y.(.J.A.S.Z.K H K Z.^ G 4 y _ 2Xa.q.%.[ <.q.d.a < ; L :.J.S.F.K ..E.oXR.L.P 3 0 8 -.Y.X.G U /.`.!.!.H.V ",
"D s & S U K.W.Q.D.J.Y./.).).Z.J J.J.D.I.I.E H H 5 ] N.sXeXeXV.d.{ &X3X2.1.A V '.Z.S.G.F.| F.H.F K B h l G U.D.) Z...| :.} 0 9 ] ",
"j.1.7 O c n B z K K G n / ).J./ S.Z.K / E H T E F [ N.wXsXeXM.N.< a v.2.1.A S !.D.J.L.oX`.E.F 7 = V H._.Z.U / (.J.Y.F.k > { r.f.",
"b.N.$.4 / / D.;.J.D./ U Z.Y.S.D.^ Z.G.J.J.K.P.H O X t t h.N.O.O.3 , r.f 1 4 l K Z.G.o.G.R.S V &.6.7 F G.I._.D.D.T./.| 4 s 4.p.p.",
"<XC.i C I.R W Z.( D./ K J h U J.^ I.I.Q.Q.{.I.^.D.c S r 8.y.9 z v 3 D y l J G.L [ M ..G.8 A +.M.N._ : ..K K | R K S.G.C O X 6 4 ",
"x.y.i :./.K.J.D.K.}././ P G / D.I./ T R L.R H Z.Y.Y.L . 9.9.p Z.S.l M -.(.J.E.L : = k -.l &.f.0X8X%.; P S.J.G.U P K S.H.-.L I L ",
"g.#.M ^.^.K.I.I.E I.^.D.K.].:XI.( E / D.R A.A./.Y.).} 7 ! q Z P.U ^._.].I.U | 6 >.] 6 | 3 o % <.2.A } o.^ Z.J.D.P U Z.G.J.F.F.-.",
"s 7 S W.K H U Z.E A.R n K.).`.E.( T / b n H R X.J.c 4 7 ` D Z.Q.G.E X./.{.I.F.I & 3 V _.H.I 5 y t F W./.).U.J.G.].^.J.o.S.J.Y.D.",
"N N ..^././.) z J.Z.H z z k : ; l J ^ n ^ / R L.# 9 e.2.2.a & | E E D./ c B S.^.} F.^.H.U | L l L E.W...U.^.^.;XG.S.I.J.E G.I.L.",
"F.Z.G.Z.R n n H U z F.K = 7 &.' 3 v -.(.) Y.I...f O.%Xz.2X=Xs p U U ) S.L N L E P U _.^.G.G.Z.R Z.J.Q.G.K J K U P P J.A.H P W Z.",
"B B K / / / E K.-.D.U.b 0 ' j.1X2.9 V J.A.}.:XE V f +Xx.n.c.A y J.I.Z.V 9 A 6 C I./ / G.J.G.G.W.).D.W.).Z.D.Y.R ..Z.I._.).Y.K b ",
"P./.J.S.J.}.[.}.Y.b O + D 2.l.5X1X1.; J.P.[..X;XN & y i ' y 4 k Q._./ @ d @Xw M n n h K E.E.J.G.K.Y.J.J.K z G P U A.K.U.(..XD.(.",
"U.:.U.).Z./.;X|.Z , i *.i.$X1Xm.<Xx.1 8 U K E W U G l 4 h N F._.J.I.N > 2.7Xq.* H | F.J :.Q.G.H.J ^ ) n U / -.S.F.U Z.U P U G.S.",
"j G C H R X.G.;., t &.g.$X6XiXdXqX-X] . j J K T U G U K -.U E.E.G.z > ] 4.C.q.' ; 4 - 3 l W.Z.H.S.# + 4 } ].).G.G.Z...U Z.G H G ",
"W.]./.^.{.G.J 3 &.r.1.2.t.6XkXlXfXwXh.M k G.Z.Q.Z.H J U F.S.J.-.4 = s q.d.&Xr.{ ] s [ D , } H } > y ;.f 9 F W.OX;X>X).E.OX_.W.G.",
"| M N Z.OXoXH.v u { [ 6.[ F @X4X<Xa.3.V V S.!.G.U.Z.Y.A.Y.^ !.G M [ r.x.&XyX4Xd.0.' <.*.s 0 :.L M { 5.2.<.s N F.).oX..G U ..Z.U ",
"S 0 V 6 -.^.E.I M 4 3 p 7 t @XwX<X0.i + l Z._.W.D.U n c c K K 4 u s +.8.c.4XyX4Xd.$X5.v.=.4 H.6 { k.1X2XN.O.3 G.J Z.Z.^.Z...U P ",
"y ] >.w L H.!.J.| U H.(.A u $XeXN.<., Z -.} U G.!.).:X^.I.~ ~ V %.9 i ] f u.dX0Xd.f.] u.2 V H.4 ; a c.8X8Xy.o 6 P Z.^.OXH.I.J._.",
"N 3 V :.(.I./.].J.J.D.S.N t g.7Xy.t S A.].J.H.oX(.].]._.J.J.S V c.f 4 l , ,.9Xj.+XD s $.0 !./.Z.0 . i v.%X] 5 -.J.F.^./.J.W.J.`.",
"F.C } #X_.R J./ F.A./ / C t 0.C.e., F.I.) ^.Z.U + + g j J } 5 s ,.s c R 5 Q w._ 9 & 7 y :.Z.R Z.K l . 1.=.& k Z.J.c N P S.U K G.",
"G G E H.| B G U S.Z./ K v 3 5 =.k l ; N C Z C O i ] ` 3 | E.B 4 $ 3 } L 3 8 [ 7 l Z.J.).^.) P.Y.(.-.o 0 5 ~ H.U K.Z.Z.U P G | | ",
"J.Z.S.G.G.J.J.I.^.J._.).J.L 0 0 + y [ p l U.F.- #.=.=.p S _.J.H.S.U.'.-.N k N A _.).J./._.A.A.D.(.J.b S !.'._.J.W./.^.J.^.H.G.G.",
"Z.o.G.G.A.S.F.Z.U.G.Y.I.G.F.S M M %.v.2.& S K l & 1 9 # + U U K U Z.J.G.Z.^ I Z G.J./ J z j T }./.J.E.`.^._.W.F.U Z.E.J.G.G.G.Z.",
"Z.A.G.Z.....S.G.J.J.I.A.Z.F.S 8 r +.M.M.p G U.S.} I F Z J D.L.X.J.J.S.A.D./ K U E K G c / D.K H P E U Z.Z.I l k M S L L H.G.K Z.",
"/.`./.W.J.H.I.W.).).Y.J.^.H.A A %.d.<X8X*.l -.F.G.L.A./ ^.!.G.R L N Z.`.K.D.K.) ( Y.}.K.D.I.A.D.G.U.J.Z.F.3 p s 7 & 8 I -.W.].`.",
"S.E.^.W.J.J.W.`.;X].J.D.H.F p e.t.v.0X7X2.p 6 -.A.A.L.K.`.N 8 ; 7 3 N H.I.D.) T A.E T B H E Z.A.H.Z.K ^ U t &.3.&.&.s 7 L '.}.W.",
"H.^.^.S.| K K Z.]._.D.A...k 3 F ! 9.1XM.z.e.3 B K K H T F.t ' 4.{ 6.7 3 -.D.K D.A.A././.I.G.J.^.J.).D.U.U 0 ` +Xk.@XXX[ = U W.A.",
"..G.G...G.G.U G Z.K H R X.| k l o 2 <.w.M.w., F.:.U.W H S ] l.1Xp.5.] A C Z.Y.) ( A.T.}.I.A.J.J.J.E E E J o r <.<._ t f F !.^.A."
};
