/* XPM */
static char *result[] = {
/* columns rows colors chars-per-pixel */
"64 64 252 2 ",
"   c #1B0C00",
".  c #1D1402",
"X  c #1B1607",
"o  c #1C1613",
"O  c #231402",
"+  c #2D1602",
"@  c #241A03",
"#  c #2C1C02",
"$  c #24140C",
"%  c #2A1308",
"&  c #251C0B",
"*  c #2B1C0B",
"=  c #321D01",
"-  c #3B1E01",
";  c #381609",
":  c #331D0B",
">  c #241C13",
",  c #2B1C12",
"<  c #271A18",
"1  c #2D2203",
"2  c #24220B",
"3  c #2D230C",
"4  c #332303",
"5  c #3C2402",
"6  c #362901",
"7  c #3C2A02",
"8  c #33240C",
"9  c #3B250B",
"0  c #352A0B",
"q  c #3C2A0C",
"w  c #3C3104",
"e  c #2D2313",
"r  c #282616",
"t  c #2C231A",
"y  c #2E2A1B",
"u  c #332413",
"i  c #392415",
"p  c #332A15",
"a  c #3B2A15",
"s  c #32251A",
"d  c #332B1C",
"f  c #3B2C1C",
"g  c #38331A",
"h  c #1F1C24",
"j  c #2A2624",
"k  c #2D2924",
"l  c #272528",
"z  c #2D2B2C",
"x  c #332325",
"c  c #332C23",
"v  c #3A2D23",
"b  c #322E2D",
"n  c #3A2E2B",
"m  c #2C302D",
"M  c #343125",
"N  c #3C3224",
"B  c #34322D",
"V  c #3C342C",
"C  c #3C392C",
"Z  c #2F2D30",
"A  c #322E32",
"S  c #322939",
"D  c #2F3334",
"F  c #353334",
"G  c #3A3534",
"H  c #363B33",
"J  c #3C3A35",
"K  c #353339",
"L  c #3B363A",
"P  c #363C3B",
"I  c #3D3B3B",
"U  c #431807",
"Y  c #432401",
"T  c #442C02",
"R  c #4B2D01",
"E  c #4A2A07",
"W  c #40240B",
"Q  c #442C0B",
"!  c #532D02",
"~  c #572C04",
"^  c #453202",
"/  c #4B3203",
"(  c #4A340B",
")  c #4A3A09",
"_  c #523302",
"`  c #553B03",
"'  c #5B3B04",
"]  c #593408",
"[  c #533B0C",
"{  c #5B3D0B",
"}  c #462E13",
"|  c #443312",
" . c #4B3411",
".. c #4C3B13",
"X. c #473819",
"o. c #543D12",
"O. c #5A3E14",
"+. c #643C02",
"@. c #6C3D01",
"#. c #653C0A",
"$. c #673E0F",
"%. c #433325",
"&. c #463A27",
"*. c #42342C",
"=. c #433B2C",
"-. c #433B34",
";. c #473934",
":. c #41363B",
">. c #423E3C",
",. c #493E3B",
"<. c #3B402C",
"1. c #394134",
"2. c #3D403B",
"3. c #4A4005",
"4. c #574507",
"5. c #5C4304",
"6. c #5E420C",
"7. c #594713",
"8. c #644301",
"9. c #6B4304",
"0. c #644A07",
"q. c #6C4A01",
"w. c #6B430C",
"e. c #6B4C0B",
"r. c #734C03",
"t. c #784905",
"y. c #6A550B",
"u. c #795607",
"i. c #75520B",
"p. c #684915",
"a. c #764C13",
"s. c #6B5516",
"d. c #725314",
"f. c #795716",
"g. c #7C670C",
"h. c #45432E",
"j. c #55502B",
"k. c #454234",
"l. c #4A4234",
"z. c #44423D",
"x. c #4B433D",
"c. c #484A38",
"v. c #4A4A3D",
"b. c #544635",
"n. c #53443C",
"m. c #534B3E",
"M. c #675625",
"N. c #725825",
"B. c #7E6828",
"V. c #766631",
"C. c #373844",
"Z. c #3D3D42",
"A. c #433E41",
"S. c #493E44",
"D. c #443D4B",
"F. c #3E4547",
"G. c #454343",
"H. c #4A4544",
"J. c #454943",
"K. c #4B4A45",
"L. c #45444A",
"P. c #4A464A",
"I. c #464A4A",
"U. c #4D4B4B",
"Y. c #514645",
"T. c #524C44",
"R. c #544748",
"E. c #524D4C",
"W. c #594D4C",
"Q. c #4B5244",
"!. c #4E514C",
"~. c #53524D",
"^. c #595548",
"/. c #5B534D",
"(. c #494852",
"). c #4D4B51",
"_. c #524D52",
"`. c #554C58",
"'. c #4D5355",
"]. c #545253",
"[. c #5A5554",
"{. c #565A56",
"}. c #5A5956",
"|. c #555459",
" X c #5B555A",
".X c #5C5A5A",
"XX c #625C4E",
"oX c #615855",
"OX c #625C5C",
"+X c #576147",
"@X c #5F6158",
"#X c #716B47",
"$X c #61615E",
"%X c #67635C",
"&X c #5E5D62",
"*X c #655C65",
"=X c #646362",
"-X c #6D6565",
";X c #834B08",
":X c #855706",
">X c #8D5A02",
",X c #975807",
"<X c #834D11",
"1X c #865817",
"2X c #965B18",
"3X c #A55E04",
"4X c #886509",
"5X c #946907",
"6X c #9A7308",
"7X c #856315",
"8X c #8A6416",
"9X c #976915",
"0X c #8F7312",
"qX c #9A7416",
"wX c #A66C0B",
"eX c #A87707",
"rX c #B67B0C",
"tX c #A36D19",
"yX c #A67915",
"uX c #8A5D2A",
"iX c #8A6C25",
"pX c #966C23",
"aX c #94782E",
"sX c #A37624",
"dX c #B17E2D",
"fX c #867A46",
"gX c #B58809",
"hX c #AA8612",
"jX c #B68718",
"kX c #BA941C",
"lX c #A68527",
"zX c #B7892A",
"xX c #B79327",
"cX c #A58535",
"vX c #A49333",
"bX c #AC9436",
"nX c #BB9835",
"mX c #C39415",
"MX c #CFA51B",
"NX c #C49824",
"BX c #C49839",
"VX c #CCAC38",
"CX c #96894E",
"ZX c #AB9246",
"AX c #B79845",
"SX c #AB9C55",
"DX c #B7A34D",
"FX c #A69963",
"GX c #BFB777",
"HX c #C6AE52",
"JX c #C49C61",
"KX c #DFCD51",
/* pixels */
"|.>.= p.9.9.p.Y _.H.G.H.>.z.G.>.K F $ T :X5XqXvXDXVXgX>X+., L.v.>.{.U.G.[.~.>.S.S.*./.oXm.;.x.x.I.U.~._.{.XX<.H P L.`._.U.~.H.L ",
"F =.4 5 ] E 9 : U.R.~.E.E.E.U.R.OX-.4 f.jXjXxXAXDXBXrX>X- o b n U.A.I z.z.G.x.L L A S L :.G z.F.Z m oX*.q g j D.m.z.]. XH k r j ",
"1 3 # O u s *.Y.>.H.P.H.[.}.OX.X*X*.= e.9X>X;Xa.iX9XtXt.: J z.G.K.L z.K.>.H.E.E.I P.A.< % 2 M I.P h.f W y.y.T % p 1.z.c O T ( ( ",
"4.M.7.3 -.x.L >.G.I G z >.H.U.H.c.p q R t.t.9.d.uX1X<X_ d I G.W.U.U.G.G.E.].[.].G.< 3 ^ q.0.6 d I.Y.| p.AXKXnX9.X P {.;.= f.sX9.",
"/ [ 4 & k./.E.E.G.P.[.G.>.J U.K.K.M g 1 / ] E Q ~ 9.] - &.!.|.H.z.I G B >.>.>.H.n.p 7.u.eXyXe.5 v.V <.CXGXGXBXeXe D ).>.# R u.+.",
"} q i ,.K.G.K.G.E.H.R.K.U.~.oXE.}.U.I.>.x O , $ ) T W &.c.I A.G.F B F L >.J :.H.n., = +.>X>Xt.- @ w 3.j.#XCXAXtX^ M l l l # R | ",
",.U.S.K.R.P.U.{.G.>.>.>.G G H.E.v.V G A.L.-.k.d 2 p ;./.^.!.G.E.I.z.G.U.E.U.H.G.T.-.u - ' #. .@ 4 s.CXM.V.FXcX9X_ C U.J.o 0 5.7 ",
"(.L.L.E.J.z.I.'.x.P.K.U.P.G.I >.A.S.E.K.[.[._.].z.L.*XoX X[.k.OXH.~.].E.E.R.K.R.E.U.L : 9 5 & r @ E B.CX#XCXcX9X_ n L k.3 0.yXr.",
"H.I F.H.P.G.P.|.E.G.G.U.L.G.H.U.G.).].}.|.}.].].).L.G.G.L.L.D.G.U.J.G.I >.K.].U.x.].W.J G n s s $ R 5.j.fXaXzX2X0 N L.P y 4 w.<X",
"G.G.P.I.U.K.P.{..X).L.G.G.L F L F F I G.I I F z F z j & . X k _.U.I G.K.U.H.R.R.R..XoXR.T.W.E.=.w y.iX7.V.uXsX8.f s < B =.9 8.+.",
"L.U.H.L G.G.z.L.U.U.G.G.).U.H.'.>.G.U.|.U.E._._.J d u 9 7.^ @ `.{.^.E.z.A.G.R.H.G.R.E.R.x.H.T.k [ e.cXsXpX<X] # f : Q 5 5 5 T o.",
"G.U.>.F b K K L z z L U.].U.U.U.P.G.P.{.|.|.U.A.@ 8 E / e.3.3  X].].U.P.G.R.E.E./.~. X XH.>.z.c = O.f.<X1Xa. .M i [ f.4X7X6.= & ",
"I U.].U.G.G.H.Z.I L Z.U.U.G.I I F K F z.L.P.I >.s o.s.0._ Q r K.].G.I E.E.>.L H.J >.H.R.A.H.E.T.0 ) #.+.] } %Xc.* ( u.>X:XR u ].",
"z z G.U.U.).U.G.G.L.H.U.}.].U.|.|.{.U.A.G.G.G.].< = 4.` = s b H G.J F G.>.F k n k b b j j F B V e w 8.5X8.. >.,.-.# _ ] p. .X I ",
"U.U.]. X{._.U.I H.U.U.U.{.].G.I U.H.K K K I K F -.& # @ , H.[.I F z.z.>.H.[.E.G.G.K.>.>.>.R.U.P.n 0 y.jX5XT U.`.K.t : Y E 9 N Q.",
"I Z.U.]._.U.U.].'.U.E.).].*X.XP.I.H.H.U.~.[.U.G.k.L Z.L F -.>.L.L 2.m k z >.G.K.H.T.>.G.U.U._.G.&.& T t.;XT &.c.Q.  $ = = 1 c Z.",
"A.Z.U.U.G.I.].U.K H.L L U.I.I G.K.E.E.^.K.z.>._.I.F.I , O : f B K.H.Z.U.x.T.[._.H.K.F >.I U.}.G.l.t 8 ] r.@.R & < 6 q.5.@ o N 1 ",
"U.U.U.L F G.U.H.F z I I F K F L z.b F L.|.L.F U.M I.G.a _ d.p.- < B 2.I -.E./.P.R.K.W.=XU.K.}.&Xl.^.n 5 r.hXlX0.^ p.{ M./ 4...0 ",
"L L L.]._.I I ).]._.U.E.K.G.'.E.H.>.G.z.U.U.U._.Y.T.M ^ 7XkXkX5X* C P.L.P./.H.G._.:.>.>.z.R.R.z.x.$XK.q d.nXNX5X4X+._ d.u.:X` @ ",
"I L H L L A F U.].|..X_.H.I I P.T.L B M B >.R.S.K.!.g 6 e.dXdX,Xq %.G.R.`.K.z.K.K.Y.U.G F H.>.b j b 1.2 ^ pX9XzXMX6X4X:Xt.@.O.* ",
"&X X{.U.U.~.).].=X|.].P.U.{.U.]./.s * : O   > T.G.F.M 3 T 1X2X2X0 &.A.U.).Y.R.}.G.Y.,.b n A b G A.A E.g 5 p.1XJXqXyXeXrX,Xe.Q h.",
"I.G.H.L.H.F.G.].]._.{.}._.)..XU.C 1 0.g.g.p.# x.L.(.I.C 6 8.9.+.# l.K.S z n B j :.G n :._.E.K. X).A.x.l.0 5 ^ s.bXtXwX,Xt.{ 4 b.",
"I U.U.H.U.U.H.).].>.U.H.I G.L I p [ sXgXeX8X7 p C I C.:.p 0 8 s c E.@X].[.oXOX_.Y.R.-X-X-XW.G.[.`.E.c.XXn.;.W ` 1X1X<X@._ 6 m.c.",
"_.}.H.K U.E.I.].L.P.{.|.U.G.I E.g ^ :X3X,X1X7.. 2 -.I >.;.,.x.z.-.L I.I.~.T.R. XOXE.-X-XOX[.x.E.x.,.G.|.P.W.u Q ;X@.' / @ -.OX/.",
"y c I D D m I z.z.>.>.b k k A j &.7 0XgXgXhXqXr.# & I.F.U.L G S A C.z A l m l D.J >.-.G F >.G.H.R.U.F.!.V v ;.# W 9 # e J B B z.",
"( = @ t ~.I B l G J >.A.G.>.R.P.3 ) DXHXnXyX4X6XN.# C L {.OXOX|.[.E.d r t I G.L L H.K.x.K.E.T.H.`.}.!.U.P.P.^.m.b.b.Y././.H.H.J.",
"7Xs.[ 0 ^.E.'.U.K.G.G.K.].].oX].y g M.CXcXlX6XjX1X` 8 G U.OX-X2.F C # X.. M K.~.G.H.G.I z.G.>.B D z *.G K C.L.I ,.Y.H.R..XR.>.H.",
"+.w.T # -.U.|.H.S.>.>.G.E.E.~.G.>.l.g V.SXcXqXwX5Xi.5 V A G H z.L.=.7 p.q &.P.}.OX[.K.K.E./.U.P.!.$XW.n %.*.b Z._._.&X&XL.>.E.Y.",
"= # * V P.U.U.I.K.E.~.E.E.E.]./.*XH.X...B.iX1X;X,Xi.4 n G A.z.~.L.C # 5 @ >.U.*X.X~.U.U.'.K.I A.I ).K # ' +.T , J z.K.].U.K.R.x.",
":.L L E.Z.L 2.z.U.R.E.[..XE.].[.[.Y.u E a.a.w.@.9.{ 0 k.].P.K.z.(.z.a X.N [.I F &X].H.Z.I L G.{./.`.z T 6XmXyX' g ^.^.z.K.>.B H.",
"G I A.G.L H.G.>.G F F G.[.K.>.>.l 2 # / #./ T = - W T.2.G.E.[.K.I.z.x.L G.D D F A Z z z b A F A.J P.z ^ lXNXjX:XM k.-.B n F >.>.",
"J.x.x.K.E.E.,.>.[.U.-.L P.z.G.>.h r / 8X9Xf.# h ,.S.}.K.U.K.R.I J.>.G.L.'.1.G.K.{.].H.G.G.G.>.I >.z.d 5 f.pX9X;Xt ;.E.R.P.K.E.~.",
"W.x.k.^.G.K.].k.-.t > M !.v.^.A.8 d.4XxXNXgX' o ;.E.L.Z.F.U.S.Y.z.T.~.[.[.{.U.U.U.E.U.U.{..X|.E.oX/.K.@ ' ,X2X#.$ ,.*.< l L.].v.",
">.E.K.J z.].z.r @ ( ..# y k.z.:.. T p.iXzXwX9.> L.!.T././.E.U.I B I ,.G.G.U.A.G.L.U.U.L.].OX&X}. X[.~.d _ <Xt.- L } T / 5 s G.k.",
"T.G.K.z.P.oXN @ 4.7X9Xp.2 J !.z.k.9 = ] 7X,X#.: |.{.<.k.;.$ < 2 >.>.G J G.~.G.H.L I G.F A K I I D K m e Y w./ 0 L = i.qX:X[ , G.",
"z.K.H.A.`.W.f X.y.u.5Xa.: H G.-.K &.| ..6.+.E * <.v.b < + Q M.1 K.~.~.E.~.}.].|.U.U.].P.U.U.{.P.'.|.s 1 Y #.4 M _.# 5.5Xu.E & G.",
"K.~.~.U.).W.%.# 5.8X:X~ i Z.].x.A.U.z.C a : % y o X % E 4X5Xu.# n K.T.H.H.K.G.U.U.G.L.Z.A.U.{..X XU.3 [ a.6.O L.H s = #.p.U s G.",
"R.G >.E.A.E.R.8 4 6.+.- -.|.L.L U.U.U.x.[.G t . ^ 6._ 5.xXmX4X .b K.z.z.L.I.U.].G.G.G.A.F F A.].R.>.4 ` 8./ t L.2.G < : + % ;.~.",
"A.A k F Z z B -.t # + , J Q.J.A.k.I z.H z.A M 1 6X9Xa.7 d.,X:X_ z ~.K.H.H.G.].{.U.U._..X{.).G.H.H.G 3 o.' 9 =.|.^.).G 3 (  .u z.",
"_.R.x.K.~.).I x. XG V b 1.Q.x.L.(.L.z.^.x.`.:.@ ~ t.r./ $.<X<X7 j U.L G.I.z.G.L G.P.G.U.G.G.K G.,.C X 4 Y * x.U.!. XC 6 5.3.# H.",
"G H.J.E.E.,.>.S.G.E.c 8 < $ t > :.U.U.[.E.oXv.r = [ ` - E T 4 X G >.[.P.G.H.F G Z.z z.U.(.D.`.T.[.V k.C B F L F z.>.&.& 0 3 c k ",
"H.}.].U.H.H.R.Y.!.R.* = ] _ ` @ $ L H J T.,.B F d # u %.,.*.l.>.L x.E.K.U.E.E.[.U.L.z.2.I L.E.K._.L ~.H.G.|.U.G.G z.x.&.=.-.T.].",
"K.U.U.~.^.!.~.~.B G.1 0.0XkXVXu.X z.z.I.G.>.G..XL.E.^.G.J z.U.L.z.R.[..X].>.z.z.G.F J J.2.1.F.I.D.H.G.2.A.I I.F.L I P.x.Y.z.P.A.",
"U.H.G.2.L B L z.k.c # p.AXnXsXt.O y G B n n >.L.*X^.I.H.~.T.H.E.P.>.G.~.[.H.K.H.U.^.^.l.L G.I.I.H H.!.]..X{.L.|.*X).P.>.z.U.).L.",
"_.R.E.E.].}.L.Z U.v [ ZXSXZXlX3X# 2 I >.>.,.S.L.K.z.L L _. X>.V >.>.G.>.n z L >.N 4 T 5 O A _.I U.U.U.G.I.].].&X).L.|.U.I.K.!.U.",
",.,.H.G.>.F Z K G., / 7.fXFXdX,XX.u G.|.G.[.R.A.z.I L x x :.L M >.G.G.>.G.R.E.G 4 s.pXi.Y t H.C L.U._.U.-.:.H.S.:.J P.G.K F 2.G.",
"v t d C z.-.A.[.Z.x. .4.s.iX9X9X| & L Z.T.oXOXA.B & # / ! 4 > I.H.U.H.G.K.].OX>...5.t.t.E & K.~. XU._.c @ @ @ q i d v..X}.).L B ",
"@ 0 g p =.}.XXOX=X>.8 6.<X:X;X~ 9 b.}._.E.oX%X[.> Q r.gXgXi.1 I [.[.z.z.G.G.[.L 4 ] 9.@.[ & K.L.U./.T.8 ..7.4.6.g 3 y z.|..X[. X",
"0.4X4X9.; S Z.+XU.z.2 1 | 0 0 N k.z.>.>.G A.n.# 4 6.nXhXyXu.- >._. X[._.*X).^.@X9 5 _ / = X X > s L.L.& { u.5XrXeXr.: > F 1.F.v.",
"R f.a.+._ _ # > D z.-.*.h.b.m.K.H G.E.G.K b v q ` { uX2X,Xt.4 I E.U.T.U._.G.U.v.,.N i u s . ..` 2 B c.3 / 8.5XzXeX4Xf.5 > n D D ",
"9 ] +.4XhXzXd.* 2.].}.OXoXW.E.T.U.K._.G.I.K.d | q.9.:X>X@.~ $ C.I L 2.C z L A.F F b >.>.G u p.f.0 t 1.3  .6.u.t.,X>X<XT %.*X|.L.",
"X 6 4.iXVXjXr.8 2.I H. X XL.H.A.H A..X].G.K.f q 5XxXeX>Xa.U . y ).~.!.Q.z.).`.L.P F F z t + ~ @.: o P.e 9 T p.e.@.9.[ 4 < :.G.I ",
"U.f 6 7.aXtXa.i c.H H I S z F B H Z.G.G.z.G.d 0 qXnXBXNXgX4X| h I L Z z z H K D.H.l.* O # R 9XmXO.  t . + # Q 4 9 9 1 X # $ & 2 ",
"[.n i } uX2Xf.# z.z.U.].U.G.z.K.2.U.A.G.J.I u Q 0XAXbXlXhX5Xw.O < F P.'.|..XL.R.x.1 / 0.i.0XkXeX;X_ 7.3.# d &.l.W.E.v.| 4.s...0 ",
"W./.&.T e.9._ 4 '.I.K.K.J.F.!.@XQ.{.].~.{.U.t 0 o.B.lXhX6X1X@.T 4 3 H..X{.}.K.G.;. .7X6XxXxX9XsXwX:Xs.7.8 T.E.].H.P.K.g 4 w.` 0 ",
"L.L.d 4 T 4 g P.(.L.A.z.Q.U.U..X%X@X@X}.'.&XC 9 ) CXSXAXBX9X:X5XM.# =.=X}.U.-.J *.) q.6XjXcXi.f.3X@._ / i [.U.L.Q.z D *.9 E 7 4 ",
"K K K.x.*.-.z.G.K.>.z.I z.z.F F J G.I F.H z =.* T 7.iXaXpX9Xt.9X<XY k P D B x.Y.^.0 ) cXnXsX2X;Xp.7 # e k.L.U.I ).G.x.;.8  .s.e.",
"U.>.x.K.T.E.P.U.].U.{.].].[.E.E./.[.U.|.|.].[.G q  .p.f.8X<X~ t.#.7 z.L.F.z.G.~.OXd 6 5.7XsX1X! # f b.E.{.}.*X_.'.~._.Y.f 0 6 4 ",
"I J.!.G.I L.U.G.U.K.].U.K.E.K.R.U.|.[.oXR.S.P.G.u 9 ! r.9.E ; ] 5 3 L z.P.x.V F K.v.p Y d.1Xf.q ,.W._. X|.].E.z.I >.U._.,.n N =.",
"K.z.G.U.G.D.U.G.U.U.~.K.z.P.I G F L >.>.>.z.A.L.c.d 4 { E ; , , f -.J.K.Y.x.I I k.G n i O.{ } k.A L P F.L z V z.I F A A.L.P.A.A.",
" X-X|.L N :.E.[.}.~.K.I.U.~.U.G.Z.L.S.F.z.].Q.F.J.1.c p * c >.1.B I G.E.T.n.K.L.k.}.R.i + # -.F L.U.I.!.I.G.H.K.P.].U.G.L.U.{.}.",
"A.P.y 4 Y + : ].=X$X].!.E.R.>.J I G.].`.K F m J z t r V x.L z.Q.{.K.U.G.x.H.z.z.v.J ;.n V L H.U.K.J.H 2.z.K.z.z.F H I z.].{.[.].",
"U.^.u { 7Xu.T 2 .X].z.L x.H.P.[.T.K.].'.o . = T Y / T 6 O o F J z.G.U.].U.T.z.z.>.T.U.{.[.H.U.].U.~.!.~.U.I.U.}.@X!.I.G.H.G.U.U.",
"2.J 1 i.wX6X0.@ L z.L L z.L L K.R.P.!.k.& 4.1X9XjX>X4Xg.^ s Y.T.T.}.A.G.L.P.K.Y.Y.U.'.&XU.Y.K.U.U.I.I L U.U.].U.F.P F.z.I._. XD."
};
