/* XPM */
static char *result[] = {
/* columns rows colors chars-per-pixel */
"64 64 251 2 ",
"   c #020202",
".  c #0A0103",
"X  c #010B01",
"o  c #090A03",
"O  c #03020A",
"+  c #0B010B",
"@  c #020B0B",
"#  c #0A0B0B",
"$  c #110202",
"%  c #12000C",
"&  c #19000D",
"*  c #011302",
"=  c #0A1403",
"-  c #021C01",
";  c #0B1B03",
":  c #03140B",
">  c #0B130A",
",  c #041C0A",
"<  c #0B1B0B",
"1  c #121E0B",
"2  c #030213",
"3  c #0B0212",
"4  c #090815",
"5  c #130212",
"6  c #110B14",
"7  c #021211",
"8  c #071A16",
"9  c #141519",
"0  c #022402",
"q  c #0A2303",
"w  c #022B01",
"e  c #0C2C03",
"r  c #04240A",
"t  c #09240A",
"y  c #032C0B",
"u  c #0A2C0B",
"i  c #152A04",
"p  c #142D09",
"a  c #023302",
"s  c #0A3402",
"d  c #023B02",
"f  c #0A3B03",
"g  c #05330B",
"h  c #0A350B",
"j  c #033C0A",
"k  c #0A3D0B",
"l  c #123B01",
"z  c #1C3B00",
"x  c #173608",
"c  c #072712",
"v  c #043911",
"b  c #0B3D12",
"n  c #133711",
"m  c #243C0A",
"M  c #024301",
"N  c #0B4402",
"B  c #024B02",
"V  c #0A4C03",
"C  c #04440B",
"Z  c #0B440C",
"A  c #044B0B",
"S  c #0B4B0B",
"D  c #134200",
"F  c #1A4303",
"G  c #174B05",
"H  c #025402",
"J  c #0B5402",
"K  c #035B02",
"L  c #0D5C03",
"P  c #02530A",
"I  c #0B530A",
"U  c #035C0A",
"Y  c #0B5C0B",
"T  c #135402",
"R  c #155C01",
"E  c #1A5C02",
"W  c #1A5409",
"Q  c #135A0A",
"!  c #054413",
"~  c #0D4512",
"^  c #0D4C12",
"/  c #124D13",
"(  c #174B17",
")  c #065714",
"_  c #0D5513",
"`  c #0B5B11",
"'  c #0D5D1B",
"]  c #135B13",
"[  c #165718",
"{  c #224C02",
"}  c #284808",
"|  c #295604",
" . c #335D01",
".. c #274312",
"X. c #365416",
"o. c #026303",
"O. c #0C6301",
"+. c #046C01",
"@. c #0B6C02",
"#. c #03630A",
"$. c #06660B",
"%. c #0C6C0B",
"&. c #1C6202",
"*. c #116C03",
"=. c #196903",
"-. c #166709",
";. c #1B6C0A",
":. c #027201",
">. c #0B7401",
",. c #017C01",
"<. c #0B7C02",
"1. c #01750B",
"2. c #0C730A",
"3. c #087B0C",
"4. c #137201",
"5. c #1A7303",
"6. c #147D03",
"7. c #1B7A02",
"8. c #1A760B",
"9. c #096416",
"0. c #166516",
"q. c #0B7713",
"w. c #167712",
"e. c #356906",
"r. c #237A05",
"t. c #387806",
"y. c #216E10",
"u. c #396A12",
"i. c #277417",
"p. c #257A11",
"a. c #2D7D11",
"s. c #387615",
"d. c #0B6122",
"f. c #136623",
"g. c #466F0D",
"h. c #457804",
"j. c #028301",
"k. c #0D8500",
"l. c #048B02",
"z. c #0D8708",
"x. c #148303",
"c. c #1B8401",
"v. c #148C01",
"b. c #1B8C00",
"n. c #17870B",
"m. c #158C0C",
"M. c #089504",
"N. c #0C9C03",
"B. c #1A9501",
"V. c #159D02",
"C. c #1A9B00",
"Z. c #179508",
"A. c #149D09",
"S. c #088E12",
"D. c #168513",
"F. c #138C12",
"G. c #1B8B12",
"H. c #179714",
"J. c #199314",
"K. c #238402",
"L. c #278906",
"P. c #398606",
"I. c #249301",
"U. c #2C9400",
"Y. c #249B03",
"T. c #2B9708",
"R. c #339C01",
"E. c #3C9B02",
"W. c #3A9308",
"Q. c #238511",
"!. c #388717",
"~. c #249B14",
"^. c #289A18",
"/. c #369212",
"(. c #05A503",
"). c #1BA402",
"_. c #18A705",
"`. c #1BB404",
"'. c #1BA312",
"]. c #19A918",
"[. c #1EB019",
"{. c #23A302",
"}. c #2BA403",
"|. c #26A809",
" X c #34A501",
".X c #35A706",
"XX c #3CA500",
"oX c #3EAA00",
"OX c #26B307",
"+X c #26A815",
"@X c #34AC18",
"#X c #25B116",
"$X c #289723",
"%X c #35B222",
"&X c #49880B",
"*X c #459A05",
"=X c #4E9B00",
"-X c #539C02",
";X c #56990A",
":X c #468813",
">X c #568918",
",X c #499418",
"<X c #5B9916",
"1X c #64980D",
"2X c #43A403",
"3X c #4CA605",
"4X c #42AC01",
"5X c #54A301",
"6X c #5BA304",
"7X c #5CAB01",
"8X c #57A708",
"9X c #48B304",
"0X c #5BB402",
"qX c #5AB505",
"wX c #56A613",
"eX c #64A401",
"rX c #67A805",
"tX c #6CAA00",
"yX c #73AC01",
"uX c #6DB402",
"iX c #63BC03",
"pX c #67B807",
"aX c #6CBC01",
"sX c #74BD02",
"dX c #7BB903",
"fX c #75BD0B",
"gX c #68A615",
"hX c #66B61A",
"jX c #75B616",
"kX c #4F9123",
"lX c #6A9C22",
"zX c #70AE28",
"xX c #5AC600",
"cX c #5CC401",
"vX c #5FC711",
"bX c #64C402",
"nX c #6CC301",
"mX c #68C807",
"MX c #74C402",
"NX c #79C303",
"BX c #74CC02",
"VX c #75C50B",
"CX c #7BC309",
"ZX c #75CC0C",
"AX c #71D40C",
"SX c #78D208",
"DX c #6BCB12",
"FX c #79C314",
"GX c #77C915",
"HX c #87BC08",
"JX c #86C205",
/* pixels */
"$ @ X o   h !.L     O . . O % O   n Z * . O O 3 .   B S   %       O % . d / X + 2 O O + X a ( 0 . o   O + O   O M W.(   * X O o ",
"      o X s Q.*.t X     @ , X X M ' u     o * 0 - 0 H H   . X     @ + X B U w - 0 *   .   - S M * X * X     X , K L.F   o   O O ",
"X     X X 0 R >.C w 0 - - r - q K s   * w N ' 9.d.9.q.U *     + . O . X A q.9.f.) 9.A a -   0 L w - ; - - q w C @.=.e X X     X ",
"o o X * * - g Q Y P C a 0 w w C C * q / K B a 0 - 0 a C 1 .         . * d d 0 - y M H K S y - a S s 0 0 w k B K Y k 0 - :   o o ",
"  X * * 0 = * w M M M d a f ~ v 7 w H B w * o   . .   * o     O         * X o . . . X - B K d * f ~ j a d d M M w - - 0 * X X O ",
"h e 0 * ; t , w 0 w a d d j u - - G M 0 @ O     O O O             O +   O   O 2 o . + + - M M w X u h d M M a q w > 1 < : - f a ",
"!.Q.E s X : 7 * - r u u t * X   B k -   %   O + O + + .             X O   O O O       O   * d P = * - 0 0 y y , - @ - * c Q p.!.",
"K @.4.Q w w *   X X X   o O X n B w : =         X     O       O           o     O O o X * > q d ! X   O   # X *   O 0 a Z 4.:.K ",
"  t Z K M 0 -   2 O         - k j 0 < * X     7 w d a c   . + X X . &   r a d a 8 :   O   - w a f -             O < 0 d J H a   ",
"  X w P M s y X O r d w X   - d a w 0 X & O 0 O.1.<.2.:.J X . . . + o V +.>.<.1.O.a o $ o q w C M q     r d t     y a d A M - O ",
"+   - C M f c o   a 9.Z X O r a a B h   + X M +.K K +.j.z.A X . O   M j.,.@.K K o.Y -     ; b v d w     h $.V X   0 d d C 0   O ",
"+   t a a a y o   w A g     t w k B d X 3 < / B a ~ H +.j.z.d   O 0 n.l.2.J M a d I j     w M j a q     0 Z h X   0 d d s 1   # ",
". X , w a M r   O   X     . = y p B K y 4 O , w B y.5.5.>.k.7.X O ;.k.>.8.*.p.Y 0 r   O t I H f 0 < o     X @   O ; d d w 1 o   ",
"+ : - 0 k k -               X y t V %.K a 0 p ; w J W.P.a.,.J.w   n.<.i.P.W.R a = e 0 a B #.Y w 0 *     X   O     X n M 0 - *   ",
"+ X 0 a j y X * - - r , < X * - 0 a R Q.T.,XX.    X t.;X:Xk.F.B w M.k.:X=X&X=     z ,X/.n.8.d 0 0 * X * , 0 r * * X t C d r * X ",
".   q C C - X c k M a w y r r ; < * r J =.G X O . O R nX5XL.z.Z n m.c.;XxXt.+ O O X l &.J w * 9 - 0 r r w d d j n - X s A w     ",
"X M K k * - A M f w j j i 0 0 0 - - : X O 2       O | sX8XB.J.l t F.I.-XvXu.o O         @ X 0 - - 0 , g d a k a a H w X a K B - ",
"~ _ u * a N h w 0 s j B J A d * : * X X o       O . t.AXwXb.).0 * H.k.;XcX8X          o > X X 8 * w S P H j w u w j N a - w S ( ",
"j g   , H M * * t 0 e M K q.Y - : *     o 2       - VXaX*Xv.b.@   >.A.U.nXFX| 2 O O       X X : * W @.K B w q ; * * f K w   t s ",
"*   X ^ H w   = * X   X w K p.T X o     O 2   * e qXJXyXV.'.| O O t ~.N.eXHXaXD     O 4 O   *   a 8.*.a * O o * - O * B _ -   X ",
". . w K w   @ X X + + O + a T.=.  o   O   ; z e.hXBXtXR.(.5.X K O.= Y (.I.rXnXVXg.{ ;   O   =   W T.J   O 3 + * * 6 3 - H j   + ",
"  @ Z B * O o     3 X = O - ,XT O O   O * >XjXSXmX5XR.N.Z.M 5.#X}.c.H 7.A.C.9XsXZXVXlXx         s ,Xl   7 X o     O O X M B * . ",
"  - ) f . O   O   w C ( t p X.X O O     z fXbXoXE..X+Xw.B I._.b.I.V.I.J *.'.}.*X4XcXFX|   4 O   X | ..< ~ I a         o w ] 0   ",
"% 0 $.0       O : J +.B w <           @  .SX4X$X#XC.Q w 5.A.T.rXhX*X).Z.r N B.[.^.2XZXh.X O     2   * - C +.o.8   . X   * [ a   ",
"  - ' 0 . O O X e +.K a S 0   O   4 O - hXmXXX'.D.;   o.`.R.uXNXbXaX2X_.m.X @ E '.E.iXSX} 2 X +   5 * B a V @.B     O 5 X ` d   ",
"  0 9.0   2 .   M ,.K k i.N o O   . x qXBX7X}._.*   - @X|.9XfXgX-XCXwX}.}.J   . B.).4XsXNXG   .     l p.V B q.K       + * Y d X ",
"M H 1.a     3 O a :.O.T 8.W.t.E u.h.sXdXuXR.@X^ 4 0 7.|.}.aXjXw o 1XBXXX Xb.N   w %XB.eXJXnX;Xe.E g.W.r.H o.w.M + .     0 +.K A ",
"I H #.Z *   +   8 2.j.:.*.&X-XcXuXDXBXyXU._.w.- o.^.OXJ.9XNXh.  3 } ZXqXL.|.@Xq.- O.+XL.eXSXxXiXvX3X&Xr.@.,.2.a O O     h 9.K A ",
"    * ; o       X Y j.j.>.s.&X5X0X8X*XI.(.Z.H 6.OX{.}.oXcXaXe .   X ;XbX9XR.{.`.v.B z.(.Y.*X8X0X5X-Xt.4.z.j.#.* X . o . = -     ",
"% . . .           X S D.l.j.k.K.B.v.V.V.5.C Q.{. X3XiXBXfXkX  2 O o g.pXDXmX6XXX_.Y.B ;.M.M.G.I.K.b.j.j.F.Y - 3           o . 6 ",
"                + % o d w.H.M.G.J.A.J.T X p.B.W.uXfXHXg.z   X O     o 0 e.gXdXdXR.Y.P.- C n.^.m.F.m.H.D.J X . %   +             ",
"  2 + O         X       X 0 M V N w o O L '.T.0XNX7Xg   + O O .   2 3 . o - *XnXhXU.).*.  o w B H M w *   O O *   .       O $   ",
"X   .           X     2 O X 0 b c * .   o.|.U.qXnX8XX O   O   O   O O . O X h.BXiX*X).8.X O X - h 0 X   O O +       .       .   ",
"    O       o   O 5   a 0.k.m.L.D.H.6.x X K.A.*XsXCX1X| =       O     @ f <XJXyX3Xk.^.0 0 ;.w.'.Z.F.F.2.d   . .   . .   X   O @ ",
"3 % + .         $   C 6.v.j.k.c.I.x.N.Z.] M C.{.3X5XAXGX<Xu.  O O   X.gXbXBXpX3XC.Y.Y ) G.A.x.M.x.<.j.l.z.I X o X           . 5 ",
"o   * o       o . B j.j.>.a.:X3X5X;XR._.(.n.N m._.|.XX9XbXmX0 $ . X <XBXqXR.)._.|.J @.N.N.R.3X;XwX;Xt.<.j.S.` X     . O = *     ",
"a M U k = X O   - +.j.q.2.P.-XcXDXxXsXeXB._.-.u D.|.R.I.9XmXe.+ O s bXqXE.{.#XT.r K ].V.-XuXbXfXqX7XP.r.1.:.w.- O   O @ u P B j ",
"/ 9.q.a     + O a <.>.J O.W.&Xt.s.wXVXHXyXC.#Xd O Q U.{. XCXgX* X <XSX2XC.'.Y   ; ].N.5XHXsX8X:Xt.P.:Xr.T O.6.M O       w 2.#.^ ",
"X 0 9.w   O +   M :.L f p.;.* O .   { ZXCX5X|.A.    f '.).7XJX=X&XHX7X{.#XQ O + r.|.4XfXfXh.-       | a.N J @.K       . * Y d X ",
"+ - d.0 . O O   a 1.K d L w O 3   X 3 l mXaXE.#XR $ X q.`.4XyXnXaXdX3X`.~.  + d (.R.uXAXe.O   . X 5 X U B B 9.H   X O + * ] a O ",
"O 0 f.r   o   O 8 O.O.f 0 -   O     O X g.SX4X$X].v.f , 7._. XhXqX6X{._.0 i 7._.$X XDX>X* O 2     . X q y U :.0   . O O * ] a X ",
"@ * ` j       O X w L S , e z X   +     F VXqXXXXXOX+X=.B Y.B.U.W.v.Y.V K '._.R.4XqXVX .  3 O     m e 0 ^ 9.d o         - ' w o ",
"O   A B X O O       0 a @ 0 ,XD       2 ; lXGXZXqXoXY.A.m.B P._.).~.O.4._.A.4X8XVXFXzX} @     o w kXD * g 0 X       + o d ) * + ",
"O . s K 0 3 + * # . O X O w /.|   o   O   x  .h.GXsXyXI.(.0.- :.x.q V (.C.-XMXAX>X .} X O O     A E.N     + + X * 2 + - U C   3 ",
"X   * S J -   = X   O   , V Q.R @ *     3 + X X { FXHXeXV.'.b     X ^.(.-XHXBXg.X   @       @ @ V K.O.c   .   * * @ X M Y -   X ",
"a 0   t H M * : - t - w A o.5.a : X         O 2 2 { GXaX2XA.6.  O ;.V.Y.uXCXh.+ O O         X : 0 R %.U a - q r * * w U a   * a ",
"( ^ y - a N d 0 w a ! B J Y M : - X O = o O         *XmXwX6.~.w   n.v.-XmX0X  4 O       @ X X * * e I K P Z w q y a M j - q ~ [ ",
"0 B Y s * s B M w d v v f a 0 8 - , 7 X   O     + o | mXeXI.H.s ; (.v.1XaXs.+   .   o     7 < 0 8 - 0 d M d a p d B s , w L B q ",
". X 0 / a X < v f d d a w w - - q * * f G s X 2     T bX6Xc.D.K g L.v.2XcXt.O o @ X w Z Z 0 = 1 * 0 0 r a d M f h t * w P a X O ",
"  * - s Z y * * - 0 0 q < X * t - w W 8.T.,X|   5   u.wX*Xb.z.N a n.k.&X6X:X  + . z kXE.K.&.w : 0 - * = r t t - - * 0 j j 0 * @ ",
"  * - - j Z *     o     o   X y , A @.*.B l ..* * f P.&Xt.l.J.w * G.k.t.&XW.G * > x F V L 2.Y y 0 :     X   O o   X a C 0 - * X ",
"O X - 0 w j q               * c a H K a o   * 0 J p.7.r.@.j.D.*   %.l.>.r.5.a.L - q X   r U K d r -   X         O * f d w < X   ",
"+   , g a d u     r g 0   X , w j H B * 2 > k C a M K +.z.F.V   . a G.l.1.L N d g ^ u     w B B w r X   - a w X O 0 d a a c .   ",
"    - h d d y     a 9.Z X O 0 d a M w O 2 * P o.J B #.,.j.H * + O   Z j.,.@.J A o.9.0 3 + - Z d d r     a -.S   . 0 d d k 0   O ",
"O X 0 B M s r X   q V k   O , M Z 0 q o + + a @.@.w.q.3.#.- + + O . o ] q.<.>.%.:.d @ +   t w f M t +   e S n O   t a M V a * O ",
"  * C #.d q t *     X X     - j a q q * *   O 8 B H M a * + & X     . o y M P B u X   o X 0 0 g j 0   o X X O     < r d J H w . ",
"B Y @.` a w : O     o       X n d 0 - - *     O X   O +                 O O           X - * ; a b *   O     o   O X 0 w S *.o.M ",
"/.L.;.f - = * * < 0 0 0 - * X * H d * O 6 # O +     O       O   +               $   O 3 O * d H q * X - - r r < X o ; - y 0.K.!.",
"{ F s - - 1 : 0 q a d d j g c X 0 N s * 3 2     O O   O     O           O       O   O O X a B s * 0 a h d d w 0 r * ; - * w D G ",
"  X * * ; , : w f d M d d j Z s * a K B - X o   3 +   X   .       X     X X + 3 X     0 M P j X a j C d d M d f y - q 0 - X o   ",
"X X : : * - w N P N Z a w a a S a - w _ K M w X * - w h = . o         X v w - X - w d P Q a - y A k a 0 a k N Y ^ w * , , X > X ",
"X   O   X 0 Q 4.K d e , , ; - w O.0   - d P [ 0.] W %.#.-     O       * P %.Q ] [ f._ f 0   - Y g 0 - , t q a H *.-.0 X X X X X ",
"O 2   # X s Q.:.a * X     * X @ M / 0 X   * 0 w a a o.K X .   O     O X B Y d a w 0 X     , ~ B * X X X     * w o.Q.F o @     O ",
"o     o o e !.K     O +   X > . - ( h X + . X     X C A   %     o O +   v ( *   X   + 4 X a [ 0 + X X o   + O . M !.G   X X   . "
};
