/* XPM */
static char *result[] = {
/* columns rows colors chars-per-pixel */
"64 64 230 2 ",
"   c #010001",
".  c #0D0C02",
"X  c #01010B",
"o  c #0E0D0C",
"O  c #0B0501",
"+  c #1A0D04",
"@  c #140705",
"#  c #1A1405",
"$  c #1E1A0A",
"%  c #171505",
"&  c #010113",
"*  c #01021B",
"=  c #000C1B",
"-  c #02131A",
";  c #08171B",
":  c #151515",
">  c #12181C",
",  c #1B1B1A",
"<  c #14171A",
"1  c #180611",
"2  c #230000",
"3  c #280000",
"4  c #330000",
"5  c #241B0A",
"6  c #2A1806",
"7  c #371B08",
"8  c #231D14",
"9  c #221D1B",
"0  c #2F1212",
"q  c #002512",
"w  c #26210C",
"e  c #2B220D",
"r  c #2B2303",
"t  c #372809",
"y  c #2D2413",
"u  c #23211C",
"i  c #2B241B",
"p  c #282914",
"a  c #322511",
"s  c #352912",
"d  c #3B2D15",
"f  c #362A1B",
"g  c #3D2C1D",
"h  c #36271D",
"j  c #3A3514",
"k  c #3C3C06",
"l  c #010123",
"z  c #01002B",
"x  c #0C0028",
"c  c #061724",
"v  c #121C21",
"b  c #1D1E20",
"n  c #000034",
"m  c #02013D",
"M  c #05292B",
"N  c #1C2628",
"B  c #002131",
"V  c #003334",
"C  c #1A3A3A",
"Z  c #252424",
"A  c #24292A",
"S  c #2C2D2D",
"D  c #2B2725",
"F  c #342C2C",
"G  c #362F25",
"H  c #3B352A",
"J  c #2B3334",
"K  c #243737",
"L  c #333334",
"P  c #343D3D",
"I  c #3A3A3A",
"U  c #363537",
"Y  c #252F31",
"T  c #4C0000",
"R  c #550404",
"E  c #570607",
"W  c #481919",
"Q  c #640000",
"!  c #780402",
"~  c #4B2D00",
"^  c #4E2200",
"/  c #593A06",
"(  c #452E18",
")  c #5C2010",
"_  c #443416",
"`  c #44341A",
"'  c #4A361A",
"]  c #4D391A",
"[  c #493516",
"{  c #533C1C",
"}  c #593E1E",
"|  c #573918",
" . c #772D0A",
".. c #62381C",
"X. c #712F17",
"o. c #452C2A",
"O. c #443123",
"+. c #4B3423",
"@. c #49382A",
"#. c #523A21",
"$. c #5B3E22",
"%. c #533D2D",
"&. c #503622",
"*. c #423D3D",
"=. c #483936",
"-. c #5E3F3F",
";. c #693F22",
":. c #6B3030",
">. c #384639",
",. c #5C411E",
"<. c #5B4017",
"1. c #444500",
"2. c #62431E",
"3. c #636501",
"4. c #5C4121",
"5. c #56412D",
"6. c #5C4736",
"7. c #44413C",
"8. c #644422",
"9. c #694624",
"0. c #6C4925",
"q. c #6A4529",
"w. c #724B26",
"e. c #754D29",
"r. c #7B4E2B",
"t. c #764625",
"y. c #7D512B",
"u. c #754D33",
"i. c #784E35",
"p. c #7E5236",
"a. c #684D2F",
"s. c #080145",
"d. c #1E0042",
"f. c #003A40",
"g. c #064747",
"h. c #144444",
"j. c #194E4E",
"k. c #004F51",
"l. c #015454",
"z. c #035959",
"x. c #135353",
"c. c #1C5353",
"v. c #224D4D",
"b. c #284646",
"n. c #314545",
"m. c #3C4947",
"M. c #21504F",
"N. c #2E5454",
"B. c #295656",
"V. c #335858",
"C. c #06605F",
"Z. c #006363",
"A. c #0E6B6B",
"S. c #006A6A",
"D. c #186C6A",
"F. c #007676",
"G. c #167474",
"H. c #107A7A",
"J. c #286A6A",
"K. c #316666",
"L. c #257979",
"P. c #444343",
"I. c #444D4D",
"U. c #4B4B4B",
"Y. c #4C4545",
"T. c #5B4A42",
"R. c #4B4F50",
"E. c #535353",
"W. c #5A5A5A",
"Q. c #5A5554",
"!. c #4B5051",
"~. c #6C4443",
"^. c #6F625D",
"/. c #446768",
"(. c #596767",
"). c #626262",
"_. c #757879",
"`. c #8D0000",
"'. c #850C03",
"]. c #9D0000",
"[. c #96150A",
"{. c #A50000",
"}. c #AB0000",
"|. c #BA0201",
" X c #A61C10",
".X c #B0210F",
"XX c #912F2F",
"oX c #936600",
"OX c #B96B04",
"+X c #844B29",
"@X c #83542E",
"#X c #875223",
"$X c #98572F",
"%X c #845631",
"&X c #895731",
"*X c #855932",
"=X c #8B5932",
"-X c #865C3F",
";X c #935D35",
":X c #975F38",
">X c #985D36",
",X c #994122",
"<X c #A9522F",
"1X c #9C6136",
"2X c #9C6239",
"3X c #8D6037",
"4X c #A3653C",
"5X c #A6683E",
"6X c #A9693F",
"7X c #B86F3D",
"8X c #AC6B42",
"9X c #A56A46",
"0X c #B16E43",
"qX c #BC7445",
"wX c #B87549",
"eX c #B07755",
"rX c #926363",
"tX c #C57A4B",
"yX c #C87B4B",
"uX c #B9846B",
"iX c #D88754",
"pX c #D4834E",
"aX c #F5955D",
"sX c #E6905D",
"dX c #D08860",
"fX c #E49A6C",
"gX c #EA9765",
"hX c #F89A60",
"jX c #FBA772",
"kX c None",
/* pixels */
"kXkXkXkXkXkXkXkXkXkXkXkXkXkXkXkXkXkXkXkXkXkXkXkXkXkXkXkXkXkXkXkXkXkXkXkXkXkXkXkXkXkXkXkXkXkXkXkXkXkXkXkXkXkXkXkXkXkXkXkXkXkXkXkX",
"kXkXkXkXkXkXkXkXkXkXkXkXkXkXkXkXkXkXkXkXkXkXkXkXkXkXkXkXkXkXkXkXkXkXkXkXkXkXkXkXkXkXkXkXkXkXkXkXkXkXkXkXkXkXkXkXkXkXkXkXkXkXkXkX",
"kXkXkXkXkXkXkXkXkXkXkXkXkXkXkXkXkXkXkXkXkXkXkXkXkXkXkXkXkXkXkXkXkXkXkXkXkXkXkXkXkXkXkXkXkXkXkXkXkXkXkXkXkXkXkXkXkXkXkXkXkXkXkXkX",
"kXkXkXkXkXkXkXkXkXkXkXkXkXkXkXkXkXkXkXkXkXkXkXkXkXkXkXkXkXkXkXkXkXkXkXkXkXkXkXkXkXkXkXkXkXkXkXkXkXkXkXkXkXkXkXkXkXkXkXkXkXkXkXkX",
"kXkXkXkXkXkXkXkXkXkXkXkXkXkXkXkXkXkXkXkXkXkXkXkXkXkXkXkXkXkXkXkXkXkXkXkXkXkXkXkXkXkXkXkXkXkXkXkXkXkXkXkXkXkXkXkXkXkXkXkXkXkXkXkX",
"kXkXkXkXkXkXkXkXkXkXkXkXkXkXkXkXkXkXkXkXkXkXkXkXkXkXkXW.).E.R.P.I I kXkXkXkXkXkXkXkXkXkXkXkXkXkXkXkXkXkXkXkXkXkXkXkXkXkXkXkXkXkX",
"kXkXkXkXkXkXkXkXkXkXkXkXkXkXkXkXkXkXkXkXkXkXkXkXkXkXU.Q.W.Y.I.P.I I D kXkXkXkXkXkXkXkXkXkXkXkXkXkXkXkXkXkXkXkXkXkXkXkXkXkXkXkXkX",
"kXkXkXkXkXkXkXkXkXkXkXkXkXkXkXkXkXkXkXkXkXkXkXkXkXE.!.m.I.P.P.*.I I S b kXkXkXkXkXkXkXkXkXkXkXkXkXkXkXkXkXkXkXkXkXkXkXkXkXkXkXkX",
"kXkXkXkXkXkXkXkXkXkXkXkXkXkXkXkXkXkXkXkXkXkXkXkXkXkX~.i.6.Z v A J L =.D kXkXkXkXkXkXkXkXkXkXkXkXkXkXkXkXkXkXkXkXkXkXkXkXkXkXkXkX",
"kXkXkXkXkXkXkXkXkXkXkXkXkXkXkXkXkXkXkXkXkXkXkXkXkXkX9XiX4X$.&.O.G h 9.( kXkXkXkXkXkXkXkXkXkXkXkXkXkXkXkXkXkXkXkXkXkXkXkXkXkXkXkX",
"kXkXkXkXkXkXkXkXkXkXkXkXkXkXkXkXkXkXkXkXkXkXkXkXkXkXeXjXiX8X8X2X@X+.u.O.kXkXkXkXkXkXkXkXkXkXkXkXkXkXkXkXkXkXkXkXkXkXkXkXkXkXkXkX",
"kXkXkXkXkXkXkXkXkXkXkXkXkXkXkXkXkXkXkXkXkXkXkXkXkXkX8XfXfXiXyXgXwXt @X$.kXkXkXkXkXkXkXkXkXkXkXkXkXkXkXkXkXkXkXkXkXkXkXkXkXkXkXkX",
"kXkXkXkXkXkXkXkXkXkXkXkXkXkXkXkXkXkXkXkXkXkXkXkXkXkXpX-X;.wXqXgXeX%.8X4XkXkXkXkXkXkXkXkXkXkXkXkXkXkXkXkXkXkXkXkXkXkXkXkXkXkXkXkX",
"kXkXkXkXkXkXkXkXkXkXkXkXkXkXkXkXkXkXkXkXkXkXkXkXkX2XhXuXB $.=X%.v ).dX7XkXkXkXkXkXkXkXkXkXkXkXkXkXkXkXkXkXkXkXkXkXkXkXkXkXkXkXkX",
"kXkXkXkXkXkXkXkXkXkXkXkXkXkXkXkXkXkXkXkXkXkXkXkXkXkXiXiX8XiXsXtXtXtXyX;XkXkXkXkXkXkXkXkXkXkXkXkXkXkXkXkXkXkXkXkXkXkXkXkXkXkXkXkX",
"kXkXkXkXkXkXkXkXkXkXkXkXkXkXkXkXkXkXkXkXkXkXkXkXkXkXtXaXhXjXfXiXaXaX:XkXkXkXkXkXkXkXkXkXkXkXkXkXkXkXkXkXkXkXkXkXkXkXkXkXkXkXkXkX",
"kXkXkXkXkXkXkXkXkXkXkXkXkXkXkXkXkXkXkXkXkXkXkXkXkXkX:XyXqX;X_ e.6XtX*XkXkXkXkXkXkXkXkXkXkXkXkXkXkXkXkXkXkXkXkXkXkXkXkXkXkXkXkXkX",
"kXkXkXkXkXkXkXkXkXkXkXkXkXkXkXkXkXkXkXkXkXkXkXkXkXkXr.8X0Xt.  ( 6X2X} kXkXkXkXkXkXkXkXkXkXkXkXkXkXkXkXkXkXkXkXkXkXkXkXkXkXkXkXkX",
"kXkXkXkXkXkXkXkXkXkXkXkXkXkXkXkXkXkXkXkXkXkXkXkXkX+ ;.:X8X} 4 ^ 1X=Xj 6 kXkXkXkXkXkXkXkXkXkXkXkXkXkXkXkXkXkXkXkXkXkXkXkXkXkXkXkX",
"kXkXkXkXkXkXkXkXkXkXkXkXkXkXkXkXkXkXkXkXkXkXkXkXkXr.  &X8X) R T @X%Xw s } kXkXkXkXkXkXkXkXkXkXkXkXkXkXkXkXkXkXkXkXkXkXkXkXkXkXkX",
"kXkXkXkXkXkXkXkXkXkXkXkXkXkXkXkXkXkXkXkX9X4XO.* u.r.  t.2X;.'.X.&Xy.  5 4.$.8.e.r.w.kXkXkXkXkXkXkXkXkXkXkXkXkXkXkXkXkXkXkXkXkXkX",
"kXkXkXkXkXkXkXkXkXkXkXkXkXkXkXkXkXkXkX4X8X5X=.c i.r.  H @X2X2X5X:X%.& 6 4.,.9.@X&X*X9.{ kXkXkXkXkXkXkXkXkXkXkXkXkXkXkXkXkXkXkXkX",
"kXkXkXkXkXkXkXkXkXkXkXkXkXkXkXkXkX4X4X8X8X4X4.M @.=X;._.Q.O h 6 6 W.*.~ 8.$.9.@X=Xe.8.{ | kXkXkXkXkXkXkXkXkXkXkXkXkXkXkXkXkXkXkX",
"kXkXkXkXkXkXkXkXkXkXkXkXkXkXkXkX2X8X8X6X=X:Xr.Z c %X+X7._.L     E.U.~ 8.,.2.y.=X*Xw.9.0.9.} kXkXkXkXkXkXkXkXkXkXkXkXkXkXkXkXkXkX",
"kXkXkXkXkXkXkXkXkXkXkXkXkXkXkX|..X[.X.e.8.:X2X` - i &X@XA ( ;.8 > +.2.e.@X@X&X=Xy.w.&X*X,X}.'.kXkXkXkXkXkXkXkXkXkXkXkXkXkXkXkXkX",
"kXkXkXkXkXkXkXkXkXkXkXkXkXkX|.|.{.}.`...4.;X4Xq.> ; ( =X$X:X&X{ w.@X4X0X0X6X;X=Xe.w.3X<X{.`.`.Q kXkXkXkXkXkXkXkXkXkXkXkXkXkXkXkX",
"kXkXkXkXkXkXkXkXkXkXkXkXkXkXXXY.-.=.:.! [ *X2X4Xr.= ; +.:X9X;X{ @X4X8X=Xy.@X8.9.e.e.$X X/.L.U.o.E kXkXkXkXkXkXkXkXkXkXkXkXkXkXkX",
"kXkXkXkXkXkXkXkXkXkXkXkXkXrXF.n.I S V.L.>./ =X2X4Xq.= u { @X:X9.r.4Xr.{ [ ] [ } 4.+X.X(.S.M x.b.o.E kXkXkXkXkXkXkXkXkXkXkXkXkXkX",
"kXkXkXkXkXkXkXkXkXkXkXkX(.K.V M.F V.S.V v.I <.*X=X=X+.- , { @X0.8.p.=Xy.e.8.,.] ,.e.~.K.z.4 c.n.*.F kXkXkXkXkXkXkXkXkXkXkXkXkXkX",
"kXkXkXkXkXkXkXkXkXkXkXkXJ.k.3 z.F V.C.2 j.>.~ w.w.e.0.h > 9 ` } 8.y.;X&X*X0.4.d $.T.!.U.N.l.b.L Y.I kXkXkXkXkXkXkXkXkXkXkXkXkXkX",
"kXkXkXkXkXkXkXkXkXkXkXkXU.j.l.K O A v.z.C ` ,.8.8.} 8.{ 9 > 9 f [ { 9.,.{ ' O.t 6 G.K.Y.P M S U.L.J.0 kXkXkXkXkXkXkXkXkXkXkXkXkX",
"kXkXkXkXkXkXkXkXkXkXkXkXP.U K o     D P N kXy.0.8.$.,.8.#.9 b u u s _ { { [ r s D.l.h.v.o   N J.l.h.c.kXkXkXkXkXkXkXkXkXkXkXkXkX",
"kXkXkXkXkXkXkXkXkXkXkXkX=.J.G.J   @ B.G.n.kXkXe.] ' _ _ [ p - 1 , 9 i f j d 6 f G.Y S x.9 @ P A.9 P Z.kXkXkXkXkXkXkXkXkXkXkXkXkX",
"kXkXkXkXkXkXkXkXkXkXkXkXK.Z.h.M.D N.A.g.M.kXkX@.G u u f q  .OX3.k $ X X . % . # kXx.c.F V.S.I.I.z.M.C kXkXkXkXkXkXkXkXkXkXkXkXkX",
"kXkXkXkXkXkXkXkXkXkXkXkXG.z.2 z.F V.Z.2 x.kXkXY N > v Z l ^ oX3.1.r   .         kXkXU V.A.g.c.m.m.C kXkXkXkXkXkXkXkXkXkXkXkXkXkX",
"kXkXkXkXkXkXkXkXkXkXkXkXkXI.l.C S I v.l.l.kXkXA #.#.&.&.$.,.j t % .             kXkXQ K.Z.4 c.b.o.W kXkXkXkXkXkXkXkXkXkXkXkXkXkX",
"kXkXkXkXkXkXkXkXkXkXkXkX}.XXV N J L U =.kXkXkX%X4.] ,.] ,.e.w.` 5 5 5 6 5 5 5 7 q kX].-.l.x.h.S W R kXkXkXkXkXkXkXkXkXkXkXkXkXkX",
"kXkXkXkXkXkXkXkXkXkXkXkXkXkX4X%X%.6.+.kXkXkX2X&X4.{ ] <.{ { 0.} 5 a s s d s s d p kXkX .6.m.O.g kXkXkXkXkXkXkXkXkXkXkXkXkXkXkXkX",
"kXkXkXkXkXkXkXkXkXkXkXkXkXkXqX3X} w.{ kXkXkX=Xe.8.4.4.4.4.] _ _ w e s d s u 8 # # # kXkX1X/ 2.[ kXkXkXkXkXkXkXkXkXkXkXkXkXkXkXkX",
"kXkXkXkXkXkXkXkXkXkXkXkXkXkXkX+.G ` kXkXkXkXy.0.4.4.4.4.4.,._ s a a a u 8 , $ # # 5 kXkXw.H +.g kXkXkXkXkXkXkXkXkXkXkXkXkXkXkXkX",
"kXkXkXkXkXkXkXkXkXkXkXkXkXkXkXkX> kXkXkXkX&X@X2.4.,.4.,.4.$.{ [ s w 9 8 y e e e a e kXkXkXv kXkXkXkXkXkXkXkXkXkXkXkXkXkXkXkXkXkX",
"kXkXkXkXkXkXkXkXkXkXkXkXkXkXkXkXkXkXkXkXkX&Xy.0.8.8.8.8.{ ,.} _ d a f s a a e 5 e e kXkXkXkXkXkXkXkXkXkXkXkXkXkXkXkXkXkXkXkXkXkX",
"kXkXkXkXkXkXkXkXkXkXkXkXkXkXkXkXkXkXkXkXkX*Xy.y.y.e.e.r.0.8.} _ d d d s a e a 5 w e w kXkXkXkXkXkXkXkXkXkXkXkXkXkXkXkXkXkXkXkXkX",
"kXkXkXkXkXkXkXkXkXkXkXkXkXkXkXkXkXkXkXkXkXy.1X2X2X;X1X2X;Xe.] y s _ d s a a e e w e w kXkXkXkXkXkXkXkXkXkXkXkXkXkXkXkXkXkXkXkXkX",
"kXkXkXkXkXkXkXkXkXkXkXkXkXkXkXkXkXkXkXkXe.4X4X1X>X2X2X:X>X=X9.d w s d s y a a 5 6 y e kXkXkXkXkXkXkXkXkXkXkXkXkXkXkXkXkXkXkXkXkX",
"kXkXkXkXkXkXkXkXkXkXkXkXkXkXkXkXkXkXkXkX3X4X3Xw.e.&X&Xe.r.>X&X| 5 d d s a e a e w w a w kXkXkXkXkXkXkXkXkXkXkXkXkXkXkXkXkXkXkXkX",
"kXkXkXkXkXkXkXkXkXkXkXkXkXkXkXkXkXkXkX9.1X*X0.w.r.r.r.+X9.e.@X{ w f s ` d s s e w w e 5 kXkXkXkXkXkXkXkXkXkXkXkXkXkXkXkXkXkXkXkX",
"kXkXkXkXkXkXkXkXkXkXkXkXkXkXkXkXkXkXkXkX0.,._ w.@X@X@Xr.0.{ 8.] % 5 s j d s a 5 e w a e kXkXkXkXkXkXkXkXkXkXkXkXkXkXkXkXkXkXkXkX",
"kXkXkXkXkXkXkXkXkXkXkXkXkXkXkXkXkXkXkXkXkX[ { 8.9.w.w.0.9._ $ kX  % s d a e w w e 5 w kXkXkXkXkXkXkXkXkXkXkXkXkXkXkXkXkXkXkXkXkX",
"kXkXkXkXkXkXkXkXkXkXkXkXkXkXkXkXkXkXkXkXkX@.{ ] ' ' [ ' j y   kX& X   # $ 5 5 5 $ . kXkXkXkXkXkXkXkXkXkXkXkXkXkXkXkXkXkXkXkXkXkX",
"kXkXkXkXkXkXkXkXkXkXkXkXkXkXkXkXkXkXkXkXn n r r e e y e 8 : kXkXl l X X           kXkXkXkXkXkXkXkXkXkXkXkXkXkXkXkXkXkXkXkXkXkXkX",
"kXkXkXkXkXkXkXkXkXkXkXkXkXkXkXkXkXkXkXkXn z & l &           kXkX* z & &         kXkXkXkXkXkXkXkXkXkXkXkXkXkXkXkXkXkXkXkXkXkXkXkX",
"kXkXkXkXkXkXkXkXkXkXkXkXkXkXkXkXkXkXkXkXn s.m m n X         kXkXl l X X X     kXkXkXkXkXkXkXkXkXkXkXkXkXkXkXkXkXkXkXkXkXkXkXkXkX",
"kXkXkXkXkXkXkXkXkXkXkXkXkXkXkXkXkXkXkXkXz m m z l X       O kXkXl z z * &       kXkXkXkXkXkXkXkXkXkXkXkXkXkXkXkXkXkXkXkXkXkXkXkX",
"kXkXkXkXkXkXkXkXkXkXkXkXkXkXkXkXkXkXkXkXkX                kXkXkXX               kXkXkXkXkXkXkXkXkXkXkXkXkXkXkXkXkXkXkXkXkXkXkXkX",
"kXkXkXkXkXkXkXkXkXkXkXkXkXkXkXkXkXkXkXkXkX& x x z &     kXkXkXkXD , , : : , : : P.U.Y.U.U.U.W.U.kXkXkXkXkXkXkXkXkXkXkXkXkXkXkXkX",
"kXkXkXkXkXkXkXkXkXkXkXkXkXkXkXkXkXkXkXkXo z s.d.m z =   , E.Q.E.U.P.*.I U I U U U L L L U L L U I U.)._.kXkXkXkXkXkXkXkXkXkXkXkX",
"kXkXkXkXkXkXkXkXkXkXkXkXkXkXkXkXkXkXkX).Z z m m m x X   : P.U.P.m.I U L S S S S L S S L L S S L S I E.).kXkXkXkXkXkXkXkXkXkXkXkX",
"kXkXkXkXkXkXkXkXkXkXkXkXkXkXkXkXkXkXkXE.Z               o L I I U I U I I I I I I I I I I I I I P.E.kXkXkXkXkXkXkXkXkXkXkXkXkXkX",
"kXkXkXkXkXkXkXkXkXkXkXkXkXkXkXkXkXkXkXkXkXkXkXkXkXkXkXkXkXkXkXkXkXkXkXkXkXkXkXkXkXkXkXkXkXkXkXkXkXkXkXkXkXkXkXkXkXkXkXkXkXkXkXkX",
"kXkXkXkXkXkXkXkXkXkXkXkXkXkXkXkXkXkXkXkXkXkXkXkXkXkXkXkXkXkXkXkXkXkXkXkXkXkXkXkXkXkXkXkXkXkXkXkXkXkXkXkXkXkXkXkXkXkXkXkXkXkXkXkX",
"kXkXkXkXkXkXkXkXkXkXkXkXkXkXkXkXkXkXkXkXkXkXkXkXkXkXkXkXkXkXkXkXkXkXkXkXkXkXkXkXkXkXkXkXkXkXkXkXkXkXkXkXkXkXkXkXkXkXkXkXkXkXkXkX",
"kXkXkXkXkXkXkXkXkXkXkXkXkXkXkXkXkXkXkXkXkXkXkXkXkXkXkXkXkXkXkXkXkXkXkXkXkXkXkXkXkXkXkXkXkXkXkXkXkXkXkXkXkXkXkXkXkXkXkXkXkXkXkXkX",
"kXkXkXkXkXkXkXkXkXkXkXkXkXkXkXkXkXkXkXkXkXkXkXkXkXkXkXkXkXkXkXkXkXkXkXkXkXkXkXkXkXkXkXkXkXkXkXkXkXkXkXkXkXkXkXkXkXkXkXkXkXkXkXkX"
};
