/* XPM */
static char *_fe02868d0c440749dd512af64b0dfcekFPdBP4tKYzp0wu3[] = {
/* columns rows colors chars-per-pixel */
"64 64 233 2 ",
"   c #0D0609",
".  c #2C1D1E",
"X  c #2A1B19",
"o  c #331C15",
"O  c #341B1C",
"+  c #391D1C",
"@  c #291012",
"#  c #2B221E",
"$  c #292017",
"%  c #34241C",
"&  c #3D231D",
"*  c #3B2B1D",
"=  c #35261B",
"-  c #2B1E22",
";  c #251D23",
":  c #3A1D22",
">  c #351A21",
",  c #2C2322",
"<  c #26252A",
"1  c #29262C",
"2  c #2A292E",
"3  c #272525",
"4  c #322522",
"5  c #3C2324",
"6  c #342A24",
"7  c #3B2D24",
"8  c #3D2D2C",
"9  c #362A2A",
"0  c #2D2C33",
"q  c #282731",
"w  c #312E35",
"e  c #312F3A",
"r  c #2E3036",
"t  c #2E3139",
"y  c #323036",
"u  c #34333B",
"i  c #3A353D",
"p  c #3A393E",
"a  c #393539",
"s  c #3D3129",
"d  c #41261C",
"f  c #432424",
"g  c #452C22",
"h  c #43262A",
"j  c #4A2C2B",
"k  c #472B26",
"l  c #433324",
"z  c #45362B",
"x  c #4A3C2C",
"c  c #4A3628",
"v  c #513C2C",
"b  c #473734",
"n  c #553C34",
"m  c #4D2A30",
"M  c #55452D",
"N  c #544434",
"B  c #594838",
"V  c #63483D",
"C  c #64553C",
"Z  c #363540",
"A  c #393742",
"S  c #3B3B44",
"D  c #3E3D49",
"F  c #363942",
"G  c #433C44",
"H  c #4B3E42",
"J  c #413E4A",
"K  c #513E40",
"L  c #3E424A",
"P  c #3C4045",
"I  c #43434C",
"U  c #4B454D",
"Y  c #47474B",
"T  c #53454A",
"R  c #454551",
"E  c #454551",
"W  c #484652",
"Q  c #464953",
"!  c #4A4A56",
"~  c #4B4B55",
"^  c #4D4D59",
"/  c #5B4A53",
"(  c #504E5C",
")  c #524B54",
"_  c #4E515C",
"`  c #52535D",
"'  c #56595E",
"]  c #59535A",
"[  c #64555B",
"{  c #665759",
"}  c #674E4A",
"|  c #545562",
" . c #595662",
".. c #565964",
"X. c #5A5B65",
"o. c #5B5E6A",
"O. c #565B6A",
"+. c #565868",
"@. c #625C64",
"#. c #6A5B65",
"$. c #725E60",
"%. c #5D626C",
"&. c #5D6268",
"*. c #5E6371",
"=. c #5E6B73",
"-. c #62646D",
";. c #6B646B",
":. c #69666B",
">. c #796867",
",. c #7F706C",
"<. c #626572",
"1. c #656A74",
"2. c #6A6C75",
"3. c #666C79",
"4. c #6A6E7A",
"5. c #6C6671",
"6. c #736C73",
"7. c #7A6E75",
"8. c #6C727D",
"9. c #69747A",
"0. c #73747D",
"q. c #777679",
"w. c #716148",
"e. c #806969",
"r. c #88746C",
"t. c #8D7A73",
"y. c #877778",
"u. c #957B73",
"i. c #93786D",
"p. c #98847A",
"a. c #88837C",
"s. c #6E7581",
"d. c #6E7982",
"f. c #717682",
"g. c #737B85",
"h. c #7B7D85",
"j. c #757D89",
"k. c #7A7E8A",
"l. c #847D82",
"z. c #8C7F84",
"x. c #937F81",
"c. c #76818B",
"v. c #7A828C",
"b. c #7C8488",
"n. c #7C8591",
"m. c #7E8A94",
"M. c #7E8A98",
"N. c #7E9197",
"B. c #848185",
"V. c #8C8484",
"C. c #83848C",
"Z. c #85898E",
"A. c #8A8B8C",
"S. c #8B8789",
"D. c #9C8B83",
"F. c #94888A",
"G. c #818692",
"H. c #838B95",
"J. c #8B8E94",
"K. c #848E9A",
"L. c #898F9A",
"P. c #8B8794",
"I. c #938D92",
"U. c #8C9294",
"Y. c #86929B",
"T. c #8A939C",
"R. c #889498",
"E. c #939192",
"W. c #94949A",
"Q. c #939A9E",
"!. c #9B9799",
"~. c #96918F",
"^. c #A38C8B",
"/. c #A4918C",
"(. c #A89288",
"). c #A79796",
"_. c #B29E9A",
"`. c #B1998D",
"'. c #B4A39B",
"]. c #B9A598",
"[. c #B5A89D",
"{. c #8693A2",
"}. c #8B95A1",
"|. c #8D9AA4",
" X c #8C9BAA",
".X c #939DA4",
"XX c #999DA4",
"oX c #929EAB",
"OX c #9796A1",
"+X c #949FB0",
"@X c #A29CA1",
"#X c #A89FA2",
"$X c #B29EA0",
"%X c #95A1A5",
"&X c #9AA3A6",
"*X c #94A3AB",
"=X c #9BA5AB",
"-X c #9DA9AD",
";X c #95A5B2",
":X c #99A6B2",
">X c #97A8B1",
",X c #9CABB3",
"<X c #9DADB9",
"1X c #9FB0B7",
"2X c #9FB1B9",
"3X c #8FA1A5",
"4X c #ABA4A3",
"5X c #A2ABAE",
"6X c #A7A7AA",
"7X c #B5A8A5",
"8X c #A2ADB3",
"9X c #A3B0B4",
"0X c #A3B3BC",
"qX c #A8B5B8",
"wX c #BCB5B4",
"eX c #BCB0AD",
"rX c #C2ADA3",
"tX c #C3B2AB",
"yX c #CCBBAC",
"uX c #C7B5A6",
"iX c #C7B9B8",
"pX c #CFB7B1",
"aX c #C6B19E",
"sX c #D4C3AB",
"dX c #CEC2B9",
"fX c #D7C8B8",
"gX c #E3CDBF",
"hX c #A5B7C1",
"jX c #D6CAC4",
"kX c #DBD2CA",
"lX c #CCC1C7",
"zX c #E3D6CA",
"xX c #F2E4D5",
/* pixels */
"< < 3 < < 3 1 1 0 r w u S i Z Z Z D Z A D A Z ; - . 3 X X $ # # # # 3 # # 3 # 6 # # # 3 X q A A S Z A A A A Z Z Z Z Z 0 w q q w ",
"3 < < < 1 1 1 0 0 u u S S S A A D D D D J J J ; - - # # 6 6 3 3 6 3 6 # 6 6 6 6 6 # # 3 - w I D J D D D A D A A D A A e e e q w ",
"< < < < 2 2 2 2 0 S Z S J J D J J J D R ! J J ; 3 # # 3 6 6 6 , , 6 , # = # , 4 # # 6 , . w U R R R J J E L Q L E J J D D A e e ",
"< 1 < q 0 2 0 r t D D I ! R J R ! J ^ R ! ^ J q - , 6 6 # 4 6 6 9 9 6 6 7 6 s s s s 9 6 X a ^ ~ ( ( ! ( ! ! ! ! R R ! E J J Z e ",
"< 1 2 0 0 2 0 y w S D J ! R J ! W ! ! ! ( ( J ; , 4 9 7 6 7 s s 6 6 $ 6 6 = = $ # # = # ; m  .+.| | ^ ` ` ^ ^ ^ ^ ! ! ! E R A A ",
"< 0 2 0 y y r u u J J I ! R ! ^ ` ` +.|  .+. .> , 4 % 6 % % = = * * * * * 7 z 7 b b z 6 ; G o.+.+.+.+.| | | | _ | ( ^ ( ! R A D ",
"< 0 0 0 y y y i A I R R ! ^ _ _ +...+.+.+.X. .q - 4 8 z 7 z z x N z M z l x N N B N b - ; G <.o.O.O.O.O.+.+.+.| | | ( ( ( ! D D ",
"< 0 0 y u y u i A ~ ^ ^ _ | | +.@.%.o.%.%.%.#.9 - 4 7 b l z z s s * * l * * * = = O O > > G 5.4.<.*.<.O.O.o.+.o.+.+.+.| | | J J ",
"1 w 0 w e i Z A D ~ | | | o...o.*.<.<.O.*.<.5.w 4 # o = $ $ o $ $ = % = d * l g * z * 4 - G 4.4.s.<.3.<.*.*.*.O.*.O.+. . .` W W ",
"1 w w u u A Z S D ( ` ......o.<.<.<.3.s.<.s.5.e - 5 * l x x M M N N B N M C M B x M * 5 - H f.4.s.s.s.3.3.3.<.O.%.o.o.+.o.+.! ! ",
"q e u i S S A J I ` | ..o.o.<.1.<.3.3.3.s.s.6.8 . = l C M C C B M M B M M w.c V c N * 7 > J j.j.s.s.s.s.s.s.*.3.3.*.o.o.o.+.! ( ",
"2 a i S G G J I I ' ..o.<.*.<.3.s.d.d.8.s.s.f.b # & * M M M M M M c d M v c d c l g 5 5 > J k.k.g.f.f.s.s.s.s.s.4.<.<.<.<.O.! ( ",
"1 u A A J I J I R  .o.<.4.3.3.8.8.9.8.8.0.f.h.G > 5 5 f d + o % o = + o o o o o o + f h > T l.k.j.k.k.k.k.j.g.s.s.4.4.<.<.o.( ( ",
"1 a A G J I J U R ..<.1.3.4.3.8.d.9.8.d.f.j.l.H - : 5 + + & f k k & j c k c m n n c + h > / P.G.K.k.n.k.k.k.j.j.f.s.f.4.<.<.( ( ",
"1 i G S I W E ! ! o.<.1.3.8.8.g.j.j.g.j.g.C.z.T X k f j n m j n B d V V M } } V } n d h > / z.n.n.n.k.k.k.k.k.k.j.f.f.f.s.5.( +.",
"1 p J G W ~ W ^ ! o.<.4.4.s.g.g.g.j.c.v.v.k.C./ @ f + k v j d j g & g g d d d d + & f f > / z.M.n.n.G.M.k.j.k.l.f.f.f.3.o.*.( +.",
"1 i I I W ) W ^ ! O.1.1.0.f.f.g.d.g.c.c.n.b.C./ @ h f : : f f f f f : h f f f f f m m m h / P.L.L.H.K.L.k.j.j.g.g.s.*.s.s.*.| O.",
"1 S I S J W U ~ ! o.1.5.q.f.g.v.k.v.j.h.c.b.A.] > m : h f f h : : f : : : : : : + : > : @ / W..X}.H.H.R.H.G.G.n.n.j.s.g.s.<.O.*.",
"< S W I W ) ~ ` ( o.2.1.0.f.f.j.v.b.v.G.a.B.V.Y @ : w b 8 h 9 h 8 8 b b b H H T K K / / K 5.OX.X%X}.}.T.T.T.}.T.L.n.g.k.f.s.s.*.",
"1 i W U ^ ` ^ | | -.4.4.0.j.k.j.G.v.v.n.C.:.w T K K / h H S.F.I.I.W.I.I.I.W.W.!.W.@XOX@XOXOX+X*X*X.X.X}.|.OX}.K.{.G.k.K.k.s.*.s.",
"2 i Q Y ^ | ^ .. .%.0.8.g.j.H.b.G.n.n.R.Z.` ] ).F.^.pXz.N q.&X&X6X&XQ.W.XXXXXX%XXX=XQ.@XQ.XX*X=X%X|.|..X%X.XL.L.+X Xk.k.l.j.s.s.",
"2 u ~ E ` | | ....%.f.d.g.c.H.H.T.R.N.|.T.2.e l.$X).iX_.a 6.&XQ.Q.Q.T.J..X.X.X*X.XoX.X.X.X=X,X-X*X.X.X=X*X.X|.oX XM.k. Xz.j.s.s.",
"1 u ~ Y _ | ` | X.%.0.j.c.m.H.R.Z.H.N.R.R.Q.0.#.7./.7X~.] a.&X.X%X%XQ.R..X.X*X%X*X3X.X%X=X=X*X-X%X%X=X*XXX.X%X*X X{.M.+Xk.j.s.s.",
"q i ^ ! ^ +._ +.o.&.0.9.m.R.C.G.C.J.R.R.U.U.E.V.N u.kXdX>.V.&X%X%X%X|.R.%X%X>X>X3XQ.=X&X=X&X=X=X-X%X=X=X,XXXoXXX X Xk.+Xz.s.+.s.",
"1 e ~ ( ^ O.+.| %.o.8.g.n.H.b.A.U.E.A.a.a.!.p.p.[.eXfXuX>.a.V.Q.3X%X.XJ..XXX%X%X%X%X%X5X5X&X&X-X-X&XXX8X8X%X.X.X XL.K.OXK.k.3.s.",
"1 w ~ ) ^ ..O._ o.%.8.g.b.C.U.W.I.S.~.wXfXfXsXuXsX[.[.[.D.,.a.@X%X%X.XR.XX5X&X=X&X&X&X&X5X&X-X-X-X8X8X-X=XXX.X=X+XL.K..XL.f.4.s.",
"2 0 ) ^ ^ +.o.` o.&.2.6.g.b.B.h.~.eXjXfXsX[.sXzXfXsX`.(.p.>.~.@X=X%X=XQ.Q.&X5X&X6X5X5X5X5X%X-X=X&X&X=X=X.X.X.X,X+XL.L..XP.s.3.4.",
"0 2 U ` Q | +._ ....:.:.q.6.W.wXjXdX[.p.[.aXdXxXxXgX[.(.t.p.'.~.&X-X%XXXqX5X5X5X9XqXqXqX9X-X-X-X5X.X=X5X-X,X8X8X+XP.L.|.K.f.0.f.",
"2 2 W ' I ^ ` ^ |  .-.6.7.4XwXeXXXz.y.>.[.sXfXkXfXsX].p.].(.eXF.Q.%XQ.%X5X%X-X%X8X-X5X8X-X>X=X5X=X-X,X*XoX=XoXoX XM.K.{.G.s.s.j.",
"0 2 W  .W ^ ` _ o.] -.@.#XiXz.:.q.C.y.a.[.sXuXdXdXp.t.[.sXp.[.a.U.R.J.Q.%XQ.3X3X=X.X.X;X3X3X*X,X,X3X%X,X8XoX*XoX{.M.k.k.k.*.O.*.",
"9 1 U ` ~ `  .` o. .@.{ iXwX7.B.B.q.r.[.sXsXsX[.[.(.r.u./.,./.~.4X=X%XQ.,X1X*X-X;X:X,X2X2X1XqX0X0X,X0X0XhX0XhX;X:XoX+X{.{.s.*.3.",
"2 2 I ` R ^ ` | -.o.] #.iX!.7.y.q./.tXsXsXsXsXdXaX(.a.D.t.t.r.y.A.A.U.~.R.%X1X>X,X>X,X<X>X*X,X0X,X0XhXqXhX;X2X0X;X<X<X+X+Xs.O.s.",
"2 < N ( U ~ | ..X.5.@.l.iXy.y.,.'.fXzXgXsXyX].p.e.>.y.u.i.p.p.).4XiXdXiX).A.=X-X>X>X*X>X2X0X1X2X2X2X0XhXhX2XhXhXhX2X;X+X Xs.s.=.",
"2 < F ^ U ~ | ` ` <.@.P.iX,.;.).jXxXgXaXyXaXu.p.p./.'.p.(.uXfXkXkXdXdXtXtXA.T.-X>X*X>X1X2X2X>X0X2X0X0XhX2XhXhX2XhX>X+X;X+Xs.s.s.",
"r 1 i ~ I W ( ` ..1.( I.lX6.[ ).jXxXsXp.`.i.i.(.]._.wXtXjXkXjXwX6X~./.yXiXA.%X-X*X>X>X9X2X1X1X2X2X2XqX1X2XhX2X2X<X;X X;X X3.3.<.",
"w 1 p Y G ~ ) ' ..o.o.5.6XiX#X_.tXjXaXu.p.i.t./.'./.lXkXdX7XE.E.&Xa.7XjX).A.8X>X>X,X,X8X1X1X0X>X2X1X1X1X2X2X2X<X;X;X X X{.*.3.3.",
"0 q u I P ^ ` ` X.@.<.G.6.S.)./.tXfX].u.e.t.y.).#X6X7X&XS.S.E.Q.5Xl.7XiXV.A.8X:X,X,X0X0X,X,X,X9X2X2X2X2X>X>X>X;X+X X X X{.*.s.4.",
"q 0 u L P Y ^ )  .-.%.k.A.5.{ ^._.pXpX`.>.>.y.F.S.A.A.Z.W.Q.U.OX6XP.W.7Xl.W..X*X*X:X*X,X,X*X%X,X<X2X<X>X>X>X X X+X{.+X+X{.+.<.5.",
"q 0 F I L I ^ ) ( -.o.8.h.l.] u.`.pXpX].r.V.@X!.U.T.T.T.XXP.T.%X=XZ.4X4XB.W.|.*X*X,X*X%X*X*X*X*X X>X,X>X2X>X{.|. X X+X+Xk.+.<.s.",
"t 1 u S P R W ~ ( ` ..8.g.k.#.[ x.].pXrX7.F.Q.T.W.}.R.R.T.H..X*XXXh.4X4Xq.OX}. X XY..X*X|.>X*X*X3X X>X>X;X X{.{.M.M.M. Xk.| <.s.",
"0 < u S I Q L Q Y E L =.9.0.f.T $.^.rX^.$.z.OXL.T.L.L.K.G.H.R.%X-XJ.!.4XZ.XX|.Y.|.Y.3X%X;X|. X*X|. X:XoX{. X{.{.M.M.M.M.j._ s.s.",
"1 1 w S L E L S L L Q &.1.3.4.-.G x.x.i.[ x.OXz.v.H.n.k.G.H.b.Q.0.q.6X6XS.Q.T.|.Y.Y.Y.{.{.{.{.|.|.|.|.{. X XK.M.M.M.M.M.s.+.*.*.",
"6 1 w b L I L D L _ ' &.&.9.3.4.H #.x.e.[ 6.k.j.g.g.g.d.k.v.c.m.&.  X.E.U.Z.R.Y.m.N.R.Y.M.M.{.N.M.K.{.{.L.L.K.K.{.M.k.M.s._ +._ ",
"2 2 0 y S I I L N ) ' &.2.9.9.g.5.K e.x.#.k.g.j.m.m.c.j.n.j.9.c.9.&.-.W 1.&.L =.c.c.c.n.M.j.n.M.M.c.n.n.G.{.M.k.k.k.j.s.O.^ +._ ",
"2 2 2 r F I I p P ~ ' &.<.4.g.f.7./ e.y.#.J.m.N.R.R.R.N.T.Y.N.d.c.b.2.2.2.-.%.s.c.d.g.g.j.g.d.j.j.d.g.g.f.f.f.s.8.4.3.3.*.| ^ ^ ",
"u y r r u S I p a ` ' ' o.4.f.k.5.#.y.$.6.P.T.T.Z.N.N.R.Y.R.T.8.9.c.=.g.J.R.K.H.K.H.v.m.k.n.n.k.c.j.f.d.g.g.s.f.4.3.+.+.| J ! ^ ",
"2 w r y u i i y p ~ ..' X.-.1.h.5.#.x.>.6.G.m.m.b.b.h.C.T.k.c.c.d.d.d.c.9.8.j.b.c.n.d.n.k.j.k.g.j.f.f.f.g.g.g.g.f.4.O.o.+.| J ( ",
"2 2 r r y u y u y I &.&._ X.2.0.o.#.F.>.#.k.j.c.0.q.0.f.k.g.g.j.v.s.3.d.c.g.c.g.9.9.0.d.j.j.f.g.d.s.s.d.s.s.g.f.0.4.o.+.+.^ J | ",
"0 2 1 r r r y p u E ' -.' &.1.:.-.) y.#.#.g.j.b.h.h.0.b.C.h.b.h.c.c.3.c.m.m.c.0.9.9.3.8.4.8.9.1.3.8.3.3.8.3.3.3.s.<._ | ! ~ W ) ",
"< 2 1 0 0 2 r 0 r u ~ ` _ ..-.=.6.] >.[ #.f.9.g.b.g.h.H.h.b.k.j.0.g.g.v.g.g.c.d.9.j.j.f.9.8.8.4.4.3.1.1.3.=.%.o.%.o.( ` ~ W I ! ",
"1 1 1 0 0 0 0 0 r p ! Q ~ ^ &.X.&.X.#.#.@.<.-.9.1.3.g.f.4.4.8.g.c.c.c.g.8.0.9.<.1.%.2.8.4.2.9.0.4.3.<.&.&.%.%.%.-...( ( ~ J G I ",
"< 1 1 0 y y p p i P ^ Q ~ ` X.' ` @.[ >.@.o.3.9.:.-.%.&.-.4.&.&.=.2.d.9.1.9.=...*.%.4.<.<.4.8.1.%.3.%.%..._ ..<.%...! ~ ~ S S I ",
"r 0 0 0 r r u u t t u S P L I I ~ Y U 7.o.X.%.&.1.&.%.1.%.8.1.1.&.&.=.1.=.-.-.&.X.-.1...X.&.%.%.X.X.&.-.X.' ' X..._ Q ^ ~ S i i ",
"1 1 2 1 2 2 y y 0 t u u u r t p p u i #.U u L R ! ! _ _ ' &.&.%.-.&.-.1.1.1.1.&...-.=.` ..' ........' ' ...._ _ ` Q I Y U S u u ",
"1 2 2 2 r y y r w e t e t 0 r r u y i #.U u F F S S L ! Z L Q L L Q Y Q ^ _ _ _ ` ..' ' | ` X...' X.' ~ ( ) ~ ^ ~ I S I D F i i ",
"1 1 2 r 2 2 2 2 0 0 t 0 r r r 0 2 1 2 e 0 S S L L I L Q I S L L S S L F u u F F P L D P L L L L I Y W W ~ ~ ~ I I I S S p u u 0 ",
"2 2 2 2 < 2 2 < 2 0 0 2 0 w y r r 2 2 1 y p F S L L S Q L I S t t P D u u F S i Z S S F i F u Z u y 0 w t u u Z p p F F u t r r ",
"2 < < 2 < < < < 0 1 2 2 2 0 0 2 r y u a i i i F L L L S Z L L Z p P u < 0 t t t u i t u u u t Z p u u u u t r r 0 0 0 0 2 1 2 2 ",
"< < < < 2 < < < 2 < 2 2 2 2 2 0 y y y i p u y 0 i L S S S F S F S F i u w e u u t 0 0 0 r r 0 t 2 0 0 0 0 0 0 0 0 2 2 2 2 0 2 2 ",
"< < < < < < < < 1 1 2 2 2 2 2 y r y w y u y i u F i t F Z Z u S i 0 t u e t u 0 0 0 t 2 0 0 0 0 y 2 2 2 2 0 2 2 1 1 2 1 < 2 < < ",
"< 3 < < < < < < 2 1 1 1 2 0 r 2 0 y 0 0 y y u F F t F u u Z D p 0 y w 0 0 0 y 0 0 y y 2 0 0 0 0 2 0 2 2 0 0 1 2 2 2 2 2 1 < < < ",
"3 < < < < < < < < 1 1 < 2 2 2 2 2 0 0 y r y t t 0 0 t t u 0 S 0 y 0 0 0 0 w y 0 0 0 0 y u y y 0 2 2 0 2 2 1 < 1 0 0 2 < < 2 q 2 ",
"; < 3 3 < < < < < < < 1 < 3 1 1 2 0 3 r r y 2 2 q 0 r 2 0 u 0 w w 2 2 0 2 0 0 0 0 2 2 2 0 r y 0 1 2 2 2 < 1 q 2 0 2 0 2 < 0 0 1 ",
"3 ; 3 3 < ; < < 3 < 3 1 < 1 1 3 < 3 1 2 1 2 < r q 0 0 q t 0 u 0 0 r 0 0 2 2 2 2 2 0 2 1 < 1 0 < < < < < < < < < < < < 1 1 < < < "
};
