/* XPM */
static char *result[] = {
/* columns rows colors chars-per-pixel */
"64 64 256 2 ",
"   c #030202",
".  c #0B0103",
"X  c #060A07",
"o  c #03010B",
"O  c #0D010B",
"+  c #130103",
"@  c #13020C",
"#  c #1A050B",
"$  c #091008",
"%  c #050517",
"&  c #0B0012",
"*  c #140213",
"=  c #1C0214",
"-  c #1C0A14",
";  c #140518",
":  c #1C021A",
">  c #1B0A1B",
",  c #1C1319",
"<  c #26080D",
"1  c #220315",
"2  c #23021C",
"3  c #290719",
"4  c #230A1C",
"5  c #2B0A1C",
"6  c #330A1D",
"7  c #24141A",
"8  c #1E0821",
"9  c #1D1520",
"0  c #240322",
"q  c #2B0424",
"w  c #240C23",
"e  c #2B0B23",
"r  c #2D0429",
"t  c #250C2B",
"y  c #2C0C2C",
"u  c #340627",
"i  c #340B2C",
"p  c #3A0B2D",
"a  c #281525",
"s  c #38152B",
"d  c #33192C",
"f  c #290E32",
"g  c #350B34",
"h  c #360A36",
"j  c #3B0C33",
"k  c #3B0D3B",
"l  c #3C1334",
"z  c #391737",
"x  c #3C123C",
"c  c #38202F",
"v  c #47122E",
"b  c #440A35",
"n  c #440D3C",
"m  c #421434",
"M  c #431C35",
"N  c #42143B",
"B  c #48183A",
"V  c #4B1C3C",
"C  c #521A39",
"Z  c #452539",
"A  c #4D223D",
"S  c #3F0D40",
"D  c #3D1443",
"F  c #490C42",
"G  c #530C45",
"H  c #421443",
"J  c #4B1443",
"K  c #471B47",
"L  c #4B1A43",
"P  c #521445",
"I  c #531B45",
"U  c #5C1944",
"Y  c #55134B",
"T  c #5B144C",
"R  c #541C4C",
"E  c #5C1A4C",
"W  c #4F1D59",
"Q  c #591853",
"!  c #5D1C51",
"~  c #63174B",
"^  c #641C54",
"/  c #6A1856",
"(  c #661D5B",
")  c #6B1C5B",
"_  c #771C5D",
"`  c #4A2647",
"'  c #572448",
"]  c #4D2953",
"[  c #5D2354",
"{  c #582658",
"}  c #64244B",
"|  c #642354",
" . c #64255A",
".. c #6A2759",
"X. c #72265B",
"o. c #742B5C",
"O. c #69345B",
"+. c #733057",
"@. c #5C1F64",
"#. c #6A1B65",
"$. c #781D67",
"%. c #5D2E64",
"&. c #672667",
"*. c #6C2363",
"=. c #6B2C63",
"-. c #742463",
";. c #742B63",
":. c #7B2B63",
">. c #77266A",
",. c #7C2C6B",
"<. c #6C3467",
"1. c #733263",
"2. c #793669",
"3. c #782B74",
"4. c #6D3076",
"5. c #7C3372",
"6. c #7A387A",
"7. c #764376",
"8. c #8F1B71",
"9. c #852766",
"0. c #882163",
"q. c #842C6D",
"w. c #952D6E",
"e. c #83336C",
"r. c #8A356C",
"t. c #85396C",
"y. c #94386B",
"u. c #842C72",
"i. c #8B2B74",
"p. c #882978",
"a. c #942C78",
"s. c #833372",
"d. c #8C3375",
"f. c #8C347B",
"g. c #873979",
"h. c #93347C",
"j. c #963878",
"k. c #86447C",
"l. c #94417E",
"z. c #A24173",
"x. c #7C3285",
"c. c #8D2E82",
"v. c #952D83",
"b. c #8B3785",
"n. c #923284",
"m. c #943C84",
"M. c #9C3B85",
"N. c #99388A",
"B. c #8B3694",
"V. c #993C96",
"C. c #A43B88",
"Z. c #B6398C",
"A. c #A63D96",
"S. c #AA3CA4",
"D. c #8A4889",
"F. c #934384",
"G. c #984787",
"H. c #9C428C",
"J. c #8C4992",
"K. c #994696",
"L. c #A3438B",
"P. c #A44689",
"I. c #AB448E",
"U. c #B34C8C",
"Y. c #AC4491",
"T. c #AC4A94",
"R. c #A6479A",
"E. c #B74997",
"W. c #A35199",
"Q. c #B95399",
"!. c #9C48A3",
"~. c #9E50A8",
"^. c #AA48A6",
"/. c #B54BA7",
"(. c #BB4BA2",
"). c #A856A6",
"_. c #BD51A3",
"`. c #B654A8",
"'. c #B949B4",
"]. c #AE53B2",
"[. c #B958B5",
"{. c #9F62A5",
"}. c #B662AA",
"|. c #BA63BB",
" X c #C4489D",
".X c #C2519C",
"XX c #C44CA7",
"oX c #D44CAD",
"OX c #C353A3",
"+X c #CA55A5",
"@X c #C457A8",
"#X c #CB54AB",
"$X c #CB5BAB",
"%X c #D559AB",
"&X c #C54DB7",
"*X c #C553B3",
"=X c #CB54B3",
"-X c #CB5AB4",
";X c #C758BB",
":X c #D35BB3",
">X c #D95CB3",
",X c #D657B9",
"<X c #DC5DBC",
"1X c #E45BBB",
"2X c #F15EBE",
"3X c #CC62AB",
"4X c #C564BD",
"5X c #D963B7",
"6X c #DC63BC",
"7X c #E764BB",
"8X c #BF5DC2",
"9X c #BD66C2",
"0X c #CB59C5",
"qX c #D45AC7",
"wX c #DB5CC3",
"eX c #DA5CD8",
"rX c #E35CC4",
"tX c #E75BC8",
"yX c #F25DC9",
"uX c #EA5DD5",
"iX c #F55ED3",
"pX c #C768C6",
"aX c #CD6ECC",
"sX c #D865C7",
"dX c #DD64CC",
"fX c #D56BCC",
"gX c #DC6BCC",
"hX c #D972CC",
"jX c #DD64D4",
"kX c #D768D7",
"lX c #DC6BD3",
"zX c #D773D6",
"xX c #DB72DC",
"cX c #E363C4",
"vX c #EB63C4",
"bX c #EA64CC",
"nX c #E568C9",
"mX c #F363C5",
"MX c #F566CD",
"NX c #E463D3",
"BX c #EB64D4",
"VX c #EA6AD6",
"CX c #EC64DB",
"ZX c #E56ADA",
"AX c #F363D4",
"SX c #F467D9",
"DX c #E375D8",
"FX c #EE5DEF",
"GX c #DC6FE4",
"HX c #E86AE5",
"JX c #F369E7",
"KX c #E877E8",
"LX c #F375EA",
"PX c #EF6DF3",
"IX c #F879F3",
"UX c #F481EC",
/* pixels */
"=.H X - L.;X).>.C q t W ~.zXgX3X`.w.y.U.OXXXOXQ.a.~ N l p b F k D n b b s j E q.U.OX(.Q.U.y.w.OX#XgXhX].%.f 8 B  .R.0XE.9 X b ..",
"B :.C . z [.fXjXaX4XpXUXUXLXgX>XE.OX%X<XqXqX=XOXOXP.E j l N n S k H N N p E G.OX(.&XqXqX5X>XOXY.:XnXLXIXKXzX9XaXzXgX-X` o l :.' ",
"X C 9.s & 7.jXkXNXNXVXMXiXrX#XI.#X1XBXPXKXxXfX*X(._.d.G n x R 5.,.[ D x n q.E.E.*XsXKXHXJXuXwX$XC.E.wXMXiXMXBXCXkXeXG.  4 +.' @ ",
"-   m M   z lXdXvX>X7X5X$XI.i.I.rXSXLXKX9X].9X0X/._.I.^ h D ^ I.Z.-.x h Y C.(.(.0X|.].8XKXIXLX<XQ.f.M.+X%X7X:XvXuXnXO.X d s . 4 ",
"H.z &   X w jXuX1Xh.o.o. .Q >.<XuXUXpX=.q r #.^.V.C.T.) g x T C.Z.) D x T I.E.A.'.3.g 0 W ).UXZX7Xf.T *.o.;.i.XXAXgXz   . & f 5.",
";X[.6.z t @.lXVXrXq.j a r R T.7XLXaX{ . 4 i F x.c.I.P.E g H Y M.Z.Q D h J G.Y.a.b.G i 7   ` pXIXmXOX .r w y ( 6XnXxX3.h H =.).-X",
").jXjXhXhXlXxXgX<X:.4 - 1 U @X7XKXJ.= @ V T >.<.C.P.1.j l I ( m.H.*.R z u X.H.C.1.-.^ A # O g.KXmX$X^ 5 a 4 T #XgXKXjXfXhXkXlX`.",
"&.NXjXsXVXSXgXBX#X| 4 - u ;.-XAXKX=.. d ) N.).I / ^ p q x U >.C.H.,.! N r g E ..j K.C.) Z . J DXNX:X;.p - = } E.SXsXZXAXdXkXjXF.",
"v hXNXvX1XrX1X$Xj.~ P T | } 3XbXJX` & B | T.@XP + : 0 k ) _ n.h.h.m.#.*.n 2 3 # 6 ).^./ C 1 i aXVX$XX.) T J ~ r.+X>X7X:XvXNXgX} ",
"q 4XnX%Xh.u.o.| ~ X.G.OX+X.X7XwXHX%.  z ..N.^.K.| J Q &.>.,.k.E G g.5. .4.&.F ! N.].N.1.Z . K hXtXvX.X+XOXP.:.E | o.u.h.%XZXzXL ",
"f pXVX7X:.p 4 4 J P.cXBXtXmXbXCXaX7.@ w 3.p.V.R.V.b.c.3.3.F.r.~ X.:.j.f.>.c.b.J.^.V.a.$.d . <.kXCXAXrXAXAXgXQ.P : w i ;.5XCXxXK ",
"W UXAX5Xo.w - - Q XXuXKXKXDXnXNXkX#Xu . J i.u.i.v.c.f.m.j.9.-.j.j.9.i.h.h.c.b.b.6.u.a.Q o 5 E.GXlXdXzXKXLXNX,X/ - a 8 ..3XCXUXx.",
"~.IXAX@X{ y 2 u X.#XBXxXJ.[ 1.D.;XCXK.$ X s +.i.s.r.e.t./ _ j.f.q.g.q.~ :.l.r.r.5...C O X 2.BXqXJ.<.{ x.DXBX6X:.5 5 : [ .XiXLX[.",
"zXZXcXI.Q Y ^ X...E.mXDX .. O % z K.fXD.# + 1 l ' A V 6 m =.5.>.s.,.1.V 6 v ' C L 5 + * 2.pX^.] O O   N hXbX+X:.X.} J E h.rXZXDX",
"sXgX#Xu.q.T.@X-X`.7XMXnX1.  , w   t K.qXY.[ i ; 0 2 1 = M C G j.n.~ v Z - * 2 0 : r ' m.qX^.D   1 ,   R gXMX7X3X;X+XT.u.0.+XsXsX",
"$X:XZ.I.5X7X7XSXbXcXuXlXD.& 2 :.G   a R.;X'.R.6.>.2.I 3 # 5 1.g.j.e.u 1 * L 6.;.5.H./.*X'.K   v 9.s o 7.fXeXrXbXBXmX1XsXI.C.:X:X",
"`.Q.#X1XCXLXKXKXJXDXaXNXpXz   P w.B & %._.uXrX;X=X!.4.J e j d.i.u.h.P 1 ` #.V.;X,XtXiX=X7.& l 9.U   4 '.ZXkXHXJXKXKXKXZXrX%XE.Q.",
"y..XrXSXUXaXJ.=.] %.6.*XCXK.t   V ` > x L.rX,X$XmXXXA.5.0 L g.h.b.h.' 0 2.A./.2X$XoXBXT.B 4 Z `   > m.VX0XD.{ `  .D.aXKXJXrX#Xj.",
"y.>XuXIX4X{ - . O   @ u K.0XK.a O , O 0 F.>X X0.7XyXwXg.; D e.n.n.s.` = 5.oXvX7X_ Z.<XF.u @ 4 & w b.fXK.l :   .   - ` }.IXuX:Xz.",
"U.<XJXKX=.. + z M z e   # D.0X^.=.z 2 i g.$XmX+X9.XXwXF.2 i 2.a.v.t.Z 2 f.qX=Xu.OX7X<Xf.r 2 g [ R.0XW.a X 7 d C c # . R GXIXcXU.",
"Q.qXKX|.e 7 V / ..X.3.H . 1 R.&X*XC.F.g.B.!.&XyXR.oXtXH.u # O.p.i.1.< 4 G.rX,XL.7X=X^.V.g.g.H._.*X^.j . z O...-./ ' 4 0 ).KXeXOX",
"XX0XGX].r i ^ v.R.n.p.p.s + [ '.yXrX<X#XK.x.A.,XcXvXcX`.O.@ Z ;.,.Z @ ] `.rXiXrX2X^.B.V.$X5XcXbX&X<.@ d ,.9.n.R.N.| u r J.GX0XXX",
"XX=XfX4X#.n -.).*X/.L.u.O.# g K.wX<X X7X&XA.V.h.M.E.*X'.H.i O A ' @ 2 b.'.#XE.L.f.N.V.'.7XoX,XrX/.N @ ' u.N.'.'.}.3.F #.[.fX=X.X",
"E.#X'.0X^.b.4.J P J.R.i.r.M ; 6.sX_.0.+XvX1Xf.g y D 5.'.qXk.@ # 1 X 2.;X'.b.L f f 3.XXyX7X8.Z.sXH.0 i e.p.K.!.W n =.3.!.8X#X+XE.",
"w.+X(.^.L.v.M./ + | V.c.r.A 2 5.=XmX7X0.A.cXj.y # +   d K.eXJ.- # 5.kX^.z   + < @ f.sXE...$XAX1Xh.r M e.c.V.;.@ C h.h.V.^.(.#XC.",
"^ G._.Q.A.I.P.| : P N.c.e.A 1 2.!.&XmXXXoXvXQ.D * } B   w G.fX[.{.fX/.l . M [ - u R.rX>X XtX&XK.F.2 s t.c.V.Y ; U P.L.C.E.OXP._ ",
"l E d.I.T.P.1.j 8 Q b.c.:.A 5 I >.A.,XrXrXbX*X4.  B q.V . m *XeXeXqX'   d ,.I o @.`.cX1X1XtXS.4.R e m r.i.c.*.0 u o.P.U.T.j.^ x ",
"z b P ^ ) T j q k =.3.h.t.u = 2 L 2.b.m.K.`.'.'.d   C 1.5 O D.ZXSXH.& : 1.L o 4 !.;X*XP.j.F.u.} = > 3 o.h.p.&.H q u P ) / P j l ",
"p N l g g g h N #.=.u.d./ m M = : 0 = : t O.K.0XR.w . u a X ` VXxX%.  w v   , h.qX/.;.d ; ; 2 3 : a M ~ a.d.*.#.H k h h g x l j ",
"b N x k H D P ! _ >.l.i.) +.L 5 N L N s 1 @ s k.eXD.m & X   L GXKX{   X + 6 k.dXD.x @ - a M L v q b 1.o.9.r.g./ ! Y H S h x N j ",
"b n R ^ T T ) >.n.k.e.o.m.s.G 1.i.g.g.q.+.d O # V.hX;X7.` C s.xXKXB.K ` 6.[.gXW., o d ..,.r.h.i.2.~ *.g.r.e.k.m.>.) T T ^ R n n ",
"k H 5.L.C.M.N.C.h.^ E j.f.$.h.t.a.h.n.a.i.=.A # - ).kXHXVXKXGXVXZXDXDXZXGXFX8Xd + z :.a.v.b.5.d.w.h.u.e.y.| E f.A.H.M.M.I.g.H k ",
"D k ,.E.Z.I.H.H.a.C | j.u.p.h.r.i.h.M.v.p.5.' # # {.eXJXHXKXHXDXnXKXHXZXHXGX[.p + A :.p.N.N.i.a.y.h.h.e.y.o.F u.L.L.C.Z. Xs.n N ",
"j H  .*./ / *.,.C.g.1.q.h.q.~ e.d.f.s.,.1.Z O . 6.fXpXJ.O.{ b.xXKXK.@.<.J.4XfXN.@ O Z +.,.5.f.h.t./ ) g.y...k.m.,.*.) #.X...B j ",
"b n k h S H R ! ) ,.F.q.,.2.B 3 P ' ' Z < O w 7.eX'.{ o X   ` zXKX .o X . M G.lXk.e @ 3 z ` ' P u b 7.o.9.j.5.#. .Y D D x g n b ",
"b j z x D h g N =.#.d.h.~ V B = 2 0 : 1 e ` b.;XR.l   > 5   ] kXAX<.  , 6   a N.0XH.[ i : ; 8 2 1 s C ~ h.f.>.=.L k S h h k n p ",
"l j n G P F p 0 k >.>.n.o.u - ; I 2.s.f.M.).*X&XZ   d :.v . 2.FXBXG.@ 5 +.B o a '.0X].N.g.g.2.} = ; 1 o.j.p.*.I q u F P P H j k ",
"p E e.C.I.P.;.g 2 *.c.p.r.Z = B &.A.oX,XrXrX_.x.  s :.I . 7 `.FXHX4Xm   Z ,.P   &./.,XrXqX,XA.3.L > z t.a.v.*.y r | F.T.L.u.Y N ",
"! j.E.Q.E.I.F. .4 F b.N.t.A : g.K.XXbX=X,XMXQ.K . } ~ O ; k.hX0X8XfXG.t o P ..- y T.mXrX=XvXXXV.F.y p t.v.c.( > J G.T.A.E.OXP.^ ",
"q.OXXX/.A.h.C.) O ! V.b.e.V q >.&X2X7Xi.V.cXC.f # 4 O w g.kXW.s e D.jXK.y   - 5 > d.<XT.-.%X7X=Xf.r M t.c.V. .& ~ j.a.C./.E.OXj.",
"U.OX'.0X'.c.<.j u m.^.p.5.D 2 5.wX@X_ OXvX2Xs.t * e  .!.qXD.- . + O 7.sX'.&.f ; % <.oXMX3X9.U.rXF.2 l q.u.K.J.C 5 +.c.'.0X'.#XE.",
"OX*XsX|.3.G ;.K.)./.K.f.+.5 r J.rXoXZ.6X*X/.V.,.f.C.`.;XQ.N o l A O t H.[./.Y.d.5.N.S.,X6XE.#XtX^.j # O.d.N.^./.W.5.F $.[.kX*XOX",
"OX0XHX|.g i ^ C./.N.p.u.A # U `.iXAX7X<X^.B.V.=X<XrXvX[.1.O z :.;.Z O [ `.wXyX>XoXS.B.S.,XsXvXAX'.O.+ v p.8.N.T.S.&.j u K.DX;XE.",
"E.wXHX|.0 7 V ) ) -.>.R X = m.oX&XT.m.f.B.V.XXrXQ.>XrXL.s ; O.a.p.1.= q K.rXcXR.yX,XS.N.b.F.T.;X&XR.5 . K $.-...#.K 7 2 R.LXNXOX",
"U.<XHXKXQ   # Z ' A d .   <.aX'.7.L q r b.*XnX7X_  X,Xm.; d >.c.v.:.z 8 b.wX#X$.%XnX;Xb.k r N <.^.0XD.$   d A ' Z 7 . L zXJXwXQ.",
"y.:XiXIX].` O . #   . 5 s.0X^.D & : # 2 b.5XoX0.%XbXrXm.; z r.F.N.5.` : 5.=XvX%X9.E.6XG.e @ > O s K.kXb.r O   * . . l W.IXJX,XP.",
"y..XwXLXUXpX6.P p H <./.BX/.l X z ` 4 i H.sX>XZ.MX*XA.g.2 B d.s.a.d.` 2 2.A.XX7XU.XXtXT.N > Z N   w K.JX_.2.K z J 6.pXKXCXwX+Xy.",
"OXE.@XsXZXLXIXxXpXzXaXHX0X]   v 9.A * [ OXtXnX6X1XK.3.~ 3 v i.h.a.h.U 2 } *.V.qX<XyXiX=X<.& M y.I   s [.lXpXzXZXxXKXPXHXnX#XU.Q.",
"#X:XL.Q.7XmXmXNXVXNXuXZXJ.O 2 :.U   9 K.;X'.^.H.f.F.R = = r 2.y.w.t.e = = L F.f.G.^.].;XR.d   P 9.v   7.xXeXiXVXVXmXmXnXQ.L.5X*X",
"nXgX(.u.p.OX$X,X$XvXMXgX<.X 7 m   > b.qX^.;.B w r 8 e > a l U j.h./ m s : : y r 0 j =.R.qXK.t   s 7   R nXmXrX@X4X+X_.h.q.E.sXsX",
"DXVXwXC.^ Q ~ ,.o.Q.tXDX{       w m.fXJ.g @ # e z v l 1 M 1.*.u.f. .2.A 2 m i M l # + 3 D.0XR.d o X   H hXnX%Xe.:.| | Y i.7XNXhX",
"].IXAX+X..r a u / #XBXHXx.H ` 7.'.CXW.,   s } e.e.g.r.o.~ X.g.5.,.j.X.~ +.t.t.s.q...V + $ b.CX[.7.! D @.kXbX1X_ p 6 0 E .XiXLX4X",
"%.KXMX%X+.e a @ T @XBXLXHXhXsXgXjX0Xj   B >.u.p.d.n.p.h.a.9.y.y.y.y.9.w.M.p.a.v.u.d.p.J   e (.lXlXsXhXxXLXZX>X/ = , w { %XyXLX6.",
"f zXSX5X:.i w 1 I P.gXNXNXbXbXBXkXJ.; 7 o.p.b.K.V.N.c.p.a.y.:.| ..o.j.f.u.c.c.V.K.m.8.>.d @ 2.aXjXbXcXbXVXgXQ.R = w g X.5XSXKXK ",
"8 pXCX%Xq.*.! ~ ~ o.T.%X6X+XvXrXZX%.  s ..c.'.!.;.Y &.*.-.d.l.Y G k.g.*.&.&.|  .D.).V.-.Z . K zXBXvX%X1X:XQ.e.^ T ^ ) i.%XNXaXD ",
"N pXBXnX#X:X#X(.r.~ T ) ,.;.3XnXLXA + C $.A.[.{ @ ; 0 K *.#.m.i.u.M.#.&.R t * @ G /.Y...' * g jXBX@X,.o./ R T ,.E.$X-X+X2XAXhX' ",
"{ zXjXdXAXVXnXSX+X^ > - 6 o.-XCXKX&.  c ^ N.}.n C ' q q L ! >.V.M.u. .L y r B T q R.^.#.Z . L xXSX;X-.s - = ~ E.iXgXZXyXcXNXjXb.",
").jXtXfXlXDXDXfX>XX.w a 5 U OXmXKXD.@ , ' / 3.=.j.l.o.u l R ) M.L.-.K k r  .G.j.O.3.#.' 7 . 5.LXmX$X} 5 7 w ^ $XnXDXxXlXVXNXfX).",
"0X,XW.O.z &.jXlX7Xu.g : : J T.7XLXpXK . 7 u F 3.N.C.P.P h K T N.A./ H D J j.U.a.u.G i 7   z |.IXmX@X| 2 0 h ) -XDXDX3.z { K.|.*X",
"R.R   X   h kXuX%Xh.....[ ! s.6XCXUX[.Q 2 q #.^.N.Z.Y.) h n T j.Z./ S k Y T.Y.A.'.>.r 2 J W.UXHXsXf.Y R  .*.q.+XBXZXx X X o z G.",
"a   w d . x fXnXnX:X5X5X.Xd.0.I.1XSXIXKX~.K.[.0X^.(.I./ p k ) I.E.;.k g Y P.E./.0X[.K.^.lXIXZXcXQ.q.i..X>X5X%X7XwXDX{ O e a . > ",
"X d ..l & <.aXCXbXNXBXCXyXvX+XC.%XrXuXPXPXxXfX*X(.XXh.P x x Q g.r. .h x F u.OXE.'.fXDXLXJXJXwX$XC.E.6XMXtXNXuXBXSXNXD.& 5 +.V * ",
"b 1.' . t ).lXNXhXzXUXKXLXNXsX=XE.@X%XsXjXqX-XOX+XY.| j x N n H n N b N h E L.OX@X-X<XNXwXwX#XE.:XsXVXLXGXUXhXhXjXjX|.z   V o.J ",
"+.[ . 7 g.-X).b...B K 4.[.DXsX:X_.j.z.Q.XX_. XE.M...x z j p n k x b b j l x ^ j.E.OXE.Q.Q.P.w.Q.=X6XxX4Xx.] B } 6.).-Xm.a & ' } "
};
