/* XPM */
static char *result[] = {
/* columns rows colors chars-per-pixel */
"64 64 220 2 ",
"   c #020102",
".  c #0A0203",
"X  c #030905",
"o  c #04010B",
"O  c #0B020C",
"+  c #05090A",
"@  c #09080C",
"#  c #050114",
"$  c #0B0214",
"%  c #040813",
"&  c #0C0915",
"*  c #06011B",
"=  c #0C011B",
"-  c #0C091D",
";  c #110114",
":  c #11021D",
">  c #11091F",
",  c #060222",
"<  c #0D0123",
"1  c #050A24",
"2  c #0D0923",
"3  c #040229",
"4  c #0D022A",
"5  c #0D0A29",
"6  c #120224",
"7  c #190324",
"8  c #120824",
"9  c #1A0A26",
"0  c #14022B",
"q  c #1A022C",
"w  c #13092A",
"e  c #1D0D2D",
"r  c #0C0233",
"t  c #0E0833",
"y  c #150232",
"u  c #1B0234",
"i  c #140933",
"p  c #1B0934",
"a  c #14013A",
"s  c #1C023B",
"d  c #1C093B",
"f  c #210327",
"g  c #200228",
"h  c #210235",
"j  c #22023C",
"k  c #2B063C",
"l  c #23093D",
"z  c #2A0938",
"x  c #160340",
"c  c #1D0243",
"v  c #1D0842",
"b  c #1E014B",
"n  c #1C0A48",
"m  c #1E0051",
"M  c #230344",
"N  c #2A0443",
"B  c #240A44",
"V  c #2A0945",
"C  c #24034B",
"Z  c #2B034B",
"A  c #260A4D",
"S  c #2B0B4C",
"D  c #330744",
"F  c #320C47",
"G  c #31004F",
"H  c #320A4B",
"J  c #250252",
"K  c #2C0453",
"L  c #260B51",
"P  c #2B0B54",
"I  c #2D035B",
"U  c #2D0A59",
"Y  c #320555",
"T  c #320A54",
"R  c #390E54",
"E  c #33045B",
"W  c #38075B",
"Q  c #330A5B",
"!  c #390A5D",
"~  c #301157",
"^  c #33125C",
"/  c #2F0E61",
"(  c #340562",
")  c #3A0565",
"_  c #350B63",
"`  c #390B64",
"'  c #35066A",
"]  c #3C046A",
"[  c #350C6B",
"{  c #3B0C6B",
"}  c #341263",
"|  c #391364",
" . c #3A1863",
".. c #36146A",
"X. c #3B126C",
"o. c #3A186E",
"O. c #3B0776",
"+. c #3C0D74",
"@. c #3B0B79",
"#. c #3D0C7A",
"$. c #351077",
"%. c #3D1373",
"&. c #3E1872",
"*. c #3E127C",
"=. c #420D65",
"-. c #420D6C",
";. c #4C086F",
":. c #401163",
">. c #41116C",
",. c #430776",
"<. c #460676",
"1. c #420C73",
"2. c #4C0A75",
"3. c #430D7B",
"4. c #4A0D7C",
"5. c #510F7D",
"6. c #421374",
"7. c #491474",
"8. c #431A74",
"9. c #491B76",
"0. c #43147B",
"q. c #4A147D",
"w. c #45197B",
"e. c #49197D",
"r. c #3F0E82",
"t. c #3E1284",
"y. c #440780",
"u. c #4B0780",
"i. c #450C84",
"p. c #4A0E84",
"a. c #450B89",
"s. c #4A0D8B",
"d. c #530D84",
"f. c #530D8D",
"g. c #441383",
"h. c #4C1484",
"j. c #471981",
"k. c #4E1B82",
"l. c #431289",
"z. c #4D138B",
"x. c #461B88",
"c. c #4D1A8B",
"v. c #521585",
"b. c #501885",
"n. c #52148C",
"m. c #591689",
"M. c #521A8D",
"N. c #5A198F",
"B. c #4D0C91",
"V. c #4E0B98",
"C. c #540797",
"Z. c #540D94",
"A. c #590893",
"S. c #550D9B",
"D. c #590E9D",
"F. c #431693",
"G. c #4D1293",
"H. c #4F1C93",
"J. c #4B149C",
"K. c #4F1D98",
"L. c #541494",
"P. c #5B1495",
"I. c #531994",
"U. c #5C1A94",
"Y. c #54139A",
"T. c #5A149D",
"R. c #541A9C",
"E. c #5B1A9D",
"W. c #601C95",
"Q. c #60179E",
"!. c #611A9C",
"~. c #4C239D",
"^. c #52249B",
"/. c #5A0DA4",
"(. c #5D08AD",
"). c #4E1AA2",
"_. c #5415A2",
"`. c #5B14A3",
"'. c #551AA2",
"]. c #5C1AA3",
"[. c #5614AB",
"{. c #5D15AB",
"}. c #551AA8",
"|. c #5E19AB",
" X c #5410B1",
".X c #5C13B2",
"XX c #6116A7",
"oX c #621AA6",
"OX c #6215AC",
"+X c #621AAC",
"@X c #6B1AAF",
"#X c #600AB3",
"$X c #6416B2",
"%X c #6811B7",
"&X c #651BB3",
"*X c #691AB5",
"=X c #6612BF",
"-X c #6B15BB",
";X c #6618B9",
":X c #6C1BBC",
">X c #721CBF",
",X c #5921A7",
"<X c #6320AE",
"1X c #6520B9",
"2X c #6A22BC",
"3X c #6D16C4",
"4X c #6C19C4",
"5X c #6B15C8",
"6X c #701AC3",
"7X c #7315CD",
"8X c #731ACE",
"9X c #7117D0",
"0X c #751AD2",
"qX c #7819D5",
"wX c #7A1ADD",
"eX c #7127C6",
"rX c #732CC7",
"tX c #742BCC",
"yX c #7530C8",
"uX c #742CD6",
/* pixels */
"d 5 * = p c ( 3.u 6 N U P u M 0.0.N l s 9 q %.g.q.( E C C A d 6 : i A C A Y E 3.0.X.B 0 u d V ` n.N q A _ N 6 6 1.{ J d $ o = c ",
", * = 6 u M ) i.4 = q u 0 : q X.) u u 4 $ q +.h.{ Q Q j = & o       = = q V Q ) q.0.s = < q u I 3.u $ 9 j u 6 , 3.6.Z j i < * = ",
"* < w h j K %.' % o ; = = $ 0 ^ 1.s q , O q q.Z.{ #.*.A = .   o +   . = x X.&.' d.z.N $ , q u W 6.u $ $ , = o % ( X.Z M M s = @ ",
"= 6 h j I #.&.V o : 9 s c j C %.1.s 2 - $ l h.D.1.l.z.+.j q y M B y q M ' c.z.3.A.Y.A = , < q ` l.K v c x y = # h X.#.E Z s < $ ",
"p l M K O.+.K q J _ 6.0.0.w.0.z.8.s 4 < = u 3.D.L.D.+X*X+X+X2XtXeX2X&X+X&X+XY.S.D.B.C = 3 4 u | Y.3.w.0.*.&.} K q C { { E M d d ",
"s B K @.#.T V K #.,.1.) Q E E ( } M 0 4 = y ` L.U.f.D.OX>X8XqXqX7X0X7X:X@XP.f.P.L.O.s , , q d U ] E Y Y ( 1.3.3./ N F { +.I C c ",
") ` %.&.T V Q +.X.( G j y q u q u u < 6 < 6 B 8.L.T.Y.{.*X:X6X6X3X3X4X:XOXY.Z.Y.8.P y 6 $ < y s u q q 6 h Z Q ` #.U B A X.%.{ ) ",
"4.i.' V q K @.O.B s s j y 4 w < : 7 : = 6 : 6 v n.E.].Y.U.E.].].oX].T.].E.R.].G.L q 6 9 O = y 6 = 4 4 0 p s s N ) +.[ u l _ 3.3.",
"u w % o J @.X.N J C q = # * = $ = < = < < < < < g Y h.T.].|.|.z.z.`.OX]._.B.) h 0 4 < < * = 6 6 * = $ * - < j J B / 0.U * * , 6 ",
"6 = o : _ 3._ M l u = $ = < 6 0 < < 8 2 = = = 6 4 s c M H K I M h T Y Z N N s 0 6 < = $ = 6 6 0 < 0 6 , * o 7 c B I #.! $ o = 7 ",
"N q $ q %.1.G s 7 = = 6 d A U Q N u 0 < & $ # = r 2 4 4 0 r r 6 < r a a i i 4 4 = $ $ $ 2 0 u j Y Q U C w o $ 0 c N ] 7.u $ q h ",
"U u $ s 0.) j j = = 0 A X.q.h.L.7._ c 0 = $ * = $ o $ = - = * - 9 - < , # O o ; = O & = 0 s E :.M.h.h.*.P 6 $ = s j E q.A = u P ",
"P y = c 0.Q u i = = j X.h.h.f.Y.P.I.+.A 4 = = 6 T s q = : . $ y s o   6 ; 6 u H e = = < c [ c.n.Z.f.h.i.*.A , $ r u Z 0.L = 0 A ",
"u : $ d q.Q 0 4 * : S e.p.<.<.a.D.].L.X.s 6 , , _.).c.e.8.q ; y M = 0 8.q.x.).|.8 * 6 y ( z.E.D.B.4.,.p.h._ 6 o 3 q Z 6.S = = p ",
"j u 6 C 3.E q 4 $ : P z.n.,.4.z.D._.Y.v.C q = # y.Y.,.t.~.u   t 6   < c.h.+.l.s.* # w M h.Y.Y.D.n.h.,.s.n.>.0 - , u K ,.U q q j ",
"0.X.^ { z.] q < < 6 Q Y.S.i.z.K.E.`.].N.G q - # { e.j M ~.d   r r   4 h.Y j | q.* * 0 N M.E._.oXI.c.a.V.Y.1.y < 6 q E s.%.| X.X.",
"0.) 1.1.0.} u 6 2 , N 7.L.S.Y.L.+X*X/.!.-.q 8   R R.p.;._.( o * 1 o K G.2.u._.0.o $ h Q U.`.+X+XE.S.C.T.v.Z , 2 6 y U w.+.+.1.6.",
"j u u s c M 0 7 = < s _ I.T._.`.&X4XOX+X3.u w # V F.G.z.,X .O * & O P '.J.J.F.^ % = s ( T.OX*X$XT.T.`.P.-.s 0 2 : 0 B M u u h j ",
"B u w 0 4 w < : < 2 4 c %.G.S.]._.$XXX].1.u =   o 6 ; : A A 6 < - < B L u : = o   * y _ E.+X+X`.`.Y.L.0.C 0 7 6 = = 0 4 w u u M ",
"s 4 < * , 4 6 : = 6 = 0 A %.v.U.T.XX].L.) s 0 $ * * = * o O O $ = $ O o O * * = = = s _ I.}.+XT.E.M.0.P y = = = 6 6 4 , , , 4 d ",
"9 $ & $ = < < 6 = = - = < u Z G -.,.1.{ J u u q u 0 y y 2 = = O $ = = , i d 0 u 0 q y b [ #.1.1.Y Z s 4 = & $ : 6 6 < = = $ $ f ",
"q q u j u y 6 : < = # & = 6 q q h s d s u q Z Z T k s u q y 0 $ * 4 4 0 q h j Y K Z s q u s u u g u < = & $ * < : 6 y u l h q u ",
"%.6.q.h.3.` V 6 0 : $ $ = , * # : 4 = 0 u K z.R.`.`.R.i.T q < : 0 = 0 N -.B.[.|.|.n.Q u < , < 6 = * = $ $ # = w 6 s _ ,.v.h.0.%.",
"g.i.Z.D./.L.&.c < 6 = < 6 , # o   o   * q K R.$X].].`.`.L.{ c 0 = q ' R.{.{.`.T.=X_.Q q # o o o o # * 2 * = 6 0 s [ L.D.C.Z.h.g.",
"3.{ { 1.f.L.n.B.q 4 4 * Q }.r.6._ V . # 7 H [.XX&X$XOX`.L.I.0.c y X.c.S.D.#X&X&XT..X7.s *   d { ..l./.1.& # 4 j h.z.L.L.4.{ 6.i.",
"( Q +.z.Y.Z.P.E.! s , o u Y.J.9.'.F.6 * 6 k }.].*X$X+XT.G.Y.c.Q K w.I.Y.T.OX&X*X`.$X=.q - o %.`.k.n./.Q . < t P E.L.L.Z.s.,.[ K ",
"E Q &.G.+X/.T.'.p.s 4 $ 0 M.4.j d.G.$ $ r h R./.OX+X].I.h.L.n.1.{ h.G.z.L.XXOXOXT.T.Y q # o { m.N Y P.M o y y ] `.Z.L.].J.l.| H ",
"C s A +.+X$X].Y.E.B 4 $ 6 j.i.C ;.G.: O a s q.{.`.T.U.q.4.p.n.2.4.n.p.3.b.I.T.T.].h.Z u % = e.d.J Q R.s # y j m.|.{.OX<Xl.K u u ",
"C = $ M +X6X*XY.XXH 0 - : 8.^.^.Y.,XA O 4 y V L.Z.L.h.3.,.i.s.4.4.s.a.#.3.s.L.Z.'.' u , # d K.`.).H.c.6   0 u G.T.{.4X,XZ ; : c ",
"A &   y oX8X:XP.OXE a = . q y d [ | B O 4 y q { H.R.L.p.i.s.z.{ ) g.B.a.i.s.Y.I.*.b y 6 * v X.` j u M O % p A `.!.:X0X|.h . & n ",
"d o   s &XqX6X].].Y y < $ ; .   o O : = 6 4 < j 0.c.n.n.n.z.X.V h ..g.z.z.c.c.q.s 4 : ; * < $ $   . $ o * a N Y.Q.-X8X<XM   o i ",
"6     A rXwX4X].Y.N 6 - y s 6 r 1 # 6 6 O $ < : c ( 1.2.4.-.A = O j _ 2.4.4.` M 4 w O . = , o $ y r s 4 4 q 0 7.OX%X8XrX} *   8 ",
":   + B eX0X4X].z.d : w s c q t 1 & = = $ * < = y K -.2.4.( j O . y E ,.v.1.Y s 4 w $ . < , o - 0 t c y y s 7 -.+X%XuXtXX.*   - ",
"i     u *X0X4X].].K 4 = $ $     o . < = = 4 = q | e.z.z.z.g.| j y } g.s.n.z.h.6.a 0 6 : < = O O   X O   $ y j c.oX:X0X1XC     6 ",
"L &   u +X8X4X`.OXQ r , o < 4 , K Q B $ = 4 7 ' G.I.G.i.a.B.i.` I g.G.a.u.G.R.c.| c 6 < $ i Q K 4 2 :   o a J Y.P.:X9X|.h . O n ",
"C = = M OX3X:XE.XXG y < 6 6.M.b.L.R.P o , 0 Z Y.L.Y.z.3.#.s.z.4.2.z.a.#.3.s.Y.Z.L.W u = # p ^.Y.R.c.h.q $ u A I.Q.$X4X&XK $ & d ",
"C q c ' &X@X@XT.XXZ 6 $ = q.h.Y 2.G.u o i q -.`.Y.`.L.k.3.i.z.5.4.n.i.3.q.n.T.T.T.h.N 0 # = e.d.Y ) P.s o 0 b L.[.{.&X|.i.C u u ",
"H P %.c.+XA.T.E.s.M 4 @ 6 x.*.u u.J.: * y h G.{./.OXT.I.z.s.L.1.<.z.L.z.z.T.OXXXT.T.E y & o 1.Z.q Z I.B   2 a O.[.T.E.`.'.g.^ N ",
"( W %.z._.f.Y.R.` s 4 o s J.l.| _.F.= = q N [.XX$X$XOXT.L.Y.z.` E h.I.L.D.XX*X$X].{.` q $ # $.[.8.*. XU   & 6 H T.U.L.Z.B.g.` I ",
"3.` ` +.Z.P.Y.G.s 0 < O R |.B.q.g.^ o * u T [.T.*X:XXXT.Z.R.w.C c X.n.Y.D.XX*X&XE.[.-.u $   V 6.q.f.(.{ # * 4 M n.L.n.L.<.=.{ O.",
"4.4.d.Z.S.G.w.A 4 6 6 = e 8 # * o %   # q K `.=XT.`.`.].].%.c 3 < u ..L.T.`._.T.5X].[ u * o o   o # 2 8 = = 6 6 d | n.T.C.f.h.0.",
"6.0.z.Y.G.+.P 0 0 = $ $ $ * # * * = # = y Z M.T..X|.Q.v.] b 0 6 < 0 s W h.].OX.X`.I.Q u < = * $ o * * * $ $ = 0 0 A +.z.L.z.g.t.",
"c s V T C s y 6 2 * $ & = 6 6 0 q M u s y u U Q 1.` Y Z s q 7 & ; 8 0 u C Y ` -.) Q M y s s j h q q 6 = & $ $ 6 6 q s C S M M B ",
"w = $ $ = < w 6 = # $ = < s Z M Y ( ( I b q s q s 0 q w , < =   O $ = = 0 q q q s u y s U ( ( E Z Z s , = $ $ < 7 6 4 < 6 ; ; > ",
"i < 6 , < , $ o = = 8 0 c _ 0.h.U.].E.I.[ u 6 # - # % $ * , 2 = < < - # # $ & * * < u U M.E.].E.U.z.%.A y < : = $ = < = = = 6 u ",
"s y 6 6 0 q < = = 6 < s { G.R.].D.|.|.'.#.s , o   O o = s s 6 * * = i p = # #   o = s ( R.|.OX/.`.R.H.+.c q w 6 : 6 0 , < w q l ",
"N u q 0 y s y q w 0 u E c.E.D.D.@X:XOX|.3.s < o d [ 6.7.^.} : O # $ ~ I.q.+.+.C o * s ] ].$X:X&X_._.`.L.` u < , 6 0 s s q u u s ",
"=.E _ _ ..^ s q 6 6 j >.n.Y.T.oXoX*X`.`.1.u 6 o { `.n.d.[.` O * & . K Y.d.Z.|.0.  $ h E E.`.+X+XE.R.S.L.q.S < < < y ~ | Q _ _ { ",
"n.g.6.g.Y.] u < * 4 T n.L.B.c.L.].T.Q.W.E h = o } e.N C ^.N   y w   4 K.E 6 o.h.o $ q Z I.`.Y.E.|.I.z.s.n.>.q , & 7 E f.p.3.a.n.",
"N u u J 3.E u < - 0 Q h.s.3.h.n.Z.`._.L.Z q * # l.z.E U c.u   r a   = z.] V *.z.# = 9 C c._._._.G.<.1.4.L.>.q = : 6 C 3.W u s N ",
"0 $ O d 6.E q 0 # 6 E h.i.1.3.s.Z.`._.0.s = = , (./.E.I.I.j = y c O = h.!.I. X#X5 * 6 s { I.].S.z.,.-.4.n.{ 0 $ y 6 C 0.S O O 8 ",
"A 0 $ d 0.Q 6 0 * = A @.i.i.s.V.P.Y.#.P 6 $ = 2 6.Y N d 7 O o 4 s     q s B U -.5 # = < C +.I.Y.B.u.i.s.l.U , $ y q M g.P O > B ",
"_ j = a #.` u i = * 0 P 0.z.n.Y.v.-.C 0 = = # $ $ . O o @ O * 3 y # @ = o     o , * & $ 0 M ( q.n.M.G.x._ y * - s q J g.J = u U ",
"Z u = u 6.O.Z s 2 o   < A _ >.-.K j 6 = = $ # $ # = i y 0 y u q d 0 y s 0 6 & , = $ $ $ : 0 s V :.:.` U 0   o < s M ( 0.j 6 y M ",
"6 6 # : [ 3.Q s N 6 o * < 6 q y 4 < 6 : & $ = 2 4 t y s d C M q 0 u C A b y 8 r : $ $ = 6 w < < q q y 4 *   : d j J +.| 8 * < 6 ",
"6 2 + o P #.` B J c 0 = $ O * 4 - 2 6 : = : 0 r h A { m.Y._.T.6.6.n.L.L.Y.,.D M 6 6 0 < , 4 = = , = = = - = d I k ( t.Q O * 4 = ",
",.#.` h q ( #.{ M j s s r 3 3 , 6 = : 6 6 : 6 s s.R._.].T.P.].OX@XoX].XX].`.Y.n.l 0 6 7 $ : 0 6 ; : y y u j j N ( 3.$.u q Y O.3.",
"-.X.%.X.Z V Y +.( K N j q q q q y 0 = 6 6 6 s [ n.P.P.XX+X:X-X-X@X*X:X;X/.Y.Y.L.| Z 0 6 = 6 4 y 0 6 0 0 u M K / *.I V Z | 8.6.{ ",
"m V K @.+.F V [ j.3.) Y Z Z K E U B 0 , < y W I.P.Y.L.+X:X9X9X8X8X9X5X4X&XoXP.Y.n.+.c 6 < 0 d ~ E C M M J ` +.t.*.V H [ #.Q Z C ",
"s c C I +.` Z s U ^ 7.q.0.%.3.n.0.B 4 , , u ,./.Z.s.`.<X+X].<XyXuX2X<X<X+X_.Z.v._.p.C < = < s | n.4.0.0.l.6._ Q y M ` O.( N u c ",
"$ y c Z E @.%.j # : u A A A P %.1.u 4 < $ h h.C.h.B.).l.G u j / $.M u Z l.}.G.1.S.z.P 2 * < y W d.Q Z S K M : o q | #.( J M y < ",
"@ , s B A I &._ # o $ = = * 0 | 1.u y 5 $ h v.Z.=.,.l.K : . . * # . . ; C r.i.-.f.z.M ; = 9 u _ 3.s O $ = < = - Y 6.Q N M b 0 @ ",
"= * * 0 M M { ,.4 = e p 0 = 0 ..1.h u t = q #.h.{ _ | s < $ o       % $ u ! ) +.c.g.N $ 6 q u _ a.j O > y q < 3 #.6.C u y 0 * O ",
"a 8 o $ d c ) 3.9 6 h A A u u %.1.j d v f u { h.0.K H M n n i & - 4 A v g z J +.0.*.N 7 u d j [ n.j : B U M q = <.{ C c < . ; y "
};
