/* XPM */
static char *result[] = {
/* columns rows colors chars-per-pixel */
"64 64 247 2 ",
"   c #1E0B08",
".  c #2C0401",
"X  c #290805",
"o  c #2C0D0C",
"O  c #340302",
"+  c #3D0303",
"@  c #340A03",
"#  c #3C0B04",
"$  c #3A070A",
"%  c #340C0D",
"&  c #3C0D0C",
"*  c #271205",
"=  c #2D130D",
"-  c #35130A",
";  c #3A110B",
":  c #290F11",
">  c #380C12",
",  c #2C1917",
"<  c #341413",
"1  c #3C1413",
"2  c #341A15",
"3  c #341B1B",
"4  c #3B1818",
"5  c #3B1B1B",
"6  c #382115",
"7  c #322119",
"8  c #35221C",
"9  c #3B221D",
"0  c #331D22",
"q  c #3C1E22",
"w  c #2C2423",
"e  c #282926",
"r  c #2D2C2B",
"t  c #352423",
"y  c #3C2322",
"u  c #352827",
"i  c #3B2924",
"p  c #332D2C",
"a  c #3C2C2C",
"s  c #2B322D",
"d  c #3E3023",
"f  c #33312D",
"g  c #3B322D",
"h  c #2E2F34",
"j  c #372E30",
"k  c #2E3534",
"l  c #353432",
"z  c #3B3433",
"x  c #343A34",
"c  c #3C3A36",
"v  c #3A363A",
"b  c #363C3A",
"n  c #3D3C3B",
"m  c #430603",
"M  c #4B0403",
"N  c #440B05",
"B  c #4C0A04",
"V  c #430509",
"C  c #4E060A",
"Z  c #440C0C",
"A  c #4B0C0B",
"S  c #530302",
"D  c #560506",
"F  c #550B04",
"G  c #5A0A05",
"H  c #5B060B",
"J  c #540B0B",
"K  c #5B0C0C",
"L  c #461409",
"P  c #4A110C",
"I  c #56120C",
"U  c #450D12",
"Y  c #4C0D12",
"T  c #530C12",
"R  c #5A0C12",
"E  c #431314",
"W  c #4A1414",
"Q  c #431A14",
"!  c #4B1A15",
"~  c #44151A",
"^  c #4C151A",
"/  c #431C1C",
"(  c #4C1B1C",
")  c #551414",
"_  c #5B1413",
"`  c #531A15",
"'  c #5D1B14",
"]  c #56141A",
"[  c #531B1B",
"{  c #5B1B1C",
"}  c #660806",
"|  c #630D0C",
" . c #6C0C0C",
".. c #730C0B",
"X. c #780809",
"o. c #63120D",
"O. c #69140A",
"+. c #74120D",
"@. c #660914",
"#. c #6D0C14",
"$. c #740C13",
"%. c #790B15",
"&. c #641514",
"*. c #691718",
"=. c #641B1B",
"-. c #741314",
";. c #791718",
":. c #45201D",
">. c #4C221C",
",. c #54231D",
"<. c #5A2218",
"1. c #41301F",
"2. c #6C241B",
"3. c #431E23",
"4. c #4B1E22",
"5. c #531E22",
"6. c #5C1D22",
"7. c #581926",
"8. c #651B23",
"9. c #751C23",
"0. c #442324",
"q. c #4B2324",
"w. c #442A25",
"e. c #492728",
"r. c #432C2B",
"t. c #4B2C2C",
"y. c #532223",
"u. c #5A2425",
"i. c #572628",
"p. c #522C2B",
"a. c #5C2A2C",
"s. c #43322B",
"d. c #4C312E",
"f. c #58332D",
"g. c #492D32",
"h. c #562D32",
"j. c #433333",
"k. c #4A3434",
"l. c #453936",
"z. c #4B3A34",
"x. c #433639",
"c. c #4C3638",
"v. c #433C3B",
"b. c #4A3C3B",
"n. c #553536",
"m. c #5B3333",
"M. c #523A36",
"N. c #533B3B",
"B. c #5B3D3C",
"V. c #672727",
"C. c #772526",
"Z. c #642E32",
"A. c #653737",
"S. c #6F3530",
"D. c #394339",
"F. c #3D433C",
"G. c #43423E",
"H. c #4A423D",
"J. c #4A483A",
"K. c #56423E",
"L. c #6A433C",
"P. c #3C3D41",
"I. c #433E41",
"U. c #4A3E42",
"Y. c #4E3D4D",
"T. c #543E42",
"R. c #593F48",
"E. c #6F3E41",
"W. c #3E4341",
"Q. c #3C4944",
"!. c #454342",
"~. c #4B4543",
"^. c #444A44",
"/. c #4B4A45",
"(. c #444548",
"). c #4B464A",
"_. c #454B49",
"`. c #4C4B4B",
"'. c #534544",
"]. c #5B4543",
"[. c #534A45",
"{. c #5C4944",
"}. c #52464B",
"|. c #5B454A",
" X c #534C4B",
".X c #5B4D4C",
"XX c #44534A",
"oX c #49574B",
"OX c #4C524C",
"+X c #515145",
"@X c #53514D",
"#X c #5B514E",
"$X c #4D4D51",
"%X c #534D51",
"&X c #594E53",
"*X c #4D5351",
"=X c #4E5A58",
"-X c #545352",
";X c #5B5453",
":X c #545A55",
">X c #5B5A55",
",X c #545559",
"<X c #5C545A",
"1X c #5D5B5A",
"2X c #624344",
"3X c #684747",
"4X c #634C4B",
"5X c #65514B",
"6X c #644B51",
"7X c #635554",
"8X c #675657",
"9X c #635C5C",
"0X c #735050",
"qX c #63615D",
"wX c #6D625D",
"eX c #565F66",
"rX c #655E61",
"tX c #676464",
"yX c #766668",
"uX c #87090B",
"iX c #99080C",
"pX c #87120C",
"aX c #95120A",
"sX c #860C16",
"dX c #920A16",
"fX c #9C0C13",
"gX c #881618",
"hX c #941314",
"jX c #991517",
"kX c #A8080D",
"lX c #B60F0A",
"zX c #A60B16",
"xX c #B30C15",
"cX c #A91318",
"vX c #B51518",
"bX c #98201F",
"nX c #8F0B21",
"mX c #861823",
"MX c #981924",
"NX c #BA1521",
"BX c #892526",
"VX c #992227",
"CX c #C40E0D",
"ZX c #C20914",
"AX c #C6171C",
"SX c #815854",
"DX c #856766",
/* pixels */
"&X~.).-XOXs.y.8.{ Z O 4 8 d N.e.y v.v I.).).OX@X).U.&X/./.OX'.].I.<X}./.;X).n !.v.z 8X8X XH.~.I.`.~.g.4.6.) { P 2 H.=X}.%X~.).P.",
"~. X X*X:X Xt.i.[ A A & :.d./ ^ :.4X1X~.).1X>X;X`.!. Xc l x x f  X~.c v.b.~.G.P.H.u : 0.l.f c c r c T.r.w.; P M L q.T.rX9X0XDX7X",
"w z H.I.`. Xj.j E 1 $ U ( ^ E 1 [ p.;X@X).-X).}.F.!.7X&X`.$X!.G.~.z !.`.~.`.`. Xj.y 3.3.k.l.z r x z k.t t = & _ &.W X < ( W W [ ",
"2 2 j.v.I.~.P.n i = o O + + P [ I ; i f l h w U.w.3 g.v P.`.H.K.}.~.!.F.~.&X-X;X'.k.p.q.3.z..X1X_.}.{.k.s.5 E 7.=.,.p.p.( L & E ",
"` W h.'.`.*X`.&XG.k.~ Z m m ' &.*.a.8XqX-X-X.XT.` ( h.;X1X&Xt.^ t z l x !.U.I.G.z.y 5 m.h.u v. X1X9X9X5X.XN.e.q.u.m..X>Xd.[ ,.^ ",
"P J R i.H._.F.`.@X~.N.L H ;. .+.S.3XJ.H.!.!..X|.] ) / r.r./ Z H < i s b v l v.~. Xk.9 e.a w , j. X[.H.D.c a , , , 0 e J.5 Q h.y.",
"' J R a.'.J.^.:XG.H.G.E S sXsXpXm.M.f G.!.z b.y / p.( u.,.A S | Q r.!.*X-X}.~.G.[.'..XG.G./.p x.z ~.[.H.^.^. X@Xz.a ~.yXV.V.3XS.",
"gX} ( K.[.G.^.@XQ.^.4XA.A } +.uXh.7X/.`.<X;X#Xi /.4X,.&.&.G D K Z d. X_.`. XH.@X X'.@X+X^.@X).|.@X8X6XR.b.!.^.(.k.t.r.k.J | B &.",
"pXX.,.L. XT.[.-X).(.^.u.*.;.C #.^ >X=X<X7X&X.X;XtXi._ M C L A X.G 5 I.(.U.(.XX{.^.@X#X'.l.H.b f r.! ;.$.@ ,.f.=XA.( ) ) M S C R ",
"hXC.,.q.0.p.#XoXrX/.p.gX-.&.+ # $ j.b (.n z f f x.% A A N . + %.F ; q a r.j.~./.^.7X8X#X'. X'.z.k.` X.dXB  .MXz.>.y 5 V ..$.m =.",
"dX*.s.d.g.n.;X_.).p.*.iXjXhX' ' $ w.).:X-X@XOX^.4X/ L A W ; N X.*.Y $ $ % & e.~.~.-X.X}.~.b.N.c./ ! gXjXF F dXd r.>X;X^ $.gXM H ",
"%.B , , u j l b s q G uXlXjX;.*.Z 6.5X>X%X-X@XG.t.$ A B N V &.%.] T A J F m 7.&X`. X;X;X Xv.b.c.:.6  .iX} F sXp.a !.~.0.C J + H ",
"# m W t !.`.W.W.v t B X.aXjXgX] P =.A.~.~.(.G.c {.[ D J J @.#.o.A J # K } m Y n.!.I.`. X/.H.'.z.>.W | } X.I W ,.`.P.p a o # N C ",
"O C R g.`.XX`.U.}.0.S } aXpX-.Q I *.Z.z.^.W.F.@X9Xi.S M J nXsXG P C + M } S O ~ r r u e e f k.3 O m M | -.,.8 f.'.j r /.t.# . $ ",
"R ] 7.8X7XQ.H.b.@Xq.C F uXX.} L ' ' { t.W.b l b.~.p.] P M X.hXO.S D C A K *.A q.!.'.H.l.H.K.p.$ A U m ..+.&._ *.m.'./.!.t.Z # A ",
"D O 1 0X8X*XXXXX[.>.} } gXcXcXhX*.K K a.>XeX}.c.&Xr.Z N m ..gXO.} K @.m +  .M ,./.~.z.z.K.0X,.D } A + iXX.&.sXuX=.N.:XOXB.( Z @.",
"m m #.M.!.}.=X`.b z ~ *.sXjXgX` I ` ) [ 4X'.z *X~.:X9Xe.E # <.| #.X.+.K S #.K w.[.~.x.n.2.hX+.N . O S X.' N V A 5 z b.I.!.a Q } ",
"+.sX .) w.F.(.!.e 0 : W  .} I 6 Q ; > / {.~.v.$Xx.!.F.2X/ < ! *.O.X...G S #.T w.XX).&XE.gXzXuXF C ] *.D @ B %.} > c F.~.-X!.; sX",
"uXuX+.-.V.J./.&X,XT., <.gXpXu.y.q 3 t.N.@X~.~.).U.-XOX}.N.{.0X]  .}  .o.D ] W w.@Xc c n.;.jXsXK + @.@.# F X.kXfX~ x s l.N.z.# X.",
"zXO.X...O.' p Y.%X{.>.+.kXcXgXV.W o 4 y f ~.<X).9X1X:X-XqX[.3XL.+.} F _ ` y.t.{.'.|.`.v.! H G C . $.C X X.iXuXO.t.x.c K.A.Z.<.X.",
"gXJ G G ..gXv.eXqXqXV.aXCXAXbXC.BX&.A ~ z /.;X^.l.n k *X`.OXk.5X*.I W [ a.z.'.>XH./.v z i @ O $ X.nXK G lXlX2.t.|.'.'.+XA.C.=.#.",
"} S B F $.K ~ XXXXoXL.VXxXlXjXVXgX;._ f.wX9X XOX/./.`.-X!.1X.X'.{ ( / 5 a a z s F.l r c @Xd.U T sX} A zXCXaXs.k Q.j.]./.` BXI P ",
"#. ...$. .F D S.@X^.v.9.uXpXX.hXBXO.E M.qX:X!.F.G.x v.c v.I. X@X0X8X7X X;X-X7X@Xb. XtXqXqX7Xh.6.R & K zXxXBX5X`.^.b.DXSX$.gXI @ ",
";...zXsX| -.gXvXR.).:XL.V.V.<.VX9.P < a s r l.l x `.z }.I.&Xc b !.v.W._.:X`.;X X8X'.yXyX9X;XD./.q.L S } ..t.J.#Xx.y 8XBXMXhXI ' ",
"L S sXA # +.xXkXL.L.k.p s e t W % 1 > t v.n OX!._.W.-X(. Xv.s l l l e s r e e G.c G.v.z z n !.~.~.H.j.j.a g z G.e 9 &.jXjX| O ^ ",
"9.=.gXfXfX+. .$.u.u.Z.m.l.l.^.D.8 t.r.i v.`.OX`.v v I.I.-X1XtX-X`.1X,X).v.!.G.z c !.~.!./.@X X~.#X@X[..X}.~.~.@Xb./ 9.cXcXX.D C.",
"V.,.*.cXNXBXV.u.{ #.$.8.a.R.8X$Xv.}.&X|.`.;X).-X8X).v c ,X1X9XI.x x !.`.W.!./.-X!.~.!.v.G.~.c f p z g z z ~.G.^.v.w.J ..pXvXzXhX",
"<.<.O.O.+.;.C.; $ N m . 6 l.&X(.n !.n l c :X/.v.b.!.c s k l v (.Q.,XtX1X$X(.`.-X9X;X~.~. X-X X~.@X9X>XqX;X;X/.v.*XN.u.F pXkXxXpX",
"aXvXcXpX+.MXMXO.H H G B L g *X,X1X/.).1X;X@XH.c N.].b.p f n !.*X(.@X;X}.!._.$XeX>X-X).`.@X!.!.v.F.!. X:X_.n c !.&X{.z.>.BXzXkXpX",
"gXfXcXaXaXpXG G 9.K #.%.| / }.,X;X$X-X;Xl.w.k.w.( 1 % > 5 x.&X~.^..X|.x.).`.c h 9X,X!.!.n v !.,X X-X-X-X).~. X9X XqXoXJ.V.-.X...",
"] *.-.jXcXhXm W - = # $ E 5 j.P.p r p j.5 % % % m m Y ~ > r.}.~.[.w.q 0.b.c r z h r r h h p l !.c !.n n n G.b.U.(.l n c K.:.>.4 ",
"5.[ ,.gXzXzX) = #.9.C . 8 a b.OX`.:X/.N./ ~ m + + N J + ~ 2X XD.[.5 1 q j.n G.).1X-X!.I.!.!.n P.b.v.n G.!.).~.|.|._.%X|.`.J..XV.",
"Q ) ` 5Xa.-.gXB #.*.) / k..X$X$Xb n b.b./ $ + + P I O $ W 7X/.G.H.y ^ u.m.4X/.$X`.`.`.`.=X1X1X$X,X,X,X/. XrX&X9X<X<X@X[.@XOX7X,.",
"q.Z >.M.p.9.o.L [ Q % 8 l.)._.W.l n !.[.].~ + P S @.Y Y 7.5X>Xl.g 2 U W 0.'.W.Q.(.`.$X!.$X>X1X>X9X`.`. X~.).n v.P.!.v..X/.F.7Xm.",
"5 0.2X;X].u.i.K.N.'.+X+XF.^.`.!.;X>X`./.]./ Z W | H V + q.7X/.f i 1 E E :.|.(.W.v b.I.l l v I.z v p j j w h r h h l ~..X!.^.'.2X",
"yXyX XG.[.4X0XG.^.@X(.!.l n  Xb.z !.!./.'.N.~ m C m O . 4 4X`..Xd.p.4.~ 0.&X,X,X X X,X!.).`.&X`.`.`.@X$X-X;X/.`.$X,Xx..X`.^.(.z.",
"^.@X^.OX`./.rX=X~.`.!.OX@X@X/.~.'.).v.l c j.% & V & . O X t c v , 5 r.0.a ~.~. X!.I.W.b W._.,X9X1XOXn v.~.v.v b.l z.a 4X`._.%X X",
"/.G./.J.b.@X-X`.!.`.`.-X>X>XG.c ~./.`.!.@Xj.= / Y O V Y & 4 G.z ~./.H.G.^./. X X`.).(.^.b x v./.`.G.!.}.b.j x.a G.8 e.4X)._.)./.",
"B.i z.3X3Xg r l F.n l x G.:X/.D.).I.v.P.G.z r.s.q.3 ] T & 5 U._.*X-X!.^./.l.s.e.I.~. X>X`.`.(.}.r.z j.x.z j }.l.H./ Q b.z l b. X",
"3Xf.; V.A.a ~.v.&Xb.b.b.l. X/./.F.I.~.<X!./..X3 k.J.U A ~ ~ v.~.I.%Xv.~.b.y / ( 0 a n  Xb.z 0 , q 0 , t j.z [./.M.Q ! s. X1Xb.7X",
"` =.' ) y.M.G.b.H. XD.x l u v././.!.@X@X#X;X Xz.>.p.0.< y N.x.b.%XW.@Xl.5 4 2 , < : b XXr./ 4.[ q.5 a n n w 3 y w [ 7.$Xb [ *.B ",
"+.hXzXiX%.' p.M.5XwX>X!.z z !.`.`.c z v.~.G.z l.d.M.k.t k.|.a 0 u u k.0./ / / / 5 q ~.v.4 y.Z.{ w.r.`./.!.g 8 o . N 0.oX[.C.gX;.",
"vXvXvXfXpX+.*.V./ N.{.G.~.1X>XXX^.G.!.G.!.v.~.;X|.}. X}.U.v.j.a j g.0.( q./ E Q 0.5 k.v.4 5 y.y.l v.G.z v.g 4 1 * P N ( =.dXfXbX",
"vXvXvXjXO.L ) [ > 4 s.z ~.tX:X$Xv.v.l.l g z z !.<X:X~.!. X[./.z x.j.i w.:./ 5 w.y 9 k.4Xk.8 8 2 r }. Xl.b.0.1 ^ Y J + ; R cXZXvX",
"B L F | R T Y % $ X w e p x.z v r.a i a a b./.!.(.(.v l :X<X!.a I.I.G.g % ; o , < 1 q./ 3 8 l.t z j.r.1 :.e.:.~ $ m M ) _ | F N ",
"kXzXcXgX) @ o   X t H.^.v b.U.j.q q 3.y w.b.[.j.x.r (.I.v v.l l x.v.~.y & W E = $ ~ ^ ( q.t.].n T.0.4.4.% % 1 O % + C A # F X.dX",
"xXxXgX*.! 1 y 4 < l.@X_.n b.'.i < q 1 > q.B.B.9 < : z c r ).,X%XU. X~.y ~ 6.[ & 5.E E { Z.i.2X/.8X0.4.7.( 5 4 > X M -.%.%.hXfXzX",
"O. .F P ^ 4.T.2Xn.~.XX:XOX/.;Xz.n.B.i.( y.u.i.i.4 y 3 z c W.$X,X,X,Xb.t q.^ ( W E * ; [ A.A.8X(./.e.~ ( 1 < o o Y @ - N ..uXX.+.",
"pXO.+.*.Q ( a.2XH.G.(.^.z z J.8 4 1 4 5 < 5 ~ ! e.5 5 b.`.*X1X>X;X-X.X].Z.y.A.f.) _ &.Z.n.-X!.`.z y.8.` J _ ] < W - * 4 Y . Z ) ",
"aXhXzXgXA - 4.f.t ^.^./.}.H.z.q.1 4.1 < 3 = ; Q 4 < 2 g n !.`.). X X/.k.a.Z.L.1.Q ] V.A.].!.b G.~.n.i.>.! V.[ 1 Y N @ ~ @.$ @ A ",
"vXAXAXNX=.4 ( u.d.#X:X9X8XN.q.5.4 1 q.3., < $ W 4 4 8 g '.'./.l.v c !.j., q.B., o ~ p.B.'.G.f c l a q.>.>.] Z 1 @.#.; P #.&._ +.",
"kXlXlXcX2.:.{ BXt.H./.-X&Xx.q.( < 3 h.R.k.< :.E >.; 2 i K.2Xc.u tX`.$X X0 0 T.U.z a r.l.c !./.@XtX|.g.p.y.) Z & A H @ A W P | iX",
"lXCXvXbX2.! ` BX1 t b b l p 8 % : < > 4 6 s.K.s.P # = o ~ E < 3 l P.l w w x.x.U.!.v (.~.-X^.@Xz $X}.|.N.e./ ; @ $ N K mX~ @ X.kX",
"CXCXaX*.=.[ V.;.~ j.^.*X`.).~.[.g r.5 < 0.9 9 2 =.[ f./ E V 5 K.I.v.W.$X<X<XI.).,X).`.*X-X-X1X/.$X`.<XtX8X.Xg : A H $.sXZ @ hXAX",
"NXlXpXI W 4.q.&.1 a W.$X%X(.!.:XXX#XH.9X7X2 1 6.*.y.B.w.W U 0.^./.l.@X1X>XeX$X(.@X/.P.OX^._. X-Xb b !.-X,X X/.~.5.{ ` _ B # sXvX",
"bXpXo.- > < 8 ` 3.a !.).).}.OX>XqXqX1X:X:X{.( ] =.( s.< Z & , x [.z @XtX%X$XP.l v.v.~.OX-Xc v.H.c c l n ).-X_._.w.Z * :.nX} } kX",
"# A m B { ^ i.t.j.z n W.I.U.p z z !.v.v.v r v.l l.g g t 3.4.k.G.~.c z v l v ~.~.*X;XrX9X-X!.;X+X.X~.n s `.`.U.c H.i J.e.sXnXS O ",
"6 >._ -.9.V.2Xi r.K.;X-X<X1X@X@X;X1X X-X1X@X;X X|.+X;Xt q 2X.X X;X1X;X/.c c ~.-XtX;X;X&X-X!.[.j.7.d.@X@X@X;XeX&X4XN.qX#XZ.V._  .",
"5.[ / t.q.# U Y & % i [.`.).!.`.`.9X;X X Xv.!.!.~.n n f a c.x.P.n ).~.~.`.(.l p `./.v.l l p l.0.] ~ d. X-X:X&XI.v.r.}.XXF.H.m.$.",
"g.w.3 6 q.W M M m N 1 r.H./.n b r c n v.G.v.~.!.`.`.!.v./.).`.!. X`.!.!.~.~.v.c x.v.z h n F.s.o o O O 9 u p l P.x j v.l x G.].u.",
").;XyXN.q.W ) J S R m 1 B.&X'.~.!.I.!.~.~.`. X/.I._.,X!. X1X`.b c c ~. X X/.~.G.'. X;X`.OX`.N.3.* - L 6.i.!.oX_.(.`.`.(.'.4X7X/.",
"U.).,XXXH.q.] ;.&.R Z 1 t '.'.z v.v.`. Xc !.).!.).(.(.^./.!.I.).;X/.H./.G.~./.H.~.b.z c n G.v.k., 7 $ Y { p.g D.x.v.n W. X&X7X#X",
"-X*X).b.N.2 . ; L V & o   l.'.t  X/.-X XG./.!.v.n G.z G.G.f b n G.~./.@X[.~.~.v.J. X;X;X`.^. X8Xa k.~ ! =.=.A.DX6X X)._.!.!.`./.",
"v )._.`./.a 5 X ~ & = : 7 z l.z. X`. X(.v.~.G.).`./.H.z G.G.H.). X@X~.v.!./././.G.'.;X;X-X(.!. X%Xz , W _ o.9.BXj.n P.`.(. X-XQ."
};
