/* XPM */
static char *_b2188054b0f48d3ffdfd7a7aa2e4aa9r6MBEfJlOVO6G4Bs[] = {
/* columns rows colors chars-per-pixel */
"64 64 252 2 ",
"   c #00020D",
".  c #000413",
"X  c #040B18",
"o  c #0C131C",
"O  c #0F181B",
"+  c #111B1D",
"@  c #0C1825",
"#  c #131C24",
"$  c #141C28",
"%  c #08162D",
"&  c #291928",
"*  c #341A30",
"=  c #152225",
"-  c #16212A",
";  c #1B242C",
":  c #1D2A2D",
">  c #1A2325",
",  c #1C2432",
"<  c #1C2936",
"1  c #0D2031",
"2  c #27282B",
"3  c #36272A",
"4  c #232B34",
"5  c #2B2C34",
"6  c #242C3A",
"7  c #2B2E3A",
"8  c #252634",
"9  c #362B35",
"0  c #25323C",
"q  c #2B323C",
"w  c #263335",
"e  c #3C3234",
"r  c #33323C",
"t  c #3A343C",
"y  c #373739",
"u  c #200516",
"i  c #472B38",
"p  c #433335",
"a  c #43353A",
"s  c #443A3A",
"d  c #4B3B3C",
"f  c #483539",
"g  c #523A3E",
"h  c #411F37",
"j  c #4A403E",
"k  c #2C3542",
"l  c #2C3944",
"z  c #293747",
"x  c #323B45",
"c  c #3C3B44",
"v  c #343D4A",
"b  c #373946",
"n  c #383E51",
"m  c #333048",
"M  c #472D45",
"N  c #483A47",
"B  c #563948",
"V  c #573B55",
"C  c #4E3852",
"Z  c #653D55",
"A  c #36424B",
"S  c #3B424C",
"D  c #384347",
"F  c #3A4655",
"G  c #2C4253",
"H  c #3D4E6A",
"J  c #4D4343",
"K  c #43424B",
"L  c #4B444C",
"P  c #48474B",
"I  c #534445",
"U  c #53454B",
"Y  c #5C444A",
"T  c #554B4B",
"R  c #5B4C4C",
"E  c #574746",
"W  c #59514D",
"Q  c #444B55",
"!  c #4A4A55",
"~  c #444B5B",
"^  c #4B4D5A",
"/  c #454554",
"(  c #534C54",
")  c #5B4C52",
"_  c #564758",
"`  c #4B515C",
"'  c #475158",
"]  c #5D5353",
"[  c #57565B",
"{  c #624C4E",
"}  c #61454E",
"|  c #62514E",
" . c #664953",
".. c #635353",
"X. c #63555D",
"o. c #6B5B5C",
"O. c #685757",
"+. c #725C5D",
"@. c #73575A",
"#. c #70495E",
"$. c #474D65",
"%. c #4A5668",
"&. c #535B64",
"*. c #5B5C63",
"=. c #545D6A",
"-. c #535666",
";. c #475975",
":. c #545D76",
">. c #514C63",
",. c #684A64",
"<. c #6B5E62",
"1. c #665767",
"2. c #775C63",
"3. c #6D5776",
"4. c #5D626B",
"5. c #56626C",
"6. c #4C6276",
"7. c #546374",
"8. c #586678",
"9. c #5E717F",
"0. c #6E6364",
"q. c #68656A",
"w. c #736364",
"e. c #7A6465",
"r. c #74656C",
"t. c #7A656A",
"y. c #77696B",
"u. c #666975",
"i. c #776A75",
"p. c #6B747A",
"a. c #787578",
"s. c #74726E",
"d. c #66625E",
"f. c #846A6D",
"g. c #866D71",
"h. c #877677",
"j. c #81726F",
"k. c #495D84",
"l. c #4D6487",
"z. c #556988",
"x. c #596D93",
"c. c #5B7399",
"v. c #5C7185",
"b. c #676B8A",
"n. c #687787",
"m. c #757888",
"M. c #65789A",
"N. c #797896",
"B. c #736985",
"V. c #5D77A2",
"C. c #657CA3",
"Z. c #677DA8",
"A. c #747FA6",
"S. c #867986",
"D. c #887990",
"F. c #76828D",
"G. c #788599",
"H. c #6D8195",
"J. c #6B83AB",
"K. c #6982A7",
"L. c #7384A4",
"P. c #7788AB",
"I. c #6C85B2",
"U. c #6C8AB4",
"Y. c #728BB4",
"T. c #758BB7",
"R. c #7592BB",
"E. c #7A94BD",
"W. c #7B93B5",
"Q. c #7C9AC3",
"!. c #7A97C2",
"~. c #7DA1CD",
"^. c #8B8893",
"/. c #848AA8",
"(. c #8694A9",
"). c #8798B8",
"_. c #959AB8",
"`. c #8F92A9",
"'. c #96A3BA",
"]. c #94A3B2",
"[. c #A4ABB8",
"{. c #B1AEB2",
"}. c #A19AA4",
"|. c #849CC7",
" X c #959EC1",
".X c #89A3CA",
"XX c #97A8C8",
"oX c #8CABD5",
"OX c #88A8D5",
"+X c #93ACD4",
"@X c #94AED9",
"#X c #8BB1DC",
"$X c #94B2DC",
"%X c #9BB4DB",
"&X c #99B5D9",
"*X c #9DB3CE",
"=X c #A6A8C8",
"-X c #ADB7C5",
";X c #B3BBC5",
":X c #B7BDC8",
">X c #A4BBDC",
",X c #A6B9D7",
"<X c #AEB7DC",
"1X c #8CB3E4",
"2X c #8BB7E6",
"3X c #93B5E3",
"4X c #98BAE5",
"5X c #A3BDE3",
"6X c #A8BBE4",
"7X c #B2BAE1",
"8X c #C0BFC7",
"9X c #BBC1CB",
"0X c #BBC1C8",
"qX c #ABC1DD",
"wX c #ABC3E4",
"eX c #ABC3E9",
"rX c #B3C5E7",
"tX c #9CC2EC",
"yX c #C3C5CC",
"uX c #C9C7CA",
"iX c #D4CCCC",
"pX c #D9CDC8",
"aX c #DAD2CD",
"sX c #C4C6D1",
"dX c #CBCBD3",
"fX c #C6CBD5",
"gX c #D4CED2",
"hX c #CCD1D8",
"jX c #D4D2D4",
"kX c #D4D5DA",
"lX c #D9D7D9",
"zX c #E7D6C9",
"xX c #E6DAD6",
"cX c #F3DED3",
"vX c #F0DCCF",
"bX c #DFE1DE",
"nX c #E9E2DC",
"mX c #FCECDC",
"MX c #F6E6D9",
"NX c #FDF3DC",
"BX c #FFF8DE",
"VX c #F1E2CF",
"CX c #DBDDE1",
"ZX c #E3DFE0",
"AX c #DEE1E2",
"SX c #E7E5E3",
"DX c #F7ECE5",
"FX c #FFFCE4",
"GX c #FEFCEA",
"HX c #F9F4E8",
"JX c #FAF6F0",
"KX c #D5C9B9",
/* pixels */
"CXCXAXAXSXSXJXJXHXDXJXJXJXSXSXSXSXDXDXHXHXJXHXHXSXDXDXJXJXJXHXHXHXGXHXDXDXDXmXDXmXNXDXNXDXFXFXFXGXGXGXFXBXFXFXGXGXGXFXFXFXBXFXFX",
"CXCXCXCXlXlXbXnXSXSXDXDXDXSXJXJXJXJXJXJXJXJXJXJXDXSXMXSXDXDXDXMXMXDXMXmXDXmXmXmXmXNXFXFXFXFXFXFXGXGXFXFXBXBXFXFXGXFXBXBXNXNXNXNX",
"bXAXAXAXAXlXAXAXZXZXZXZXlXSXAXAXCXZXSXSXAXSXSXSXSXZXxXxXcXnXcXMXMXmXmXDXmXNXBXBXBXBXBXBXFXFXFXFXFXFXFXFXNXNXmXmXMXVXMXMXVXMXMXVX",
"nXbXAXAXAXCXCXAXCXCXlXlXkXkXkXCXCXkXCXlXkXlXxXlXxXxXxXnXxXcXMXMXmXmXmXmXNXNXNXBXBXFXNXNXmXnXaXaXpXKXKXzXVXVXzXzXvXvXVXVXcXvXcXvX",
"AXAXAXCXCXkXAXkXlXhXhXhXkXjXjXkXkXdXdXgXdXjXgXlXlXxXxXxXxXcXDXcXDXMXmXcXMXVXVXMXMXMXaX{.S.i.[ *.^ P W 0.}.KXzXzXzXzXzXzXzXzXzXzX",
"kXkXCXkXCXkXhXhXhXhXhXdXdXdXdXdXdXsXsXdXuXuXgXjXlXxXxXxXcXcXcXxXvXvXzXzXzXzXzXvXzX{.w.y 2 5 7 6 7 r m e e w.{.pXpXpXKXKXpXpXuXpX",
"hXhXhXhX9XhXhXhXhXhXhXdXdXgXjXjXlXaXjXjXjXaXgXxXaXxXzXxXxXxXzXpXpXpXpXpXpXpXzXaX{.T 9 c x m x b b m t c J 3 t {.KXyXuXuX:X:X{.[.",
"rXhXfXfXhXhXhXhXhXhXhXgXkXgXgXlXjXjXaXaXjXaXaXaXgXaXpXaXgXpXiXiXpXgXiXiXiXiXgX{.N t c y r 5 7 5 q r q y D K y D }.^.[.].^.F.n.p.",
"fXfXfXfXhXhXdXdXfXdXsXdXdXdXdXiXjXiXiXaXaXaXaXpXpXaXiXuXaXiXjXjXgXiXuXuXuXuX{.*.r c y 5 r 4 5 5 4 5 5 4 r b m 5 ' m.p.n.9.9.n.n.",
"9XfXsXsXsXfXdXfXdXuXfXuXdXdXsXdXuXjXjXuXjXiXgXgXuXuXuX0X0XyXyX{.:X8X8X8XuX{.^.6 D b 7 7 5 5 5 5 5 5 5 7 5 7 y r q 4.u.n.m.n.n.n.",
":XfXsXsXsXdX9XfXsXfXfXfXfX9XsXsX9X9X0X0XyX8XsX8X0XyX0X0X0X0X{.4.(.9X{.:X:X[./ r b r 5 5 2 5 4 4 5 5 5 9 5 5 9 5 y K ` &.7.F G 6.",
"9X9X:XsX:X8X9X0X9X9X:X:X9X;X9X:X0X].[.0X-X-X:X:X:X;X0X0X-X-X(.F.F.].^.F.F.u.7 b r 5 5 9 5 5 5 2 5 5 5 7 5 9 5 2 r K / A G l G G ",
":X;X;X-X-X[.0X0X-X;X;X[.-X-X-X-XqXG.F.W.H.H.W.F.(.G.(.F.m.H.G.(.p.6.7.` Q v r y e t t t y e e e 9 r 5 5 8 8 5 9 r K ! S D Q F F ",
",X:X-X-X0X0X0X[.[.;X[.-X;X-X[.[.].H.H.H.H.9.7.6.8.8.5.9.v.n.G.P.H.7.7.5.-.x 7 y L ( ] ] ] T U I j t t 9 9 2 3 5 y P ` K F -.H %.",
"(.G./.'.`.}.`.a.0.i.i.D.^.^.p.8.8.8.6.9.6.9.9.6.9.9.9.p.p.7.n.(.n.F F 5./ x 9 c ( 0.r.r.r.w.<.X.X.) B N t e 3 e p T ! / ' %.%.%.",
"6.%.7.p.-.! ( U ( ) L L ~ 4.$.9.7.8.6.6.%.6.7.H 6.7.5.6.7.%.:.n.5.F ~ &./ q t ! X.q.i.y.y.t.t.w.0.<.X.] I j j j j J P F ~ ` %.%.",
"~ &.' -.&.` [ ! _ X.T ) ^ u.v -.=.7.%.$.%.H F < &.-.` ' Q ~ A F 6.F Q ( ^ r c L 1.t.i.e.t.t.e.e.w.w.2.o.| W E E d d P y F %.F %.",
"q.4.! ! ~ Q -.^ [ _ ( ! ( u.-.8.7.:.A z v F F ` ` &.4.5.` %.7.&.8.5.*.u.( 9 ( q.i.i.r.t.y.w.2.w.w.2.2.2.O.d.| | E p P P ' &.F F ",
"n.m.~ n ~ ~ / ^ [ ( L [ ^ q.n.p.4.*.! -.*.-.=.&.' &.&.` &.4.5.D ' ( ,.3.X.a q.h.i.i.r.r.r.t.t.t.t.w.w.2.+.@.@.@.| d E ' D ' ' D ",
"N.F.-.m ~ v N / C ! ! ! ! *.u.*.[ *.-.[ *.*./ ! [ s.' D S ' ' 4.[ 0.t.f.X.U r.h.t.<.1.<.q.i.t.e.2.e.2.+.+.@.@.+.@.p j D F D D D ",
"p.n.5.w m 5 b S ^ ! ^ ` ` ! ' ' D ' D D q.q.4.q.s.4.s.a.[ 1.q.q.s.q.f.@.| w.j.j.o.) B N Y  .@.o.<.@.+.@.+.e.e.e.| e > D D l D ' ",
"&.[ ' ' ' u.4.b K Q ! / ^ -.` =.4.&.*.q.q.d.a.s.W [ s.p.q.q.q.q.u.<.t.Z y.h.j.s.@.) L p 3 3 f Y )  .} B { @.e.j.e.W [ x w D D P ",
"[ *.4.&.[ q.q.&.[ 5.=.=.8.p.7.5.5.4.4.d.4.W s.s.d.&.p.a.q.*.*.q.4.( r.e.s.h.h.y.{ g e 3 3 i i i Y I f 9 e p p W d.W &.D > D y w ",
"[ ' P y w D q [ =.5.&.l ' =.&.A l ' ' &.[ D 4.p.&.&.u.p.4.5.4.4.&.^ q.S.a.h.h.j.e.O.g p 3 3 g g X.B 3 3 & 3 3 p T J y w w w w : ",
"w : = : o ; O D -.` A . @ F ' w : P &.D b ' =.8.=.H 6.8.;.7.=.%.%.5.[ 1.S.^.j.j.f.@.{ g Y Y i f.f.} 3 3 & 2 3 p ] K : ; < w w w ",
"O - - : 2 + > 4 x l 0 : O A D w : w q w 4 D v n n n H ;.$.z v 0 < l k y ^.h.h.h.f.f.f.@.@.@.f.f.f.@.f p f f g ..( w = = 0 0 : : ",
"< : X ' n.o = = = : w w w D 0 = ; ; : : = # = $ = @ z v k < 6 k < : A P ^.h.g.h.f.f.f.@.{  .f.f.f.@.} {  .@.o.o.y = > = < : w : ",
"0 ' ` 4.F.w o : - : w : : w : - - - < : 8 : = = = ; 0 v 6 F ~ F 0 q 5 P h.h.g.g.f.f. .g g f.f.f.f.f.E  .@.@.w.R 2 = : D D : : = ",
"' p.F.p.5.w = > : : 2 = : : - = - < ; #   . @ $ X $ 6 D x k q > 6 2 2 <.h.h.g.g.@.| g Y Y f.f.f.f.f.i g  . .O.J O = - l G : = + ",
": D D D O + = O > > : : : ; - , X . . 1 G H z v ;.=.n 6 @ X 0 A 7 c 1.a.^.g.f.f.@.g E { Z Y f.f. .{ i i Y  .R e O - = ; : w = = ",
"> o . . + @ @ o + + > = - 6 . X H J..XOX&X&XoX+X@X+X.X).W.T.J.c.%.[ ] y.j.e.f.f.Y f | f.@.} Y g g g i p B R P > + + # l G = w = ",
"= = + # + o O o O o : - . . ;..XtXtXtX2X1X1XoX1X@XOX.X%X.XQ.Q.c.:.L I o.w.e.+.@.E i g { { } g g Y { p p N T y = w : : D S 0 l l ",
"X X X X X o o o O > . 1 k.!.2XtX2X1X1X1X1X#X#XOXOXOXOX.X!.U.U.Z.k.%.N [ ) o.<.+.} { Y g  .) B f p p p s K N x v v v b x x b A A ",
"$ @ z z $ o X @ - . G ).2XtX2X2X~.2X1X1X1X#XOX~.OXOX|.!.!.U.U.!.c.;.~ >.X.....o...@.@.Y } #.O.Y f g d L K v v v v v v v S A A A ",
"8 6 0 n 6 , w < . z.$XtX2X2X~.tX2X2X1X1X#XOX~.~.~.~.!.!.R.U.Z.Z.Z.k.;.C ] R R O.o.X.<.@.g g B } Y ) J c D b A A v v b x l A l A ",
"6 6 6 < k z 0 @ Y.4X2X2X2X2XtX2X~.2X1XOXOXOX~.~.~.OXR.R.R.U.!.Z.!.V.;.$.^ R d E o.+.o. .Y f i g ) ) K N b A v k k 0 q q q D A A ",
"6 6 0 0 G 1 G R.2X2X2X2X1X1X1X~.~.tX~.~..X~.~.~.~.|.!.I.I.U.U.Z.!.Z.k.k.^ ( J a ) o.o... .B U Y ( / b n v D x l b l v A A S F F ",
"6 q 0 z 1 H .XtXtX2XtX2X3X1X#X#XtX~.~.~.Q.R.E.R.!.!.R.Y.Z.I.Y.Z.V.Z.V.H $.N N a t R ..R ) U C _ N n F F x b x A A D F F A A F D ",
"6 6 z % 6.#X4X2X2X2X2X2X1X#X@X$X3X!.!.~.R.R.E.R.E.R.U.T.K.K.K.K.V.V.Z.l.H n t e p p N N K -.b._.L.< 1 m v k b r x x F ' F F D l ",
"6 k < ;.oXtX4X2X3X2X1X$X+XXX_._.).U.Q.Q.U.R.E.Y.R.R.T.R.U.K.V.K.I.V.c.Z.$.n c 3 e s s b u.-X,X7XrXXXn.< z n k l l l F A S F l D ",
"7 z X |.4X1X1X3X4X$X+X'.`.F.a.i.B./.).R.U.E.R.J.W.U.R.Q.Y.K.H.K.V.K.c.c.M.H v c 9 c N -.].qX&X4XeXrXrX(.1 v k q k x G F A z k k ",
"z . x.%X4X4X4X&X+X).G.m.a.y.g.j.i.N.P.Y.U.!.T.J.Y.Y.R.).W.L.K.M.V.K.Z.c.c.b.F F N b n `.<X>XXX@XwX%XrXrXN.. z q k l v v z k q 6 ",
"% C.3X4X4X>X'.^.B.u.q.r.0.0.y.j.a.m.L.Y.R.!.J.J.Y.Y.|.).).Y.L.c.c.H.K.K.C.c.x.;.$./ z.=X>X>X.X&X$X$X6XwX>X%.< z l x v m z 6 k 0 ",
"I.3X4X%X_.D.u.u.r.0.<.<.0.0.e.w.t.a.G.P.Y.Y.A.G.L.N././.(./.).L.H.c.M.L.).P.M.b.:.$.).rX>X&X*X&X%X%X$X%XwXW.% v x k k k k k q 0 ",
"4X4X=Xm.1.r.r.0.o.d.o.d.d.o.W E T 0.F.F.G.F.B.i.i.a.i.B.m./.).).J.M.M.M.L..X'.H.A.(.,XqX>X>X*X%X%X$XoX>X>X*XF z x x k k k m k 0 ",
"4X&XF.0.y.w.0.o.d.d...] T j E ..d.s.a.m.m.i.<.O. .X.r.B.3.B.). X).P.K.C.M.(.XX).(.*XqXqX>X&X&X%X$X&X.X$X>X,X8.1 x k 8 4 6 6 < 4 ",
"4X.X4.0.o.+.0.y.y.O.T I ] o.w.e.+.w.0.r.r.<...R ) ) _ V C N._..X.X).L.H.M.L.XXXX.X,X,X&X6X%X%XwX%X$XoX&X5X,XH.X x q 6 4 8 : : 4 ",
",XG.*.o.o.o.w.r.0.0.0.0.r.r.d.| W ..o.<.[ U K c c L >.b.b. X XXXXX).W.L.H.M.).<X<X*X*XqXwX5X5X4X4X%XOX&X%X>X].1 A q 6 k 8 8 4 4 ",
"].*.1.<.+.+.w.w.w.0.0.0.o.X.] ] ] ( T K b / >.:.b.A.T.A.A.|.=X|.XXXX).P.K.M.P.=XrX&XqXeXeX6X6X6XwX$XoX4X&X6X*X< 0 5 7 8 6 w 6 0 ",
"a.[ 1.2.+.+.o.o.o.O...W T U J I s s r ~ :.x.M.C.Z.!.!.Z.A.T.XXXXXX*X'.).L.A.A.|.rXrXeXeXeX4X6X6X4X+X@X5X%XeX,Xz 4 6 6 , , 4 6 4 ",
"d...O.....| | W T T j d s p p p I U $.6.l.x.M.V.C.!.Q.!.Z.C./. XXXXXN.P.P.L.A.P.*XeXrXeXeXeX<X%X$X@X@X@X@X>XqX6.O 5 6 6 6 : 4 4 ",
"O...| R W E I j j s e e p f I W o.1.%.H ;.k.x.x.V.I.!.!.I.V.P.=X_.[._.N.z.N.C.A.).&XrXeXqXwX<X@X$X#X@X@X+XqXrXn.  6 , 8 6 4 4 4 ",
"{ | | R I J j I J J J T E E W W ..*.%.;.k.k.x.V.Z.U.Q.!.Y.K.A. XD.#.D.D.D.N.b.b.M.).+X<X<X X|.+X$XoX$XoXoX4XwXP.. , , 8 , k , , ",
"..| W T I E R W W T T W W E R W ) [ $.;.k.k.x.x.V.I.E.Q.R.J.A.D.Z B #.#.3.,.B.B.B.b.M.). X|.OX%XoX#X$X.X.X+X>X(.. k 8 8 6 , , < ",
"..] ..W W | | | E T T T U I I j N ^ ;.k.k.l.x.V.J.U.!.Q.Q.T.N.B.V Z Z V Z C B B ,.D.N.G.).@X@X@X$X$X$XoX$XoX>X).. ; , , , 1 , , ",
"[ X.d...d.| | W W E J J j d d d *.4.;.k.l.x.V.V.Z.R.R.!.|.P.B.* V M M C V B Z Z B i B.[.@X@X3X3X$X#XoX$X%X@XwX*Xk o , , , , 1 $ ",
"] d.[ ] ..W R | W j s s j W ..o.i.3.:.l.x.x.V.V.Z.!.!.!.|.A.,.h Z h 9 C Z ,.B #.Z Z Z D.7X3X3X3X3X3XOXOX4X4XwX<Xn.. : # $ $ % @ ",
"] W W W T R R ..R E T | O.O.O.O.>.-.:.l.l.x.V.V.I.Z.!.!.!.|.,.* C * m C V #.Z #.C V Z V  X7X3X1X3X@X|.OX3X4X%XwX_.. $ o $ $ $ $ ",
"W W T T I W | ..| | O.O.X...] T ~ -.:.l.l.x.c.V.I.!.!.!.!.|.B.* h M * * M V V ,.C M M M B.<X@X@X@X@X!.|.@X4XeXwX-X; . X $ 4 7 5 ",
"W T T W T ] ....| { | | T P P Q -.:.z.l.l.x.c.V.I.I.I.!.!.D.D.M * V 9 * M Z V 3.C h C >.3. X@X@X4X|.I.|.oX$XeXqX<Xb.  > @ k q q ",
"W W W W ] ] ..] E Y U N D S $.:.:.z.z.z.z.z.x.V.T.T.Z.!.!.|.).b.& M C & M Z B ,.C M C V ,.=X%X@X%XZ.A.~.OX@X4X6XqX`.  # o 7 k r ",
"P W W P T T I j p t t c ^ -.:.8.z.z.z.z.x.z.x.M.I.!.Z.Z.I.!.A.).B.h M & B B B ,.C M C C B.<X6X3XE.z.Z.!.|.#X3X6XrX_.  # o k x x ",
"P T P j j s e 5 5 r / -.:.:.l.z.z.x.b.c.c.x.x.x.A.|.Z.Z.A.I.T.T.A.b.$.& i i M V C C ,.Z B.7X6X@Xx.x.Z.!.Q.OX%X6XfX/.  # X k x x ",
"y s s s 3 3 9 b K %.8.:.8.z.z.x.x.M.Z.C.C.M.x.c.Z.|.!.Z.Z.Z.Z.I.T.A._.3.u h * M Z #.3.B.=X7X%XA.k.c.A.T.|.OX@X5XXXF   # X 4 b m "
};
