/* XPM */
static char *result[] = {
/* columns rows colors chars-per-pixel */
"64 64 254 2 ",
"   c #010200",
".  c #090600",
"X  c #150801",
"o  c #1A0B01",
"O  c #17120D",
"+  c #280E03",
"@  c #261401",
"#  c #2C1402",
"$  c #371903",
"%  c #302613",
"&  c #0E1627",
"*  c #0E2834",
"=  c #2C2C2B",
"-  c #2A2834",
";  c #383638",
":  c #4A0A02",
">  c #6B1C04",
",  c #472808",
"<  c #50300F",
"1  c #6F2E0E",
"2  c #443B3A",
"3  c #614913",
"4  c #4E4433",
"5  c #6D5032",
"6  c #7D6933",
"7  c #2A3848",
"8  c #393944",
"9  c #433B44",
"0  c #3D454F",
"q  c #484649",
"w  c #56534D",
"e  c #4A4B57",
"r  c #504F50",
"t  c #534D55",
"y  c #555354",
"u  c #595658",
"i  c #5D5B5B",
"p  c #76594F",
"a  c #635D5B",
"s  c #665C58",
"d  c #6E6354",
"f  c #544E62",
"g  c #5B5B62",
"h  c #635D65",
"j  c #5E6362",
"k  c #646363",
"l  c #65636B",
"z  c #6B656B",
"x  c #6B6868",
"c  c #746B69",
"v  c #78746B",
"b  c #6B6975",
"n  c #746E76",
"m  c #6D727A",
"M  c #747273",
"N  c #79767A",
"B  c #861309",
"V  c #8B2A09",
"C  c #8F370F",
"Z  c #8A2718",
"A  c #972B19",
"S  c #97361A",
"D  c #A2371C",
"F  c #992823",
"G  c #9A3725",
"H  c #92342C",
"J  c #A33C26",
"K  c #A3312A",
"L  c #984D16",
"P  c #A85603",
"I  c #A54611",
"U  c #A95618",
"Y  c #A8561B",
"T  c #AA5C1C",
"R  c #9B6213",
"E  c #A66F0D",
"W  c #A8661B",
"Q  c #994725",
"!  c #904D2E",
"~  c #9A582A",
"^  c #995A33",
"/  c #A54927",
"(  c #A85729",
")  c #AC4D32",
"_  c #AA5839",
"`  c #B45A38",
"'  c #8B6F2F",
"]  c #9C632A",
"[  c #886B38",
"{  c #9A6735",
"}  c #987537",
"|  c #A86726",
" . c #A57425",
".. c #A87728",
"X. c #A76837",
"o. c #B66739",
"O. c #AB743C",
"+. c #B57635",
"@. c #C3743A",
"#. c #A95446",
"$. c #B55A45",
"%. c #886946",
"&. c #8D7245",
"*. c #987849",
"=. c #917155",
"-. c #B86846",
";. c #A87849",
":. c #B77849",
">. c #A96F51",
",. c #BC7A55",
"<. c #876A64",
"1. c #976E63",
"2. c #887669",
"3. c #8A7876",
"4. c #827D7B",
"5. c #977971",
"6. c #C66D4F",
"7. c #C3784B",
"8. c #CB7457",
"9. c #C77855",
"0. c #7E817A",
"q. c #9F813B",
"w. c #B3843B",
"e. c #998750",
"r. c #BA834B",
"t. c #AA8D5B",
"y. c #BA8756",
"u. c #99906F",
"i. c #86857B",
"p. c #998879",
"a. c #A98C67",
"s. c #B18A6E",
"d. c #AB9469",
"f. c #B79769",
"g. c #B49C6C",
"h. c #AC9777",
"j. c #B39C73",
"k. c #B79977",
"l. c #B49B7B",
"z. c #B5A772",
"x. c #B9A277",
"c. c #C5844A",
"v. c #C68756",
"b. c #D18C58",
"n. c #CA965B",
"m. c #D5AA5A",
"M. c #C88A67",
"N. c #D48865",
"B. c #CA9867",
"V. c #D39A69",
"C. c #C79876",
"Z. c #D39A75",
"A. c #CBA56B",
"S. c #D6A76A",
"D. c #CAA576",
"F. c #D7A876",
"G. c #D4AB7C",
"H. c #D2B374",
"J. c #D9B676",
"K. c #DBB47C",
"L. c #DDBA7D",
"P. c #E3A772",
"I. c #E3B97B",
"U. c #DEC27D",
"Y. c #E2C47B",
"T. c #7B7A83",
"R. c #827D84",
"E. c #8E7A8D",
"W. c #7E828A",
"Q. c #848383",
"!. c #8A8789",
"~. c #8C858A",
"^. c #948B8A",
"/. c #989489",
"(. c #8C8A92",
"). c #938D96",
"_. c #8F9694",
"`. c #999598",
"'. c #A58A89",
"]. c #A59887",
"[. c #B49983",
"{. c #A39A99",
"}. c #9BA19F",
"|. c #ABA388",
" X c #B9A788",
".X c #B1AB96",
"XX c #B3AB98",
"oX c #9A99A2",
"OX c #A29CA4",
"+X c #9EA2A4",
"@X c #A8A6A6",
"#X c #B6B4AE",
"$X c #C79B85",
"%X c #C6AA88",
"&X c #D6A986",
"*X c #C8B487",
"=X c #DCB483",
"-X c #DDBC84",
";X c #D6B688",
":X c #DCBC8C",
">X c #CDAB96",
",X c #C8B698",
"<X c #D9B995",
"1X c #E3AD85",
"2X c #E4B686",
"3X c #E2BC84",
"4X c #E2BD8B",
"5X c #E3BE96",
"6X c #C7BBA7",
"7X c #D8BCA5",
"8X c #CEBDB4",
"9X c #E0BCA7",
"0X c #DDC483",
"qX c #DCC28C",
"wX c #CAC298",
"eX c #DBC499",
"rX c #E3C385",
"tX c #E3C48C",
"yX c #EAC38B",
"uX c #E3CB8D",
"iX c #EAC989",
"pX c #E3C493",
"aX c #E5CB94",
"sX c #EACB94",
"dX c #E8C598",
"fX c #E4CC9B",
"gX c #EACC9B",
"hX c #F0CB95",
"jX c #E7D399",
"kX c #EBD29C",
"lX c #CDC2A7",
"zX c #D9C7A6",
"xX c #C9C5BA",
"cX c #D8CDB8",
"vX c #DBD2BA",
"bX c #E3CDA4",
"nX c #E4CAA8",
"mX c #EBD3A4",
"MX c #E8D4A8",
"NX c #E4CBB4",
"BX c #E8D6B7",
"VX c #F3DBB2",
"CX c #EFE2BC",
"ZX c #CBC8C4",
"AX c #DBD6C6",
"SX c #DCDAD7",
"DX c #E7DAC6",
"FX c #E8DDD1",
"GX c #EDE2C9",
"HX c #ECE6D7",
"JX c #F3EAD8",
"KX c #F3ECE5",
"LX c #F5F3EF",
"PX c #F8F4EA",
/* pixels */
" . .E P T Y C V V C C I D I P P P P P P E E E E E E  ...U P P P P P P P P / U U ( T P P P P U T | W  .E E E R V B B A D ( W ..W ",
" .<.<.5.5.^.'.'.{.].{.{.s.p.5.5.5.3.5.'./.h./.p.p.2.p 3 c 3.<.<.<.<.<.<.%.5 5 5 < 5 <.<.<.<.<.p 5 p d 2.p.p.p.3.3.p d p <.p %.p ",
" .n N T.W.W.(._.@X#X@X#XoX`.).T.W.(.!.).oXoX`._.(.b 8 7 T.T.m m b M M m b e & * & 0 m T.l l f r 7 * j N `.).`.).^.n z j j u u e ",
"| M M N b l a a 3.].@X@XoXoXW.M v ^.!.!.`.@X`.`.N q = n Q.i.0.M n N N M T.h & & 8 b N n b t 8 q f q w i.).`.`.^.(.n l d i u i y ",
"/ c x k i u q w a c OX@XoX(.n ~.).~.).~.{.OXOX).g & z Q.N T.i.M M m n b f - O - e b n m l ; 0 i T.E.; N `.{.{./.(.c l k g i u r ",
"Q i h e 8 r g j q w 2.{.+Xm !.).oXoX(.E.Q.`.@XN O h Q.R.N R.#XSXAXAXSXKX#X  e g ; i T.b 9 ; w M T.(.c y ).OXOX`.(.M b x l l j y ",
"S u t z x N Q.!.i.j u 4.`.N ).).oXOX`.^.R.(.(.q 9 R.~.T.T.@XHXKXJXHXJXKXAX4.z N r ; b l - r a N T.!.Q.q T.`.oX^.R.b a y u u i u ",
"Q j e 4.^.).{.@X@X(.l i N (._.).oXoXOX`.^.Q.b e E.).!.R.b ZXPXJXHXFXAXcXAXXXn T.M e u i q k k M Q.Q.~.z 9 E.`.n a w q - = = q r ",
"/ z b 0.^.!.`.oX@X@Xi.u s i._.).`.OXoXoX).(.T.).).(.E.R.n xXPXPXKXHXDXAXvXXXc m T.b 8 f g l z n i.!.(.~.4 u ^.; - - - * = = - 8 ",
"( z a v !._.{.@XoX#Xb m 0 j [.a.].`.@X+X`.!.W.Q.E.(.~.R.n ZXPXLXPXHXGXvXcX.Xx N M 4 = 8 y z b N 4.(.!.^.4.q a f & q i u u t 9 & ",
"( h c c (.(.{.@X@X!.b (.].k.>XV.M.[.[.k.2.i m T.T.(.~.4.n xXLXLXLXHXHXAXxX.Xx b 0 - e u q g l N 4.~.!.^.n = ; r q c l h a s t 2 ",
"( h 3.x !._.OX@XoXj /. XpXyX2XP.P.V.b.9.{ p 1.2.0.W.R.R.c xXKXPXLXHXHXFXcXXXc c p p b m r f g c R.~.Q.4.; ; k 2 y n l h i u s t ",
"( b n M 4.).@X@Xa i.<XyXhX2XP.I.4X4X2XP.b.N.b.v.p.i.R.^.q 8XLXKXJXDXvXFXvX#X<.d.S.c.^.R.h 4 u x Q.~.N q 0 k oX9 q h l h i a i t ",
") x v 4.3.~.@Xn N lXeXgXI.&XI.iX2X9XhXhXI.S.V.N.V.Z.M.%.  #XLXxXZXLX#Xd.cX,X,.` -.c.2X,Xt u q i N ~.p q Q.^.).!.q y h j l i i u ",
"( x v Q.~.~.!.h.,XmXjX3X=XI.yXiXVX5X2XY.P.I.1X1XP.F.F.B.:.7XxXd 0.xX|.< .XXXo.6.7.b.iXkX|.q e q l k ; 2 `./.).).n q u u k g u t ",
"( a x M T.N h.qXVXkXgX=XrX2XyXiXVXyXY.2X2X2X4X4XP.1XP.P.V.nXXX%   /.@X  /.6XW 7.7.S.hXmXbXu.v y r ; % a @X^./.`.!.r t y i h u t ",
"| r a s t 2.rXtXMXkXuXdXrXrXgXsX2XI.iXhXhXyXI.1XyXyXV.8.9.nXDX^.i xXxXd #X7Xo.$.6.V.jXVXVXkXz.v ; O 7 !.{.^./.{.R.a t e u i i t ",
"| 2 q t 4 eXrXmX3XkXsXqXgXrXkXyXdXiXsXyX2X2XyX2XgXA.:.9.8.9XJXZXSXxXu.xXAX>X@.$.o.n.jXkXMXmXeXd.& . ; N 4.^.^./.c s c 2 u i u y ",
"( r l d k.nXqX0XF.sXjXjXbXsXtX3XyXrXyXiXhX2XyXhXP.9.8.N.8.V.9XFXSX#X@X#X7X>.( ) 6.S.uXqXkXmXmXeXa.* T.y x v 4.c x c x w w w g u ",
"| a b c <XpX:XH.G.4XyXiXbXgXpX3XyXyXiXyXhX2XP.P.7.` 8.8.N.b.;XFX#X_.}.|.p.L Q ( 6.=XjXqXbXmXmXVXqXe.!.b a u h y N M l h u w f t ",
"( k l <.pXuXqX-XH.D.3XI.kXkXdX4XdXdXpX-X1XP.6.` ` ) $.8.b.b.NXxXW.i.i.u.p.-.) o.v.dXbXfXMXaXjXmXmXL.s.|.N k k b Q.v z h a u u y ",
"T h x v fXtXgX;XS.F.F.rXsXmXaXsXhXyX2XF.7./ #.` -.o.6.8.8.8.NXKX#X#X#X#X6Xs./ ` M.fXkXfXMXmX0XjXkXqXS.*X].].).{.3.n h s s w i i ",
"T k z M <XfXdXpX2XG.H.I.jXkXiXhXdX4X,.#.) ) K J $.-.o.6.b.N.9XDXDXHXHXAX,Xs.,.( c.tXeXmXMXBXfXU.jXjXuX3Xz.p.{.{.i.n k s a u i g ",
"| i i x 1.bX<X:X=X=XF.rXiXhXhX4X5XC.#.) ) ` ) $.$.6.9.6.6.b.7XFXJXHXcXlXC. Xs.I c.F.eXbXjXMXMXeXjXjXkXaXJ.f.'.!.4.N x a i w g k ",
" .q 4 9   mX<X=XG.2X&XqXL.dXmXpXF.) #.$.( ` ` 6.:.9.N.$X>Xa.8XKXKXcXz.a.g.wX,X,.-.V.mXfXqXmXMXzXgXjXMXkXsXF.a.M v M c h h w h k ",
"..- = - & gXaX=XZ.=XG.-X0XsX4XVX,.G Q Q ) #.` o.9.b.@.NXPXXX XGXDXAXXXu. X,XGX#X! M.MXeX0XuXMXjXmXgXMXkXsXrXS.p u k z x z z k g ",
"..- ; q e =.qX1X:XK.;XrXjXyXbXgX>.V S ) _ ) $.7.v.b.9.9XDX*Xk.DXPXJX,Xu.,XC.G.MXlXC.S.=XJ.0X0XMXmXaXkXmXaXjX2Xn.a.0 9 t a i k k ",
"..y u k c z qX:X3XS.-XrXpXdXdXC.! C / #.#._ -.,.v.b.7.9XcXH.f..XZXKXGXzX7X[.o.:XMX<XB.V.F.J.L.MXMXuXkXmXsXkXtXS.f.1.r w q 9 q r ",
" .l l N N !.<X:XI.S.rX4X2XdXC.G Z Q $.#.#.$.:.7.9.v.+.NXcXH.z.{.#XZXSXvX,X[.~ 7.2XdX;Xn.V.F.L.jXmXuXmXmXkXdXsXL.F.A.2.i e 2 9 q ",
"..l k N N Q.XX;XL.J.L.5XtXG.! H H ) _ ( ` 6.+.v.y.n.r.7XzXD.H.DXHX6X/.|. Xu.>.>.M.P.nX>Xn.H.uXjXuXjXmXmXjXtXkXrXuXS.f.g s y l i ",
"..b b M T.!.).7XL.=X=X4XGXM.1 H J / X._ -.r.c.:.7.c.V.D.C.A.:XJXLXLXAX*X<X,Xy.9.V.b.V.k. XS.0XuXtXaXuXuXjXsXsXmXaXK.B.=.u i l i ",
"| d d c c =.p.&XL.qXJ.CX1X,.>.! Q ) ) o.9.M.v.c.v.B.;X%Xf.F.x..X@X#XxXXX].].f.v.V.n.n.;XlX+.rXtXU.sXuXuXgXsXsXbXaX=X&X[ 5 5 p w ",
"W 4 4 5 5 5 6 e.=XqXfXnX+.( M.^ / #._ -.b.V.n.B.A.K.zX<XD.G. X.X@XXXxX#Xu.u.h.v.M.V.n.4XcXt.I.U.Y.yXeXaXaXqXaXfXqX=XM.1 < < 4 < ",
"T o . o @ < 3 : *XeXzXX.O.~ ,.X._ -.-.y.B.D.A.G.:X:XnX7XD.D.eXAXHXHXvXlXXX.Xs.:.v.v.v.V.nXzXS.J.tXU.qXqXqXeXqX<X0XB.o.  X . . X ",
"( o X < 5 d [ 6 ;XpXr.~ >.Q X.y.:.$.:.n.A.K.qXpXtXdX*X6X<XG.x./.|.wXvXXX2.i.5.7.r.r.n.B.dXDX+.3XuXiXfXaXaXgXaXaX:Xw.$.  o o o o ",
"W < 5 e.q.t.e.1.qXD._ ! { _ ~ :.-.9.v.A.F.=X4XrX0XuXBXwXf.G.>X.X|..XXXXX|.l.y.9.B.v.M.S.BXFX .P.Y.jXsXuXsXaXfXqXL.:.)   o o X X ",
"W &.a.a.t.t.f.a.zXf.^ ~ ] ^ ! O.+.r.A.S.J.K.3XrXY.rXmXzXlX<X>XzXwXwX,XXX*XD.9.Z.A.A.B.K.BXFX+.c.J.sXjXuXsXfXkXkXn.-.G   o X . X ",
"T g.g.h.f.k.g.a.MXXX^ ( ~ ~ R X.+.r.A.S.J.I.I.Y.-XrXY.mXJXcX<XcXlXwXzX.Xh.%XM.Z.S.S.A.*XlXJXV.+.I.sXsXaXfXfXdXdXo./ H   o X o X ",
"Y k.j.l.k.j.g.d.eXAX%.~ ~ ] R ~ :.r.F.H.I.Y.I.Y.uXsXuXY.BXJXCXXX XzXlX].u. XC.9.M.1X=X;XFXJX<Xr.2XyXsXpXbXfXrX@.6.V S . o o o X ",
"T k.j.k.g.g.g.g.x.BX=.L ] { L ] O.w.n.S.L.4XI.rXaXsXrXY.rXJXJXFXxX|.u.e..XZXe.$.M.3XJ.G.zXzXG.F.I.sXsXaXmXaXnX@.` A / . @ o X o ",
"Y k.f.h.f.g.g.j.d.<X,Xe.R ] { { :.r.n.S.=X-XK.4XuXuXrXrXL.MXJXKXSX/.i.u.|.AX|.;.C.V.S.F.>Xl.n.V.S.sXuXjXmXbX<X-.D A J   @ X X o ",
"T j.j.j.f.d.g.h.j.g.DX.X&.~ { X.;.r.n.S.K.K.;X4XsXrXrXrX0XeXvXFXDX|._.}.e.lXxX*X6X>XF.;X%Xk.v.m.m.aXtXgXdX4X9.$.F Z Q . @ O O X ",
"T k.l.k.g.j.j.k.k.s.zXBX|.} ~ -.+.y.v.V.H.-XpXgXsXY.iXuX4XD.,XwXU.z.z.H.e.z.CXBXGXGXBXBX%XD.V.4XK.yXsXsXY.S.o.J A A D X @ + o o ",
" .h.l.k.j.j.j.j.g.j.;XBXCX=.R X.;.+.r.c.J.I.rXyXiXY.rXiXU.H.lXwXwXxXz.q.y.B.3XI.3X;X<XNXNXm.F.:XrX4XyXdX2XN.` F F ) D o @ o @ @ ",
"..j.l.C.j.j.k.l.g.j.j.BXGXzX>.{ ;.| O.;.V.J.I.rXrXY.uXrXU.L.qX0XU.wXcX6Xt.A.F.F.L.I.=XzXDXb.V.:X5X:X2X-XV.9.o.F F ) C O @ + # # ",
"..j.l.z.g.j.l.h.j.h.g.eXbXGX6X>.O.X.^ >.c.S.L.4X3X3XpXtXrXrXU.Y.Y.m.CXGXz.z.F.K.J.I.=XnXvXc.n.:X<X:X=XF.c.:.( F F J 1 @ @ # $ # ",
"..l.l.k.k.x.l.k.l.s.h.a.<XbXDX%X;.;.| >.;.v.S.rX-X-X4XpXuXpXtXrXY.Y.Y.uXlXt.L.&XD.F.4XnXvXy.n.dX4X=XG.Z.6.( V A A D > O @ # # # ",
" .l.x.l. Xx.l.g.k.j.g.g.h.nXBXBXs.] { ;.:.v.S.=X-X3X:X4X0XtXqXrXY.uXU.U.*Xz.J.rXK.&X2XeXzXr.B.dX4X=X;Xv.6.` > V D K > # # # # # ",
" .l.x.x.x.x. Xz.j.g.j.k.d. XjXBXeX%X1.{ >.:.M.H.J.-X-X-X0XrXrXtXtXtXpX0XL.x.A.3X4XG.F.nXcX$XM.5X-XK.V.7.-.! > Z S J : + $ + $ , ",
"| [.x.x.x.k.l.j.x.j.j.l.h.d.*X<XBXzX,Xf.;.| ;.n.S.-X-X-X3XrX4XpXtXqXaXuX0XH.,XbX-X=XF.dXDX7Xv.qXpXF.7.-._ Z > C D / : + # $ $ , ",
"| l.x.j.x.x.k.j.j.j.g.k.j.g.g. XzXBXBXeXf.{ O.w.n.G.=XI.-X-X-XqXqXpXaXqXqXqXvXGXL.L.K.2XBX9Xv.zXdX8.-.Q ) > > G F J $ $ # $ , , ",
"| x.g.[.k.j.g.k.j.[.z.k.z.j.x.[.,XMXBXNX<X%Xr.X.:.y.n.J.4XrXqXpXrXuXtXaXbXtXfXGXDX=X=XG.pX<XB.zXN.@.I Q Z Z 1 A F F $ $ $ : < < ",
"| j.j.h.g.z.[.l.j.j.g.g.l.h.z.k.x.;XbXzXzXeXqXD.;.{ +.B.F.I.Y.tX-X-X-XqXeXNXDXJXHXFXnXzXNXvXqX=Xo./ I Q A S A A F G $ $ , , 1 6 ",
"| j.l.j.g.g.[.l.j.g.j.g.l.j.g.j.l.k.*XbXMXbXzXeXD.g.k.f.D.3XsXdXnXMXMXNXBXDXGXDXDXDXBXMXBXDXbXZ.` V D D G A A S K L , $ , < 3 *.",
"( k.l.j.g.g.g.l.l.g.l.z.j.j.g.x.[.l.f.wXzXcXbXbXbXjXzX X%XzXNXnXBXDXDXDXDXDXNX<X<X<XpXfXnXnX5XZ.` D / D G V Z J A Q , < < 3 e.f.",
"/ h.d.g.g.g.h.[.j.g.l.h.g.j.l.h.j.j.x.g.eXbXeXbXeXfXeXqX<XeX7X9X7X;X>X;X;X&X>X&X<X<X;X=XNX9XZ.M.D / o.D Q Z F K F C < < < ' d.C.",
"/ g.h.h.j.h.l.[.l.g.j.j.[.l.[.[.z.j.x.j.%XeXbXbXfXbXzX;X<X;X=X<X<X=X&X&X&XD.F.F.F.F.K.=XBXNX7X>XB ` $.K V V F D A C < < [ s.f.k.",
"/ a.a.a.t.a.a.d.d.t.d.d.d.a.d.a.t.a.d.a.t.x.eXbXbXzX:X;XG.Z.B.B.D.F.&X&X&XG.G.G.D.V.N.V.<XBXNXC.` s.( Z Q G Z F D 1 $ < &.a.e.a.",
"| =.&.*.&.} *.*.*.e.*.O.t.*.*.*.*.;.e.*.} ;.x.wXMXlX;XD.A.7.-.9.v.b.V.&X>X&X&X&XD.C.v.b.F.BX7XM.M.&X>.! ^ G F F S : . < ;.' %.&.",
"..=.%.[ %.' [ [ [ &.' ' %.*.[ &.*.=.} } } *.' D.eXzXeX;XB.v.,.:.7.v.N.Z.Z.C.&XG.Z.F.D.F.Z.5X<X7XG.C.,.,.-.J ) S V : o , =.' %.=.",
"..[ [ [ 6 6 [ 6 ' %.[ ' %.%.[ [ } [ &.[ [ [ [ %.D.zXbXpXJ.H.c.| ( _ ,.Z.Z.&X&XZ.D.P.F.V.M.&X9XnXeX=XM.M.-.r./ A Z G   % =.[ [ %.",
"..~ ! ! ! ! ~ ~ ~ ^ Q ~ ^ _ ^ ~ ~ ( | ] | ] ] R :.f.B.f.y.y.w.q.| ..;.t.y.y.,.9.:.r.9.:.:.,.M.f.f.,.-.>.X.O.( ( / / 1 1 { } O.X.",
"| | R L Q Q Q Q S / / / / / ( Y / ( U W | W  .W P P E E R E W |  . . .E P P P P P P P P P P P P P P ( ( | | ~ ) Q Q S Q Y ..q.W ",
".. .W ( _ ( Q C C Q / ) / / Y T W T T ( |  . . . . . .R | Y U U U U Y Y Y Y U U Y Y Y Y Y Y Y ( ]  . ... ...~ H B 1 Z J (  ...W "
};
