/* XPM */
static char *e2937dd455cf40228c50ccaf0450619e5ywHxUf5qPS52qVK[] = {
/* columns rows colors chars-per-pixel */
"64 64 230 2 ",
"   c black",
".  c #001700",
"X  c #002800",
"o  c #003600",
"O  c #004400",
"+  c #004B00",
"@  c #005300",
"#  c #075803",
"$  c #005C00",
"%  c #175A04",
"&  c #0D5A10",
"*  c #185A18",
"=  c #006400",
"-  c #0B6505",
";  c #016B00",
":  c #036B0A",
">  c #166802",
",  c #1B6C01",
"<  c #147300",
"1  c #1C7401",
"2  c #166515",
"3  c #276B06",
"4  c #247301",
"5  c #2B7400",
"6  c #297803",
"7  c #367600",
"8  c #266A16",
"9  c #22641C",
"0  c #336D15",
"q  c #257316",
"w  c #377A1C",
"e  c #1F4F29",
"r  c #1F5324",
"t  c #235426",
"y  c #295A27",
"u  c #25562A",
"i  c #29562A",
"p  c #265C2C",
"a  c #2B5C2C",
"s  c #2D5D33",
"d  c #345F36",
"f  c #335E3C",
"g  c #256625",
"h  c #296727",
"j  c #2E612D",
"k  c #366627",
"l  c #32632D",
"z  c #3A6A2E",
"x  c #2A7329",
"c  c #3C7A23",
"v  c #387A28",
"b  c #276532",
"n  c #2B6332",
"m  c #2E6B34",
"M  c #2E643A",
"N  c #336532",
"B  c #396736",
"V  c #346B34",
"C  c #3A6C34",
"Z  c #36623A",
"A  c #3A663C",
"S  c #346D39",
"D  c #3B6C3C",
"F  c #367235",
"G  c #3B7235",
"H  c #317936",
"J  c #35733B",
"K  c #3C743A",
"L  c #3E793A",
"P  c #427C03",
"I  c #427D1A",
"U  c #477E29",
"Y  c #416E36",
"T  c #426C3D",
"R  c #447436",
"E  c #457B35",
"W  c #42753C",
"Q  c #457B3B",
"!  c #4A7D3C",
"~  c #3B6341",
"^  c #396845",
"/  c #3E6C44",
"(  c #3B7542",
")  c #3C7443",
"_  c #426B43",
"`  c #437442",
"'  c #497642",
"]  c #457A43",
"[  c #4C7C44",
"{  c #48744B",
"}  c #447C4C",
"|  c #4C7C4B",
" . c #517E46",
".. c #527D4B",
"X. c #517D53",
"o. c #547E58",
"O. c #4D8318",
"+. c #498137",
"@. c #4C833D",
"#. c #51853D",
"$. c #55893E",
"%. c #468243",
"&. c #4C8342",
"*. c #4E8945",
"=. c #4C8149",
"-. c #538543",
";. c #538A42",
":. c #5A8B46",
">. c #53844B",
",. c #55894E",
"<. c #5C8C4C",
"1. c #4F805C",
"2. c #568A52",
"3. c #588558",
"4. c #5E9153",
"5. c #688246",
"6. c #61885B",
"7. c #659157",
"8. c #64935B",
"9. c #5C8665",
"0. c #638B64",
"q. c #688D69",
"w. c #649362",
"e. c #689565",
"r. c #729969",
"t. c #6D8C74",
"y. c #768E73",
"u. c #6D9373",
"i. c #6D9677",
"p. c #739A78",
"a. c #7BA274",
"s. c #76A47C",
"d. c #7DA57A",
"f. c #788D80",
"g. c #779982",
"h. c #7D9D8B",
"j. c #7DA382",
"k. c #7DA586",
"l. c #7EA491",
"z. c #879B87",
"x. c #81A585",
"c. c #89AB85",
"v. c #82A28A",
"b. c #85AB8B",
"n. c #8AAE8C",
"m. c #9BAD8E",
"M. c #8AB087",
"N. c #8AB18D",
"B. c #89A894",
"V. c #8CAD95",
"C. c #98AF91",
"Z. c #8AB294",
"A. c #94B39C",
"S. c #9BB698",
"D. c #A1B090",
"F. c #A3B79D",
"G. c #8DAFA2",
"H. c #94B1A1",
"J. c #97B6A6",
"K. c #9DBBA4",
"L. c #A5BBA3",
"P. c #A7B9A7",
"I. c #A3BEAB",
"U. c #A9BFB1",
"Y. c #BBBBBB",
"T. c #9FC0A7",
"R. c #A3C2AD",
"E. c #ABC1AC",
"W. c #A8C6B5",
"Q. c #A3C3BC",
"!. c #AECABC",
"~. c #B5C8BA",
"^. c #BBCCBD",
"/. c #C1D3BE",
"(. c #AECCC8",
"). c #B4CCC4",
"_. c #B9CDC4",
"`. c #AED0CB",
"'. c #B8D2C4",
"]. c #B1D0CB",
"[. c #BCDAD3",
"{. c #BCD9DB",
"}. c #C3C3C3",
"|. c #C0CEC1",
" X c #CBCBCB",
".X c #C6D7C8",
"XX c #C4DBDB",
"oX c #CCDDD8",
"OX c #D2D2D2",
"+X c #D4DBD7",
"@X c #D6DAD8",
"#X c #DBDBDB",
"$X c #CDE4D5",
"%X c #CAE2DA",
"&X c #D8E6DB",
"*X c #C4DFE4",
"=X c #CAE4E6",
"-X c #CEEAEC",
";X c #D5E6E6",
":X c #D3EBE6",
">X c #DCEAE6",
",X c #D3ECEB",
"<X c #DAECEA",
"1X c #DDF1EE",
"2X c #CEECF3",
"3X c #CEEDFC",
"4X c #D3ECF3",
"5X c #DAEDF2",
"6X c #D2EEFC",
"7X c #D9EFFC",
"8X c #D2F0F2",
"9X c #DEF2F3",
"0X c #D5F0FD",
"qX c #DCF2FD",
"wX c #DFFAFF",
"eX c #E5E5E5",
"rX c #E1EBE4",
"tX c #E3EDEC",
"yX c #ECECEC",
"uX c #E7F2EE",
"iX c #E2F3F5",
"pX c #EBF4F4",
"aX c #EDFAF6",
"sX c #E3F4FD",
"dX c #EBF6FC",
"fX c #E4FAFE",
"gX c #ECFAFE",
"hX c #F2F6F7",
"jX c #F3FDFE",
"kX c #FEFFFF",
/* pixels */
"6X6X3X6X3X0X3X3X3X0X3X3X0X3X0X3X3X6X3X3X0X3X3X6X3X6X6X6X6X6X6X6X6X6X3X6X6X6X6X3X3X6X3X3X0X3X0X3X3X3X0X3X3X0X3X3X3X0X3X3X0X0X3X3X",
"3X6X0X3X3X0X3X0X3X3X0X3X3X6X3X6X6X6X0X3X0X3X6X3X0X3X6X6X6X6X6X7X7X6X3X0X6X6X3X0X6X6X0X3X0X3X3X3X0X3X0X3X3X0X3X0X3X3X0X3X3X3X3X0X",
"0X3X3X3X3X3X0X3X0X0X3X3X6X3X6X6X6X3X6X3X3X6X6X7X0X6X6X6X7X6X6XQ.U.3X0X3X0X4X0X6X7X6X6X6X3X3X3X0X3X0X3X3X3X3X0X3X0X0X3X3X3X3X3X0X",
"3X0X3X3X0X3X3X3X3X3X3X0X3X6X6X6X3X6X6X6X0X3X6X6X4X7X6X7X7X0XfXh.g.wX0X0X0X0X6X7X6X7X6X7X3X0X0X3X3X3X3X0X0X3X3X3X3X3X3X0X0X0X3X3X",
"3X0X3X3X0X3X3X0X6X6X3X0X6X6X3X6X6X6X6X0X6X6X7X7X0X0X7X7X7X4X{.i.i.{.4X0X7X7X7X7X6X0X7X6X6X6X6X3X0X3X3X6X3X6X3X0X3X0X0X3X3X3X0X3X",
"3X3X0X3X0X3X3X0X6X3X6X3X6X3X6X6X6X0X4X0X7X6X7X7X7X7X7X7XqX,Xq.$ $ 0.4XsX4X0X7X7X7X7X7X6X7X6X7X7X3X0X6X6X3X6X3X0X3X3X3X3X0X3X0X3X",
"0X0X3X3X3X3X3X3X6X6X0X3X3X3X6X6X0X7X4X7X7X0X7X7X7X7X7X7XqX-Xp., 2 p.=XqX7X7X7X7X7X7X7X7X7X6X7X6X0X6X7X3X3X6X3X3X0X3X3X0X3X0X3X3X",
"3X3X3X0X3X0X0X3X6X3X3X3X0X0X0X0X7X0X0X7X7X7X7X7XsXqX7XfXXXq.&.L L &.0.XXdX7XqXqX7X7X7X7X7X7X7X6X0X6X6X6X6X6X0X3X0X3X3X0X3X3X3X0X",
"3X3X3X0X3X3X3X0X3X6X3X3X0X0X4X0X6X7X7X7XqXqXqXsXqXsXqXgX%X$ v ] ] v $ XXgXqXqXqXqX7XsX7X7X7X7X7X7X0X6X6X6X3X0X3X3X3X0X3X3X3X0X3X",
"0X0X3X3X0X0X3X3X3X6X0X3X0X0X7XqXqXqXqXqXqXqX7XsXsXsXfXXXk.=.+.K K @.=.k.XXsXsXsXsXqX7XsXsX7X7X7X7X7X7X0X0X6X6X6X3X0X3X3X0X3X0X3X",
"3X0X0X3X3X3X0X3X6X3X0X0X7X7X7X7XqX0XqXqXsX7XsXsXsXsXgXW.+ =.*.F C &.>.+ U.gXsXsXsXsXsXqXsX7X7X7X7X7X7X6X0X0X6X3X3X3X0X0X3X0X3X3X",
"3X3X3X3X0X3X3X3X0X0X0X0X7X7X7X7XqXqXsXqXsXsXsXsXsXsX5XK.5 ) +.l V ] K 5 K.<XiXsXsXsXsXsXsX7XsXsX0X0X7X7X7X0X7X6X0X3X3X3X3X3X3X0X",
"0X0X3X3X0X3X0X0X6X6X7X7X4X7X0XqXqXqXsXsXsXsXsXqXdXsXv.@ 2.+.J V V F +.2.$ k.iXfX7XsXsXsXsXqX7X7XqXqX7X7X6X7X6X0X3X0X3X3X0X0X3X3X",
"3X3X3X0X3X3X3X0X6X7X7X7XqXqXsXqXqXsXsXsXsXsXsXsXdXiXn.$ | +.@.F J @.@.| $ n.iXgXsXsXsXsXsXsXsXsXsX7X7X7X7X7X6X7X0X3X0X3X3X3X3X0X",
"3X0X3X3X0X{.l.8XqX0XqX7X7XqXqXsXqXsXsXsXdXsXsXgX5XV.,.%.E L @.V V %.K Q %.,.V.<XdXsXdXsXsXsXsXsXsXqXsX7X7X0XwXwX8Xl.{.3X3X3X3X0X",
"3X3X0X3X0X`.  H.J.G.Q.fX7X7XqXsXsXsXsXsXiXdXdXjX;Xh $ <.L m %.K C @.V L 2.$ g ;XjXsXdXqXsXsXsXsXsXsX7XqXsXQ.G.J.G.  (.wX3X0X3X3X",
"0X3X0X3X0X=XB.& $ = F !.9XfX7XsXsXsXsXsXdXdXsXgX<X0.$ [ %.K Q K K L G @.=.# 0.;XgXdXdXsXsXsXsXsXsXdXgXsX(.N $ = % B.=X6X3X3X6X6X",
"0X3X3X6X3X0X2X_ Q 4.! - !.9XdXfXsXsXdXsXdXdXfXjX<X8., ] +.@.K m m K @.+.] , 7.<XjXsXdXdXdXdXsXsXfX*X*X!.> S 2.] _ 2X0X6X6X6X0X3X",
"3X3X0X6X0X0X2Xe.n Y :.E 2 U.9X,XsXdXsXdXdXdXdXjX>X4.v ' j ] @.F F @.@.a ' w 7.>XjXdXdXfXdXsXdXsX9Xv.$ G @.:.R l q.2X7X6X0X0X3X3X",
"3X0X3X6X6X6X7X,Xb.@ _ :.E ' } a.<XdXiXdXdXdXdXjX>Xo.4 4.Q l +.K J @.j L ,.q X.>XjXdXgXgXdXiXgXiXp.3 h E :.T # j.-X6X7X6X3X3X3X0X",
"6X6X6X0X0X6XqXsXZ.5  .l :.E 9 U p.&XjXgXdXgXdXjX<X8.> >.Q i Q L L ! t Q ,.2 7.rXjXdXdXdXjX~.u.a.$.m &.:.l  .5 V.qX7X0X7X6X0X3X3X",
"6X6X6X6X0X6X7X0Xk.= ,.C C V R ! I x.A.!.gXjXdXjXrX$.@ _ K V V m V V S G _ + $.&XkXdXgXhX/.o.$ w ;.G S C z ,.= j.9XqX7X6X6X0X0X3X",
"3X6X6X4X6X7X7XsX'.u.y T e i L #.-.8 @ :.^.pXjXjXpXE.3.* K Q G j n C ! K * 3.U.pXjXjXaX^.-.> ` @.@.L a e T g y.'.0X0X7X6X7X6X6X3X",
"6X6X6X7X7X7X7X7XfX'.o _ l n V -.! R | c $ ^.dXjXjXjXS.$ _ Q ;.N l ;.Q _ $ S.jXjXjXhX_.= c | C @.@.V n j / o !.gXqXqX7X7X6X6X6X6X",
"6X6X6X6X7X0X7XqXsX!.= >.Q C N &.@.G F :.-.$ I.aXjXpXc.@ ` V ] N N &.m { $ x.hXjXhXU.$ #.:.G D @.@.l C Q ,.= W.sX7X7X0X7X0X6X7X6X",
"6X6X7X6X7X7X7XqXsX).+ ` k ! ! V R S R ;.@.W 2 H.kXhXz.+ X.m K j l F V [ + z.hXkXJ.: W @.;.R V K V ! ! l _ + !.fX7XqX7X7X6X6X6X6X",
"6X6X6X7X7X7X7XqXqX5X_.f i a j t N M K #.#.W # S.kXjXtXP.4 D a N N a D q S.tXjXkXS.$ W #.#.G V m u s l i d ).5XsXsX7X7X0X6X7X0X6X",
"6X6X6X6X7X7X7XqXqXdX,X@ G W G R Q K K @.! S Q 8.P.yXkX_.@ [ i n N i [ @ ~.kXyXL.0.! S @.#.L K Q R G ` G + -XdXsXqX7X7X7X6X6X0X3X",
"7X6X6X7X7X7X7XsXsXsX5XR.o.k T C C a j Q +.V | = 3.hXkXE.$  .R N N K =.$ P.kXjX6.= [ F +.! N a B C R h o.E.,XsX7XqX7X7X7X7X6X6X6X",
"6X6X6X7X7X7X7XqXqXsXfXsXt.+ T l l N N F Q V Q ! r..XjX|.= D &.B N &.D $ /.hX.Xr.E Q V Q G V l l l D O t.sXsXsXsXsXqX7X7X7X0X0X3X",
"6X6X6X7X6X7X7XsXsXsXsXiXp.3  .R Q R R N z V L <.c 9 +X.X@ A ` V l Q T + .X+Xg c <.L N C N K W ! R -.3 r.iXsX7XsXqXqX7X7X6X8X0X3X",
"6X6X6X7X7X7X7XqXqXsXfX9Xu.$ _ y i y t l Q F G <.c F &X.X= >.l a s N >.= .X$XD c <.z C ! l t i i i _ $ y.iXfXsXsXsX0X7X0X0X6X0X6X",
"3X6X6X7X7X7X7XqXsXqXsXsX<XV.$ >.R ! -.! C Q R ' c F +XkX/.-.g f N h @./.kX+XC c ' C W C ! #.! E ..$ n.<XsXsXsXsXqX7X7X0X7X6X0X6X",
"6X3X7X7X0X0X7XqXqXqXsXsXgX>XL.- T B z l t V R ! Q V 6.&X>Xm & N Z * 9 &XrXq.V E #.Q C i N V B T - S.<XgXsXsXqXqXqX7X7X0X7X6X6X6X",
"3X0X6X7X7X7X7XsXsXqXsXsXsXgX1XA.9 % D z R Q #.$.! ! + ~.rXY @ D A @ C rX~.+ ! ! $.$.Q R z D & 9 S.<XgXsXsXsXsXqX7X7X7X7X6X6X6X6X",
"0X3X6X0X7X7X7X7X7XsXsXsXfX9XgXgXK.e.[  .! R R R ! &.; ^.&X3 # _ ` % ; &X|.- #.! R R R R  .[ w.K.fXgXsXsXsXsXqXqXqX7X7X6X7X0X6X6X",
"3X3X6X0X7X7X7X7XqXqXsXsXsXsXiXsXgXZ.O A s a a R  .S = |.uXq.Q C S +.q.tX|.; S -.Y y a a Z + n.fXdXsXsXsXsX7XqXqXqX7X7X7X7X6X6X3X",
"3X0X7X6X0X0X0XqX7XsXsXsXsXsXfXdXdXH.w 4.Q @.@.#.#.D , P.kXrXu.+ + u.rXkXP., D @.#.#.-.! 4.v A.dXgXsXsXsXsXsXsXqX7X7X0X0X6X6X6X6X",
"6X3X6X6X6X4X7X7X7XqXsXsXsXfXfXdXfX<X<X_.; ] X.d t r ' 7 E.uXz.O o g.uXE.7 R t t Z X.[ ; '.5X<XdXdXsXfXdXsXsXqXqX6X6X6X0X0X3X3X0X",
"3X6X6X6X0XwXfXfXW.d.n.v.c.x.h.x.c.>XkXjX$X-.X 0 -.! 7.= C.yXf.+ @ f.uXS.$ 7.! >.3 X &.$XgXkX<Xb.j.h.x.n.x.n.d.W.wXsXfX0X0X0X3X3X",
"6X6X6X0X].n.G.R.8.; $ @ - 4 6 $ $ j.R.J.I.^.$XK.O Y T 0 a.F.o.9 * 3.F.a.0 T Y o L.$X'.I.K.R.k.= $ 4 1 = $ @ ; 8.K.A.c.].0X3X0X3X",
"6X3X3X0X].b.b.P P L M Z s R ] M ( v 6 @ $ !.%X).V.l %  .U 3 +.B C @.3 U -.% N B._.$XW.# + 6 c L M ] / s M M R I P b.n.].0X3X0X3X",
"6X3X6X6X0XwX8Xc.d.8.x %.N u b b ! &.Q S K 3 O v.&XM.:.@.R n ] B N Q s R #.:.M.$XB.+ 4 J F ( &.&.m p p N %.x 8.d.c.8XwX0X6X6X6X3X",
"3X6X6X3X3X3X0X8XqX].O.:.m H J r u p K ;.%.S / @ q.$Xv.. ~ a V a a V a ~ . v.$Xq.@ ^ V &.$.K p r t J J x *.O.'.qX0X0X3X3X6X6X6X6X",
"3X0X0X3X0X0X0X0X7XqX[.2 g m m b b a i y a b Q *.@.| ) F Q ! N C R j ] ! F ( X.=.;.L b p y i u b n b b b - [.7X6X6X0X0X3X6X6X3X6X",
"3X3X3X6X3X3X6X6X6XqX4X{.XXl.$ 2.( J J m V p g N G L +.Q F Q B l N V Q F Q @.v F C y p m m D ( ( 2.+ k.{.{.6X0X7X0X6X6X3X3X6X0X3X",
"0X3X0X3X3X6X6X6X0X6X6XqXsX=XZ.6 4 1 H } %.) _ ~ ~ | ..A p J S i i S F j A ..| ~ ~ _ ) =.} H 1 6 6 b.%XqXwX0X0X0X0X6X3X0X3X0X3X3X",
"0X3X3X3X0X3X6X6X6X7X6X4X3XwX-XJ.R.R.j.$ 1 < < > @ X X + a p A N d Z a a + X o + > < ; 6 $ a.R.R.J.-XwX6X8X0X6X0X6X3X3X0X3X3X3X0X",
"3X3X3X0X0X3X3X3X0X3X0X0X0X5X7XqXqXfX[.d.N.M.M.M.N.V.G.u.g N + k k + Z h u.A.Z.N.M.n.n.Z.d..XfXfXsX7X7X0X6X0X6X6X6X6X3X3X0X3X3X0X",
"3X0X3X3X3X3X0X3X3X0X0X0X0X0X0X7X7XqXqX9XqXsX9XsX9X:X,XR., | 3.5.5.1.=.< T.:X:X9XsXiXsX7XqX7X7X7X0X7X7X7X6X0X0X6X6X3X0X3X3X0X3X3X",
"0X3X0X3X3X0X0X3X3X6X0X0X6X7X0X7X7X0XqX0XqXsXqXgX-Xp.,.w.; o.oXD.D.%X1.; w.>.i.:XfXqXsXsXsX7X7X7X7X0X7X6X0X3X3X0X3X3X6X3X0X3X0X3X",
"3X3X0X3X3X0X3X3X3X6X3X3X7X6X6X7X7X7X7X7XqX0X7XfX,X&.< 3 u.=XfXm.m.gX=Xi.3 ; @.:XfX7X7X7X7X6X0X0X6X6X6X6X3X0X3X3X6X6X3X0X3X3X0X3X",
"3X0X3X3X0X3X3X0X0X3X3X3X6X6X7X6X0X7X7X7X7X7XqX*Xj.2.1.+ u.qXfXS.m.dXqXp.O 1.,.j.XXqX0X0X7X7X7X6X7X6X6X3X6X3X0X3X3X0X0X3X3X3X0X3X",
"3X3X0X3X0X3X3X0X3X3X0X0X3X3X6X6X4X6X6X0X6X6XqX].; 9 $ 9.).0XsXF.F.fX7X(.9.$ 8 = ].qX7X0X0X6X6X0X0X6X0X3X3X0X3X3X3X3X3X3X0X3X0X3X",
"0X0X3X3X3X3X3X3X3X0X6X3X3X6X6X6X6X0X6X6X7X7XwX(.7 g.g.(.fX7XqXP.P.qX6XfX`.p.p.6 `.wX7X6X6X6X6X6X6X6X6X6X3X3X0X0X0X3X3X0X3X0X3X3X",
"3X3X3X0X3X0X0X3X3X3X6X3X6X3X6X6X6X6X6X7X6X6XwX].s.2XwX6X6X0XqXF.F.qX7X6X6XfX4Xs.`.qX6X7X6X6X7X6X3X6X3X6X0X3X3X3X0X3X3X0X3X3X3X0X",
"0X3X3X3X6X3X3X6X0X3X3X6X3X3X6X3X6X3X6X6X6X7X0X6X4X6X6X6X6X7XqXP.P.7X0X7X7X6X6X4X6X6X6X7X6X6X6X6X3X6X6X3X3X6X6X6X3X3X3X6X3X3X6X3X",
"3X3X0X3X3X6X6X6X3X3X6X6X6X6X6X6X6X3X6X3X3X3X6X6X6X6X7X7X0X6X7X=X=X7X6X4X0X6X6X0X6X7X6X6X6X6X3X6X0X6X3X3X6X6X3X6X3X0X6X6X6X6X3X0X",
"3X3X3X3X3X3X3X3X3X3X3X6X3X3X3X3X6X3X3X3X3X3X3X2X3X6X3X6X6X6X6X6X6X6X6X6X3X3X3X3X3X3X3X6X3X3X3X6X3X3X3X3X3X3X3X3X3X3X3X3X3X3X3X3X",
"gXdXgXdXgXgXgXdXgXgXdXdXdXdXgXdXdXdXdXdXdXiXdXgXdXdXdXjXdXdXdXdXdXdXdXdXdXjXdXdXgXjXdXdXdXgXdXdXdXgXgXgXdXdXgXdXgXgXdXdXdXdXdXgX",
"kXkXkXkXkXkXkXkXkXkXkXkXkXkXkXkXkXkXkXkXkXkXkXkXkXkXkXkXkXkXkXkXkXkXkXkXkXkXkXkXkXkXkXkXkXhXkXkXkXkXkXkXkXkXkXkXkXkXkXkXkXkXkXkX",
"kXkXkXkXkXkXkXkXkXkXkXkXkXeX}. XeXOXY.OXOX@X@X XOX#X X XhXeX@X@X X#XyXjXeXOXOX XOX XY. XOX XOX X X X XkXkXkXkXkXkXkXkXkXkXkXkXkX",
"kXkXkXkXkXkXkXkXkXkXkXkXkX@X}.OXY.}. X}.}.@XOX X}.Y.}. X#X@X}.}. XOXyXkXeX XY.Y. X XOX}.}. X XOXOXOXOXjXkXkXkXkXkXkXkXkXkXkXkXkX",
"kXkXkXkXkXkXkXkXkXkXkXkXkXkXkXkXkXkXkXkXkXkXkXkXkXkXkXkXkXkXkXkXkXkXkXkXkXkXkXkXkXkXkXkXkXkXkXkXkXkXkXkXkXkXkXkXkXkXkXkXkXkXkXkX"
};
